<svg width="181" height="102" viewBox="0 0 181 102" fill="none" xmlns="http://www.w3.org/2000/svg">
<path d="M50.7565 81H0L20.3102 36.1798C28.1386 52.4797 38.3419 67.4955 50.7565 81Z" fill="#00C4FF"/>
<path d="M75 0L74.9564 74.4212C53.5587 54.0599 37.7891 28.5094 30.0371 0H75Z" fill="#00C4FF"/>
<path d="M126.502 56.0223H112.282L110.105 63.9713H95L110.989 16H127.794L143.783 63.9713H128.678L126.501 56.0223H126.502ZM123.304 43.9602L119.425 29.5681L115.479 43.9602H123.304Z" fill="#F7F2EA"/>
<path d="M181 48.004C181 58.3522 172.428 65 161.065 65C155.281 65 150.111 63.0813 145.485 60.0661L150.247 49.0327C153.037 51.0207 156.847 52.6654 160.454 52.6654C164.468 52.6654 166.918 50.5402 166.918 47.5251C166.918 44.51 164.536 42.4542 159.365 42.4542C157.46 42.4542 155.283 42.7283 153.037 43.1395L159.637 28.3363H146.642L148.34 16H179.638L169.977 33.5442C176.644 35.0518 180.998 40.5339 180.998 48.004H181Z" fill="#F7F2EA"/>
<path d="M8.16682 101.633L6.88047 98.6853H3.02142L1.73507 101.633H0L4.95095 91L9.88693 101.633H8.16682ZM3.61972 97.3067H6.26721L4.95095 94.2853L3.61972 97.3067Z" fill="#FFFDF8"/>
<path d="M14.6594 95.268C16.2449 95.4 17.4565 96.7053 17.4565 98.3773C17.4565 100.328 15.8411 101.795 13.747 101.795C12.5205 101.795 11.5034 101.281 10.7106 100.445L11.4286 99.1693C11.9521 99.8293 12.7449 100.372 13.7171 100.372C14.9287 100.372 15.8411 99.492 15.8411 98.3333C15.8411 97.204 14.9735 96.3387 13.5675 96.3387C13.1786 96.3387 12.7299 96.3973 12.2812 96.5L14.6594 92.7893H11.0248L11.2641 91.3667H17.3668L14.6594 95.268Z" fill="#FFFDF8"/>
<path d="M24.5335 92.8187V95.9573H27.8541V97.4093H24.5335V101.633H22.9331V91.3667H28.3776L28.6319 92.8187H24.5335Z" fill="#FFFDF8"/>
<path d="M35.3484 101.824C32.2522 101.824 29.8141 99.4773 29.8141 96.5C29.8141 93.5227 32.2522 91.176 35.3484 91.176C38.4446 91.176 40.8827 93.5227 40.8827 96.5C40.8827 99.4773 38.4446 101.824 35.3484 101.824ZM35.3484 100.328C37.5172 100.328 39.2224 98.6413 39.2224 96.5C39.2224 94.3587 37.5172 92.672 35.3484 92.672C33.1796 92.672 31.4744 94.3587 31.4744 96.5C31.4744 98.6413 33.1796 100.328 35.3484 100.328Z" fill="#FFFDF8"/>
<path d="M48.0828 101.824C44.9866 101.824 42.5485 99.4773 42.5485 96.5C42.5485 93.5227 44.9866 91.176 48.0828 91.176C51.179 91.176 53.617 93.5227 53.617 96.5C53.617 99.4773 51.179 101.824 48.0828 101.824ZM48.0828 100.328C50.2516 100.328 51.9568 98.6413 51.9568 96.5C51.9568 94.3587 50.2516 92.672 48.0828 92.672C45.9139 92.672 44.2088 94.3587 44.2088 96.5C44.2088 98.6413 45.9139 100.328 48.0828 100.328Z" fill="#FFFDF8"/>
<path d="M55.7316 101.633V91.3667H58.3342C61.4453 91.3667 63.7937 93.5667 63.7937 96.5C63.7937 99.4333 61.4453 101.633 58.3342 101.633H55.7316ZM57.332 100.152H58.3043C60.518 100.152 62.1334 98.5973 62.1334 96.5C62.1334 94.4027 60.518 92.848 58.3043 92.848H57.332V100.152Z" fill="#FFFDF8"/>
<path d="M77.1229 100.797L76.0759 101.795L74.7746 100.445C73.9071 101.281 72.86 101.809 71.7083 101.809C69.9433 101.809 68.6271 100.592 68.6271 98.9787C68.6271 97.6 69.5843 96.7933 70.6762 96.148C69.9583 95.3267 69.4946 94.5933 69.4946 93.7133C69.4946 92.2907 70.7211 91.1907 72.2917 91.1907C73.8323 91.1907 75.0738 92.2613 75.0738 93.684C75.0738 95.048 74.0118 95.796 72.875 96.412L74.7148 98.304C75.0738 97.7467 75.4028 97.1013 75.6721 96.412L77.0332 96.896C76.7041 97.7613 76.2554 98.612 75.7319 99.36L77.1229 100.797ZM72.2767 92.496C71.5587 92.496 71.0053 93.024 71.0053 93.7427C71.0053 94.256 71.3045 94.74 71.9476 95.444C72.8301 94.9453 73.5481 94.4467 73.5481 93.684C73.5481 93.0093 72.9947 92.496 72.2767 92.496ZM71.7981 100.431C72.4861 100.431 73.1741 100.049 73.8024 99.4333L71.5886 97.1307C70.8109 97.6147 70.1976 98.1573 70.1976 98.9347C70.1976 99.756 70.8707 100.431 71.7981 100.431Z" fill="#FFFDF8"/>
<path d="M86.8993 96.3387C88.066 96.7493 88.784 97.6587 88.784 98.8173C88.784 100.489 87.4228 101.633 85.4335 101.633H82.1877V91.3667H85.3138C87.2134 91.3667 88.5147 92.4667 88.5147 94.036C88.5147 95.0773 87.9015 95.9133 86.8993 96.3387ZM85.1642 92.7013H83.7882V95.7813H85.1642C86.1963 95.7813 86.9143 95.136 86.9143 94.1973C86.9143 93.3173 86.1963 92.7013 85.1642 92.7013ZM85.3138 100.299C86.3908 100.299 87.1387 99.6533 87.1387 98.7C87.1387 97.7613 86.3908 97.116 85.3138 97.116H83.7882V100.299H85.3138Z" fill="#FFFDF8"/>
<path d="M92.491 100.196H97.0082L96.7539 101.633H90.8905V91.3667H96.5594L96.8137 92.804H92.491V95.6493H96.0509V97.0867H92.491V100.196Z" fill="#FFFDF8"/>
<path d="M105.969 91.3667H107.704L102.753 102L97.8167 91.3667H99.5518L102.768 98.5973L105.969 91.3667Z" fill="#FFFDF8"/>
<path d="M110.832 100.196H115.349L115.094 101.633H109.231V91.3667H114.9L115.154 92.804H110.832V95.6493H114.391V97.0867H110.832V100.196Z" fill="#FFFDF8"/>
<path d="M124.153 101.633H122.194L119.038 97.336V101.633H117.437V91.3667H119.95C122.269 91.3667 123.704 92.7307 123.704 94.5787C123.704 96.1187 122.672 97.2773 121.057 97.6147L124.153 101.633ZM119.038 92.7453V96.6027H119.83C121.222 96.6027 122.059 95.796 122.059 94.652C122.059 93.5373 121.222 92.7453 119.83 92.7453H119.038Z" fill="#FFFDF8"/>
<path d="M133.246 101.633L131.96 98.6853H128.101L126.815 101.633H125.079L130.03 91L134.966 101.633H133.246ZM128.699 97.3067H131.347L130.03 94.2853L128.699 97.3067Z" fill="#FFFDF8"/>
<path d="M140.516 95.884H144.495V100.944C143.538 101.487 142.236 101.824 140.95 101.824C137.884 101.824 135.46 99.4773 135.46 96.5C135.46 93.5227 137.943 91.176 141.085 91.176C142.147 91.176 143.179 91.4547 144.031 91.8947L143.777 93.4347C142.999 92.9507 142.057 92.6573 141.099 92.6573C138.856 92.6573 137.121 94.344 137.121 96.5C137.121 98.656 138.811 100.343 140.995 100.343C141.743 100.343 142.386 100.225 142.984 99.976V97.2773H140.262L140.516 95.884Z" fill="#FFFDF8"/>
<path d="M148.462 100.196H152.979L152.725 101.633H146.862V91.3667H152.53L152.785 92.804H148.462V95.6493H152.022V97.0867H148.462V100.196Z" fill="#FFFDF8"/>
<path d="M159.864 100.137H164.172L163.918 101.633H158.264V91.484L159.864 91.2493V100.137Z" fill="#FFFDF8"/>
<path d="M171.296 92.848H168.409V101.633H166.809V92.848H163.907L164.161 91.3667H171.042L171.296 92.848Z" fill="#FFFDF8"/>
<path d="M172.938 101.633V91.3667H175.541C178.652 91.3667 181 93.5667 181 96.5C181 99.4333 178.652 101.633 175.541 101.633H172.938ZM174.538 100.152H175.511C177.724 100.152 179.34 98.5973 179.34 96.5C179.34 94.4027 177.724 92.848 175.511 92.848H174.538V100.152Z" fill="#FFFDF8"/>
</svg>
