<svg width="1128" height="446" viewBox="0 0 1128 446" fill="none" xmlns="http://www.w3.org/2000/svg">
<g clip-path="url(#clip0_241_110)">
<path d="M786.95 319.25H698.12L684.52 368.55H590.16L690.04 71.03H795.02L894.9 368.55H800.54L786.94 319.25H786.95ZM766.97 244.44L742.74 155.18L718.09 244.44H766.97Z" fill="#071413"/>
<path d="M1127.38 269.52C1127.38 333.7 1073.83 374.93 1002.85 374.93C966.72 374.93 934.421 363.03 905.521 344.33L935.271 275.9C952.701 288.23 976.501 298.43 999.031 298.43C1024.11 298.43 1039.41 285.25 1039.41 266.55C1039.41 247.85 1024.53 235.1 992.23 235.1C980.33 235.1 966.731 236.8 952.701 239.35L993.93 147.54H912.75L923.38 71.03H1118.89L1058.54 179.84C1100.19 189.19 1127.39 223.19 1127.39 269.52H1127.38Z" fill="#071413"/>
<path d="M279.12 445.95H0L111.69 199.19C154.74 288.93 210.85 371.6 279.12 445.95Z" fill="#00C4FF"/>
<path d="M412.44 0L412.2 409.73C294.53 297.63 207.81 156.96 165.18 0H412.44Z" fill="#00C4FF"/>
</g>
<defs>
<clipPath id="clip0_241_110">
<rect width="1127.38" height="445.95" fill="white"/>
</clipPath>
</defs>
</svg>
