<svg preserveAspectRatio="none" width="100%" height="100%" overflow="visible" style="display: block;" viewBox="0 0 96 100" fill="none" xmlns="http://www.w3.org/2000/svg">
<g id="Frame 31">
<rect width="96" height="100" rx="48" fill="var(--fill-0, #6FA59B)"/>
<path id="Vector" d="M28.6348 40.1986H67.3488C67.9349 40.1986 68.4127 40.6729 68.4127 41.2546V44.5796C68.4127 45.1613 67.9349 45.6355 67.3488 45.6355H28.6348C28.0487 45.6355 27.5709 45.1613 27.5709 44.5796V41.2546C27.5709 40.6729 28.0487 40.1986 28.6348 40.1986ZM18.2795 36.9508C17.4767 37.3175 16.5211 36.9674 16.1489 36.1705C15.7794 35.3572 16.1183 34.4253 16.935 34.0559L47.3297 20.1438C47.763 19.9453 48.2547 19.959 48.6714 20.1438L79.066 34.0559C79.8688 34.4226 80.2244 35.3572 79.8522 36.1705C79.4827 36.9673 78.5244 37.3202 77.7216 36.9508L47.9932 23.345L18.2795 36.9508ZM42.0351 51.5356H44.4907V55.2438C44.4907 55.6739 44.6601 56.0571 44.9379 56.3466C45.2157 56.6527 45.6185 56.8374 46.0657 56.8374H49.9241C50.3713 56.8374 50.7741 56.6527 51.0658 56.3466C51.3269 56.0544 51.4991 55.6711 51.4991 55.2438V51.5356H53.9686C54.6797 51.5356 55.2798 52.1173 55.2798 52.8369V64.8025H40.7239V52.8369C40.7239 52.1174 41.3101 51.5356 42.0351 51.5356ZM46.5713 51.5356H49.4102V54.7531H46.5713V51.5356ZM50.2936 66.7492H52.7491V70.4409C52.7491 70.871 52.9186 71.2681 53.1964 71.5603C53.4741 71.8525 53.8769 72.0345 54.3241 72.0345H58.1825C58.6297 72.0345 59.0325 71.8498 59.3103 71.5603C59.5881 71.268 59.7575 70.871 59.7575 70.4409V66.7492H62.227C62.9381 66.7492 63.5242 67.331 63.5242 68.0506V79.9999H48.9826V68.0506C48.9826 67.331 49.5685 66.7492 50.2936 66.7492ZM54.8297 66.7492H57.6687V69.9667H54.8297V66.7492ZM33.777 66.7492H36.2326V70.4409C36.2326 70.871 36.4021 71.2681 36.6798 71.5603C36.9743 71.8525 37.3743 72.0345 37.8076 72.0345H41.6826C42.116 72.0345 42.516 71.8498 42.8104 71.5603C43.0882 71.268 43.2576 70.871 43.2576 70.4409V66.7492H45.7132C46.4382 66.7492 47.0243 67.331 47.0243 68.0506V79.9999H32.4685V68.0506C32.4685 67.331 33.0546 66.7492 33.7796 66.7492H33.777ZM38.3298 66.7492H41.1549V69.9667H38.3298V66.7492ZM74.1411 37.4392V80H66.1602V47.5824H67.3491C69.0158 47.5824 70.3741 46.2341 70.3741 44.5799V41.255C70.3741 39.6007 69.0158 38.2525 67.3491 38.2525H28.6351C26.9684 38.2525 25.61 39.6008 25.61 41.255V44.5799C25.61 46.2342 26.9684 47.5824 28.6351 47.5824H29.824V80H21.8602V37.4392L47.9938 25.49L74.1411 37.4392Z" fill="var(--fill-0, #FFFDF8)"/>
</g>
</svg>
