<svg preserveAspectRatio="none" width="100%" height="100%" overflow="visible" style="display: block;" viewBox="0 0 100 100" fill="none" xmlns="http://www.w3.org/2000/svg">
<g id="Frame 31">
<rect width="100" height="100" rx="50" fill="var(--fill-0, #6FA59B)"/>
<g id="Vector">
<path d="M59.8449 64.5966C58.0206 66.3843 55.1051 66.3819 53.2835 64.5966C51.4592 66.3843 48.5437 66.3819 46.7221 64.5966C44.8978 66.3843 41.9824 66.3819 40.1608 64.5966C39.2085 65.5294 37.881 66.036 36.4854 65.9191L37.2721 71.4236C37.5132 73.1067 38.9746 74.3757 40.6747 74.3757H59.3368C61.0369 74.3757 62.4983 73.1067 62.7394 71.4236L63.5261 65.9191C62.1207 66.036 60.7957 65.527 59.8459 64.5966H59.8449Z" fill="var(--fill-0, #FFFDF8)"/>
<path d="M63.8298 58.5271C63.4157 58.4199 63.1259 58.0472 63.1259 57.6186V57.5017C63.1259 50.2657 57.2389 44.3759 50.0001 44.3759C42.764 44.3759 36.8742 50.2628 36.8742 57.4992V57.6161C36.8742 58.0448 36.5844 58.4175 36.1703 58.5246C34.9281 58.8436 34.0611 59.964 34.0611 61.2476C34.0611 62.7991 35.3227 64.0608 36.8742 64.0608C37.8972 64.0608 38.8398 63.5055 39.3367 62.6092C39.5023 62.312 39.8165 62.1269 40.1575 62.1269C40.4984 62.1269 40.8127 62.312 40.9783 62.6092C41.4751 63.5055 42.4177 64.0608 43.4407 64.0608C44.4637 64.0608 45.4062 63.5055 45.9031 62.6092C46.0687 62.312 46.3829 62.1269 46.7239 62.1269C47.0649 62.1269 47.3791 62.312 47.5447 62.6092C48.0416 63.5055 48.9842 64.0608 50.0072 64.0608C51.0301 64.0608 51.9727 63.5055 52.4696 62.6092C52.6352 62.312 52.9494 62.1269 53.2904 62.1269C53.6314 62.1269 53.9456 62.312 54.1112 62.6092C54.6081 63.5055 55.5507 64.0608 56.5736 64.0608C57.5966 64.0608 58.5392 63.5055 59.0361 62.6092C59.2017 62.312 59.5159 62.1269 59.8569 62.1269C60.1979 62.1269 60.5121 62.312 60.6777 62.6092C61.1746 63.5055 62.1172 64.0608 63.1401 64.0608C64.6916 64.0608 65.9533 62.7991 65.9533 61.2476C65.9362 59.9665 65.0695 58.8461 63.8298 58.5271ZM42.2259 58.1617L41.2882 59.0994C40.9228 59.4648 40.3285 59.4648 39.9632 59.0994C39.5978 58.7341 39.5978 58.1398 39.9632 57.7744L40.9009 56.8367C41.2662 56.4714 41.8606 56.4714 42.2259 56.8367C42.5912 57.2021 42.5912 57.7964 42.2259 58.1617ZM45.039 52.5378L44.1013 53.4756C43.736 53.8409 43.1417 53.8409 42.7763 53.4756C42.411 53.1102 42.411 52.5159 42.7763 52.1506L43.7141 51.2129C44.0794 50.8475 44.6737 50.8475 45.039 51.2129C45.4044 51.5782 45.4044 52.1725 45.039 52.5378ZM51.133 58.1617L50.1953 59.0994C49.8299 59.4648 49.2356 59.4648 48.8703 59.0994C48.505 58.7341 48.505 58.1398 48.8703 57.7744L49.808 56.8367C50.1734 56.4714 50.7677 56.4714 51.133 56.8367C51.4984 57.2021 51.4984 57.7964 51.133 58.1617ZM51.133 47.8493L50.1953 48.787C49.8299 49.1523 49.2356 49.1523 48.8703 48.787C48.505 48.4216 48.505 47.8273 48.8703 47.462L49.808 46.5243C50.1734 46.1589 50.7677 46.1589 51.133 46.5243C51.4984 46.8896 51.4984 47.4839 51.133 47.8493ZM56.2893 53.4756C55.9239 53.8409 55.3296 53.8409 54.9643 53.4756C54.5989 53.1102 54.5989 52.5159 54.9643 52.1506L55.902 51.2129C56.2673 50.8475 56.8617 50.8475 57.227 51.2129C57.5923 51.5782 57.5923 52.1725 57.227 52.5378L56.2893 53.4756ZM60.0377 58.1617L59.1 59.0994C58.7346 59.4648 58.1403 59.4648 57.775 59.0994C57.4097 58.7341 57.4096 58.1398 57.775 57.7744L58.7127 56.8367C59.0781 56.4714 59.6724 56.4714 60.0377 56.8367C60.4055 57.2021 60.4055 57.7964 60.0377 58.1617Z" fill="var(--fill-0, #FFFDF8)"/>
<path d="M74.3761 27.0317V24.6886H80V20H20V24.6886H25.6239V27.0317C25.6239 28.515 26.6127 29.7717 27.967 30.1761V41.0441C26.6127 41.4484 25.6239 42.7052 25.6239 44.1885C25.6239 45.5257 26.4277 46.6778 27.5773 47.1893L22.8132 47.1868C21.2616 47.1868 20 48.4485 20 50V77.1868C20 78.7384 21.2616 80 22.8132 80H77.189C78.738 80 79.9997 78.7384 79.9997 77.1868V50C79.9997 48.4485 78.738 47.1868 77.1865 47.1868H72.42C73.5696 46.6753 74.3734 45.5233 74.3734 44.1861C74.3734 42.7028 73.3845 41.446 72.0303 41.0417V30.1762C73.3845 29.7718 74.3761 28.515 74.3761 27.0317ZM27.4995 27.0317V24.6886H30.3126V27.0317C30.3126 27.8062 29.6818 28.437 28.9073 28.437C28.1303 28.437 27.4995 27.8062 27.4995 27.0317ZM28.9073 45.594C28.1327 45.594 27.5019 44.9631 27.5019 44.1886C27.5019 43.4141 28.1327 42.7832 28.9073 42.7832C29.6818 42.7832 30.3126 43.4141 30.3126 44.1886C30.3126 44.9631 29.6818 45.594 28.9073 45.594ZM65.5026 65.2861L64.5893 71.6872C64.219 74.2885 61.9563 76.2491 59.3307 76.2491H40.6686C38.043 76.2491 35.7802 74.2885 35.41 71.6872L34.4967 65.2861C33.1157 64.4701 32.1877 62.9673 32.1877 61.2502C32.1877 59.3577 33.3178 57.6795 35.0106 56.9489C35.3004 48.931 41.913 42.5006 49.9995 42.5006C58.086 42.5006 64.6985 48.9329 64.9884 56.9489C66.6812 57.6796 67.8113 59.3602 67.8113 61.2502C67.8113 62.9673 66.8836 64.4701 65.5026 65.2861ZM65.147 47.1871C64.823 47.1871 64.521 47.019 64.3506 46.7438C61.2451 41.7386 55.8818 38.7502 49.9995 38.7502C44.1172 38.7502 38.7542 41.7388 35.6484 46.7438C35.4779 47.019 35.1759 47.1871 34.852 47.1871H30.2316C31.3812 46.6756 32.1849 45.5235 32.1849 44.1864C32.1849 42.7031 31.1961 41.4463 29.8418 41.0419L29.8443 30.1764C31.1985 29.7721 32.1874 28.5153 32.1874 27.032V24.6889H67.8113V27.032C67.8113 28.5153 68.8001 29.7721 70.1543 30.1764V41.0444C68.8001 41.4487 67.8113 42.7056 67.8113 44.1889C67.8113 45.526 68.615 46.6781 69.7646 47.1896L65.147 47.1871ZM72.5002 44.1888C72.5002 44.9633 71.8694 45.5942 71.0949 45.5942C70.3203 45.5942 69.6895 44.9633 69.6895 44.1888C69.6895 43.4143 70.3203 42.7834 71.0949 42.7834C71.8694 42.781 72.5002 43.4118 72.5002 44.1888ZM71.0924 28.4373C70.3179 28.4373 69.6871 27.8065 69.6871 27.032V24.6889H72.5002V27.032C72.5002 27.8065 71.8694 28.4373 71.0924 28.4373Z" fill="var(--fill-0, #FFFDF8)"/>
</g>
</g>
</svg>
