<svg preserveAspectRatio="none" width="100%" height="100%" overflow="visible" style="display: block;" viewBox="0 0 100 100" fill="none" xmlns="http://www.w3.org/2000/svg">
<g id="Frame 31">
<rect width="100" height="100" rx="50" fill="var(--fill-0, #6FA59B)"/>
<g id="Vector">
<path d="M73.4415 50.0002C73.0714 47.8752 70.974 47.0002 70.8506 47.0002L68.8766 46.3752C68.0129 47.6252 66.7792 48.5002 65.2986 49.0002C62.8311 49.8752 59.7467 48.8752 58.0194 46.3752C57.0324 46.7502 53.948 47.2502 53.5779 50.0002C53.4545 51.0002 53.3311 53.8752 53.2077 56.0002H73.8116C73.6883 53.8752 73.5649 51.0002 73.4415 50.0002Z" fill="var(--fill-0, #FFFDF8)"/>
<path d="M55.7988 39.6252C55.9221 40.6252 56.539 41.3752 57.1559 41.7502C57.2793 42.2502 57.526 42.7502 57.8962 43.2502C58.6364 44.1252 59.7468 47.6252 63.3247 47.6252C66.7793 47.6252 67.7663 44.5002 68.7533 43.2502C69.0001 42.7502 69.2468 42.2502 69.4936 41.7502C70.1105 41.5002 70.7273 40.6252 70.8507 39.6252C70.9741 39.1252 70.9741 38.7502 70.8507 38.2502H55.7988C55.7988 38.6252 55.7988 39.1252 55.7988 39.6252Z" fill="var(--fill-0, #FFFDF8)"/>
<path d="M56.7857 34.75V36.5H70.1104V34.75C71.7143 33.75 72.7013 32 72.7013 30C72.7013 27.625 71.2208 25.5 69 24.625C68.5065 22 66.1623 20 63.4481 20C60.7338 20 58.3896 22 57.8961 24.625C55.6753 25.375 54.1948 27.5 54.1948 30C54.1948 31.875 55.1818 33.75 56.7857 34.75Z" fill="var(--fill-0, #FFFDF8)"/>
<path d="M31.6169 68.8749C31.6169 67.2499 30.3831 65.9999 28.7792 65.9999C27.1753 65.9999 25.9415 67.2499 25.9415 68.8749C25.9415 70.4999 27.1753 71.7499 28.7792 71.7499C30.3831 71.7499 31.6169 70.4999 31.6169 68.8749ZM28.7792 69.9999C28.1623 69.9999 27.6688 69.4999 27.6688 68.8749C27.6688 68.2499 28.1623 67.7499 28.7792 67.7499C29.3961 67.7499 29.8896 68.2499 29.8896 68.8749C29.8896 69.4999 29.3961 69.9999 28.7792 69.9999Z" fill="var(--fill-0, #FFFDF8)"/>
<path d="M34.4546 68.8751C34.4546 65.7501 31.9871 63.1251 28.7793 63.1251C25.6949 63.1251 23.104 65.7501 23.104 68.8751C23.104 72.0001 25.6949 74.6251 28.7793 74.6251C31.8637 74.6251 34.4546 72.0001 34.4546 68.8751ZM24.8312 68.8751C24.8312 66.6251 26.5585 64.8751 28.7793 64.8751C30.8767 64.8751 32.7273 66.6251 32.7273 68.8751C32.7273 71.0001 31.0001 72.8751 28.7793 72.8751C26.6819 72.8751 24.8312 71.1251 24.8312 68.8751Z" fill="var(--fill-0, #FFFDF8)"/>
<path d="M45.8052 68.8749C45.8052 67.2499 44.5714 65.9999 42.9675 65.9999C41.3636 65.9999 40.1298 67.2499 40.1298 68.8749C40.1298 70.4999 41.3636 71.7499 42.9675 71.7499C44.448 71.7499 45.8052 70.4999 45.8052 68.8749ZM42.9675 69.9999C42.3506 69.9999 41.8571 69.4999 41.8571 68.8749C41.8571 68.2499 42.3506 67.7499 42.9675 67.7499C43.5844 67.7499 44.0779 68.2499 44.0779 68.8749C44.0779 69.4999 43.5844 69.9999 42.9675 69.9999Z" fill="var(--fill-0, #FFFDF8)"/>
<path d="M48.5194 68.8751C48.5194 65.7501 46.0519 63.1251 42.8441 63.1251C39.7597 63.1251 37.1688 65.7501 37.1688 68.8751C37.1688 72.0001 39.7597 74.6251 42.8441 74.6251C46.0519 74.6251 48.5194 72.0001 48.5194 68.8751ZM39.0194 68.8751C39.0194 66.6251 40.7467 64.8751 42.9675 64.8751C45.0649 64.8751 46.9155 66.6251 46.9155 68.8751C46.9155 71.0001 45.1883 72.8751 42.9675 72.8751C40.7467 72.8751 39.0194 71.1251 39.0194 68.8751Z" fill="var(--fill-0, #FFFDF8)"/>
<path d="M59.8701 68.8749C59.8701 67.2499 58.6364 65.9999 57.0325 65.9999C55.4286 65.9999 54.1948 67.2499 54.1948 68.8749C54.1948 70.4999 55.4286 71.7499 57.0325 71.7499C58.6364 71.7499 59.8701 70.4999 59.8701 68.8749ZM57.0325 69.9999C56.4156 69.9999 55.9221 69.4999 55.9221 68.8749C55.9221 68.2499 56.4156 67.7499 57.0325 67.7499C57.6494 67.7499 58.1429 68.2499 58.1429 68.8749C58.1429 69.4999 57.6494 69.9999 57.0325 69.9999Z" fill="var(--fill-0, #FFFDF8)"/>
<path d="M62.7077 68.8751C62.7077 65.7501 60.2402 63.1251 57.0324 63.1251C53.948 63.1251 51.3571 65.7501 51.3571 68.8751C51.3571 72.0001 53.948 74.6251 57.0324 74.6251C60.2402 74.6251 62.7077 72.0001 62.7077 68.8751ZM53.2077 68.8751C53.2077 66.6251 54.935 64.8751 57.1558 64.8751C59.2532 64.8751 61.1038 66.6251 61.1038 68.8751C61.1038 71.0001 59.3766 72.8751 57.1558 72.8751C54.935 72.8751 53.2077 71.1251 53.2077 68.8751Z" fill="var(--fill-0, #FFFDF8)"/>
<path d="M74.0584 68.8749C74.0584 67.2499 72.8247 65.9999 71.2208 65.9999C69.6169 65.9999 68.3831 67.2499 68.3831 68.8749C68.3831 70.4999 69.6169 71.7499 71.2208 71.7499C72.8247 71.7499 74.0584 70.4999 74.0584 68.8749ZM71.2208 69.9999C70.6039 69.9999 70.1104 69.4999 70.1104 68.8749C70.1104 68.2499 70.6039 67.7499 71.2208 67.7499C71.8377 67.7499 72.3312 68.2499 72.3312 68.8749C72.3312 69.4999 71.8377 69.9999 71.2208 69.9999Z" fill="var(--fill-0, #FFFDF8)"/>
<path d="M76.896 68.8751C76.896 65.7501 74.4285 63.1251 71.2207 63.1251C68.1363 63.1251 65.5454 65.7501 65.5454 68.8751C65.5454 72.0001 68.1363 74.6251 71.2207 74.6251C74.3051 74.6251 76.896 72.0001 76.896 68.8751ZM67.2727 68.8751C67.2727 66.6251 68.9999 64.8751 71.2207 64.8751C73.3181 64.8751 75.1688 66.6251 75.1688 68.8751C75.1688 71.0001 73.4415 72.8751 71.2207 72.8751C69.1233 72.8751 67.2727 71.1251 67.2727 68.8751Z" fill="var(--fill-0, #FFFDF8)"/>
<path d="M77.6364 74.875H22.3636C21.8701 74.875 21.5 75.25 21.5 75.75V79.125C21.5 79.625 21.8701 80 22.3636 80H77.6364C78.1299 80 78.5 79.625 78.5 79.125V75.75C78.5 75.25 78.1299 74.875 77.6364 74.875Z" fill="var(--fill-0, #FFFDF8)"/>
<path d="M77.6364 57.7503H22.3636C21.8701 57.7503 21.5 58.1253 21.5 58.6253V62.0003C21.5 62.5003 21.8701 62.8753 22.3636 62.8753H77.6364C78.1299 62.8753 78.5 62.5003 78.5 62.0003V58.6253C78.5 58.1253 78.1299 57.7503 77.6364 57.7503Z" fill="var(--fill-0, #FFFDF8)"/>
<path d="M46.5455 50.0002C46.1754 47.8752 44.078 47.0002 43.9546 47.0002L41.9806 46.3752C40.7468 48.1252 38.7728 49.2502 36.552 49.2502C35.9351 49.2502 35.3182 49.1252 34.7014 49.0002C33.2208 48.5002 31.9871 47.6252 31.1234 46.3752C30.013 46.7502 27.052 47.2502 26.5585 50.0002C26.4351 51.0002 26.3117 53.8752 26.1884 56.0002H46.7923C46.7923 53.8752 46.6689 51.0002 46.5455 50.0002Z" fill="var(--fill-0, #FFFDF8)"/>
<path d="M30.3832 41.6252C30.5065 42.1252 30.7533 42.6252 31.1234 43.1252C31.6169 43.6252 32.7273 47.5002 36.4286 47.5002C38.0325 47.5002 39.6364 46.6252 40.5 45.2502C41.8572 43.1252 42.2273 42.8752 42.5974 41.6252C43.7078 41.1252 44.2013 39.3752 43.9546 38.2502H29.026C28.6559 39.5002 29.2728 41.1252 30.3832 41.6252Z" fill="var(--fill-0, #FFFDF8)"/>
<path d="M29.8896 34.75V36.5H43.2142V34.75C44.8181 33.75 45.8051 32 45.8051 30C45.8051 27.625 44.3246 25.5 42.1038 24.625C41.6103 22 39.2662 20 36.5519 20C33.8376 20 31.4934 22 30.9999 24.625C28.7792 25.375 27.2986 27.5 27.2986 30C27.2986 31.875 28.2857 33.75 29.8896 34.75Z" fill="var(--fill-0, #FFFDF8)"/>
</g>
</g>
</svg>
