<svg preserveAspectRatio="none" width="100%" height="100%" overflow="visible" style="display: block;" viewBox="0 0 32 32" fill="none" xmlns="http://www.w3.org/2000/svg">
<g id="Frame 13">
<path id="Vector" d="M27.7989 5.31577L26.787 4.29732C25.6255 3.12819 21.3519 5.50992 17.2042 9.63576L13.7768 13.044C13.911 12.5339 14.0196 12.0159 14.1275 11.501C14.2937 10.7081 14.4841 9.90618 14.4756 9.09613C14.4684 8.4064 14.1362 7.05487 14.1362 7.05487C14.1362 7.05487 13.7666 8.62223 13.4898 9.37732C13.1878 10.2011 12.8149 11.0016 12.3903 11.7694C11.967 12.5348 11.4857 13.2708 10.9541 13.9654C10.2503 14.8849 9.39628 15.6812 8.64284 16.5605C7.73537 17.6196 6.76404 18.6353 5.98071 19.7892C5.67777 20.2354 5.41813 20.7117 5.20083 21.2054C4.98318 21.6998 4.76469 22.2085 4.68226 22.7424C4.58328 23.3835 4.87214 24.8617 4.87643 24.8837C4.77662 24.9755 4.66325 25.0805 4.54027 25.1989C4.17679 25.5489 3.89599 25.8407 3.90945 25.8547L5.97475 27.9995C5.98821 28.0135 6.29038 27.7439 6.65387 27.3938C6.75741 27.2941 6.84633 27.2061 6.93131 27.121C7.02216 27.1339 8.23031 27.3023 8.85547 27.2298C9.3921 27.1676 9.90864 26.9685 10.411 26.7696C10.9125 26.5711 11.3982 26.3297 11.8556 26.0438C13.0383 25.3046 14.0899 24.3723 15.1825 23.5055C16.0897 22.7858 16.9161 21.9639 17.8616 21.2954C18.5758 20.7903 19.3294 20.3372 20.1103 19.9431C20.8936 19.5478 21.7075 19.2054 22.5422 18.9347C23.3072 18.6866 24.8888 18.3751 24.8888 18.3751C24.8888 18.3751 23.5508 17.9921 22.8618 17.9588C22.0527 17.9197 21.2441 18.0798 20.4456 18.2159C19.8675 18.3144 19.2847 18.4129 18.7129 18.5481L22.4074 14.874C26.5552 10.7482 28.9604 6.48489 27.7989 5.31577Z" fill="var(--fill-0, #6FA59B)"/>
</g>
</svg>
