<svg xmlns="http://www.w3.org/2000/svg" viewBox="0 0 64 64" fill="none" aria-hidden="true">
  <path d="M39.5 8.5c9 5.5 13 16.5 10 27.5-3.5 12.5-14 19.5-22.5 18-8.5-1.5-14-11.5-12-23.5C17 18.5 27.5 9 39.5 8.5Z" fill="#D8A85C" stroke="#0F7569" stroke-width="3" stroke-linejoin="round"/>
  <path d="M40 9c-5 7-8 16-9 26-.5 6 .5 12.5 3 18" stroke="#143B36" stroke-width="2.5" stroke-linecap="round"/>
  <path d="M25 21c5 1 10 1.5 20 .5" stroke="#143B36" stroke-width="2.5" stroke-linecap="round"/>
  <path d="M21.5 33c7 1.5 14 2 27-.5" stroke="#143B36" stroke-width="2.5" stroke-linecap="round"/>
  <path d="M23 45c5.5 1.5 10.5 1.5 18-.5" stroke="#143B36" stroke-width="2.5" stroke-linecap="round"/>
  <path d="M42.5 8.5c1.5-3 4.5-4.5 8.5-4" stroke="#0F7569" stroke-width="3" stroke-linecap="round"/>
</svg>
