<svg width="25" height="24" viewBox="0 0 25 24" fill="none" xmlns="http://www.w3.org/2000/svg">
<path d="M11.4638 9.80102C11.685 9.20357 11.9506 8.65925 12.2427 8.16359C11.4593 6.23406 10.1582 4.93302 9.26417 4.21163C8.74639 3.7912 8.08699 3.60092 7.43199 3.65844C7.52935 3.79121 7.63113 3.95051 7.72406 4.13198C8.1976 5.05691 9.07384 7.03966 9.58278 9.93375C10.2864 13.9831 10.521 19.2451 9.61819 21.4755C9.58278 21.5596 9.5518 21.6481 9.52082 21.7322C9.7598 21.48 10.0431 21.2144 10.3794 20.9223C10.6714 20.6701 10.9414 20.3736 11.1848 20.0505C9.99878 17.0191 10.3131 12.9257 11.4638 9.80102Z" fill="#6FA59B"/>
<path d="M3.10834 10.8411C2.81627 8.07952 3.05081 6.00399 3.30306 4.75153C3.34289 4.54795 3.396 4.37092 3.45796 4.21604C2.8074 4.33996 2.22323 4.70287 1.84265 5.24719C1.03719 6.39341 -0.122289 8.53978 0.0104631 11.3058C0.214038 15.5102 2.28962 20.2011 5.35197 21.6263C5.74584 21.8122 6.09104 21.9892 6.38753 22.1662C6.33443 22.0954 6.28132 22.0202 6.22379 21.9449C4.74565 20.0464 3.53761 14.9213 3.10834 10.8411Z" fill="#6FA59B"/>
<path d="M4.64405 3.14842L6.00491 2.95812H6.00601L6.29922 2.91719C6.3656 2.53992 6.48952 2.11838 6.71965 1.75768C6.96416 1.37376 6.98629 0.89028 6.72297 0.518535L6.67318 0.448834C6.22176 -0.186233 5.26253 -0.13865 4.87309 0.536238C4.37522 1.40033 4.30551 2.37174 4.37743 3.18382L4.64296 3.14731L4.64405 3.14842Z" fill="#6FA59B"/>
<path d="M6.93626 4.53486C6.68401 4.04362 6.39192 3.80021 6.12639 3.83561L4.7589 4.02591C4.49337 4.06132 4.28095 4.37995 4.17032 4.9243C3.95789 5.98643 3.69678 8.00447 3.98887 10.7482C4.427 14.9213 5.6263 19.7363 6.92742 21.4048C7.28146 21.8651 7.547 22.2811 7.7373 22.6263C7.84351 22.8254 7.95858 22.9228 8.06036 22.9272H8.06921C8.09134 22.9272 8.11346 22.9228 8.13117 22.9139C8.22853 22.8785 8.30819 22.7546 8.35687 22.5422C8.44538 22.1528 8.58257 21.6792 8.79942 21.1437C9.5916 19.1832 9.42786 14.2221 8.71091 10.0888C8.23296 7.37154 7.43192 5.49956 6.93626 4.53486Z" fill="#6FA59B"/>
<path d="M23.5785 7.18223C23.2411 6.55158 22.6492 6.09798 21.9587 5.91209L18.3764 4.95286C17.6849 4.7681 16.9469 4.86546 16.3384 5.24272C15.1491 5.9818 13.2484 7.50639 12.2925 10.1064C10.8387 14.0584 10.9228 19.1875 13.1853 21.6924C13.8049 22.3783 14.2142 22.9514 14.4842 23.4095C14.8183 23.9749 15.533 24.1663 16.105 23.8432C16.5675 23.5821 17.2092 23.29 18.0877 23.0057C21.2995 21.9679 23.935 17.5667 24.6519 13.4168C25.1232 10.6873 24.2392 8.41599 23.5787 7.18109L23.5785 7.18223ZM21.4299 7.88479C21.5848 7.92462 21.7132 8.02198 21.7795 8.1459C22.0141 8.58403 22.315 9.24343 22.5142 10.0533L19.5977 9.26999L20.0668 7.51748L21.4299 7.88479ZM17.4159 6.97756C17.5354 6.90233 17.6947 6.88463 17.8496 6.92445L19.2127 7.28733V7.29176L18.7436 9.04427L15.8271 8.26096C16.4069 7.65908 16.9911 7.23865 17.4159 6.97756ZM15.2164 8.97348C15.2607 9.01331 15.3138 9.03987 15.3758 9.05757L18.5134 9.89843L18.1461 11.2659L14.4332 10.2702C14.6589 9.78336 14.9244 9.35406 15.2164 8.97348ZM14.1101 11.0933C14.1189 11.1022 14.1322 11.1022 14.1411 11.1066L17.916 12.12L17.5487 13.492L13.7426 12.4741C13.7337 12.4697 13.7293 12.4697 13.7204 12.4697C13.8222 12.005 13.9552 11.5403 14.1101 11.0933ZM13.5524 13.3371L17.3229 14.3461L16.9555 15.718L13.4904 14.7887C13.4595 14.7798 13.4241 14.771 13.3931 14.771C13.4196 14.2974 13.4728 13.8194 13.5524 13.3371ZM13.3666 15.6693L16.7254 16.5721L16.3581 17.9396L13.663 17.2183C13.601 17.2006 13.5346 17.2005 13.4771 17.2094C13.4063 16.7182 13.371 16.2048 13.3666 15.6693ZM14.6987 20.3251C14.2251 19.7985 13.8755 19.0373 13.6498 18.1345L16.1281 18.7983L15.4731 21.2501C15.243 20.9447 14.9819 20.6394 14.6987 20.3251ZM17.4602 21.0642C17.0575 21.1925 16.6813 21.3297 16.3272 21.4802L16.9822 19.0285L19.4649 19.6923C18.8188 20.365 18.1373 20.8473 17.4602 21.0642ZM20.0757 18.9798C20.0314 18.9399 19.9739 18.9134 19.9119 18.8957L17.2124 18.1699L17.5797 16.798L20.9386 17.7008C20.6686 18.161 20.381 18.5903 20.0757 18.9798ZM21.3679 16.9086C21.3414 16.8953 21.306 16.8821 21.275 16.8732L17.8099 15.9439L18.1772 14.5764L21.9477 15.5854C21.7751 16.0412 21.5804 16.4882 21.3679 16.9086ZM22.2353 14.749C22.2265 14.7445 22.2176 14.7445 22.2088 14.7401L18.4027 13.7222L18.7744 12.3459L22.5494 13.3593C22.5626 13.3637 22.5715 13.3682 22.5848 13.3682C22.4963 13.8328 22.377 14.2931 22.2353 14.749ZM22.7177 12.4875L19.0003 11.4918L19.3676 10.1243L22.5053 10.9652C22.5407 10.9784 22.5805 10.9829 22.6203 10.9829C22.6425 10.9829 22.669 10.9829 22.6911 10.9784C22.7442 11.452 22.762 11.9564 22.7177 12.4875Z" fill="#6FA59B"/>
</svg>
