<svg width="18" height="24" viewBox="0 0 18 24" fill="none" xmlns="http://www.w3.org/2000/svg">
<path fill-rule="evenodd" clip-rule="evenodd" d="M2.79598 2.80051C1.28639 4.58531 0.368517 6.98317 0.090372 9.55676C-0.189609 12.1472 0.177489 14.9111 1.24021 17.4063C2.29873 19.8919 3.90804 21.7831 5.75271 22.8906C7.39691 23.8775 9.22899 24.2397 11.0217 23.8405L10.7273 23.6695C10.715 23.6623 10.7037 23.6546 10.6932 23.6458L9.93249 23.0762C9.92331 23.0695 9.91491 23.0621 9.90704 23.0543L9.17861 22.3551C9.16681 22.3439 9.15657 22.3317 9.14739 22.3189L8.5806 21.537C8.57404 21.5279 8.56827 21.5186 8.56302 21.509L8.04189 20.6538C8.03638 20.6445 8.0314 20.6351 8.0272 20.6255L7.62074 19.7178C7.61418 19.7029 7.60893 19.6874 7.60552 19.6719L7.32607 18.7383C7.32187 18.7245 7.31898 18.7106 7.31741 18.6967L7.1946 17.7061C7.19224 17.6861 7.19224 17.6663 7.1946 17.6471L7.23449 16.6757C7.23475 16.665 7.2358 16.6549 7.23764 16.6447L7.3998 15.6538C7.40295 15.6354 7.40767 15.6178 7.41449 15.6013L7.73541 14.6637C7.7404 14.6495 7.74617 14.6362 7.75299 14.6237L8.19461 13.7264L8.20458 13.7082L9.21614 12.0216L9.69869 11.1629L10.0944 10.2781L10.3678 9.36556L10.5239 8.3733V7.4149L10.3675 6.4605L10.0957 5.5925L9.69869 4.70477L9.21115 3.83731L8.69895 2.99624L8.09805 2.14104L7.81334 1.76985L7.80206 1.75385L7.51211 1.38558L7.17781 1.12131L6.78132 0.901581L6.34259 0.790114L5.89362 0.751981L5.44465 0.790114L5.00067 0.902914L4.63699 1.08745L4.2489 1.36371L3.86159 1.67865L3.5021 2.00451L2.82485 2.77358C2.81619 2.78344 2.80596 2.79224 2.79598 2.80051ZM8.0949 0.00824935C9.70578 -0.0717505 11.3004 0.432515 12.725 1.41625C14.291 2.49758 15.6531 4.15757 16.6108 6.2573C17.572 8.36476 18.0331 10.7117 17.9982 13.0045C17.9633 15.2927 17.4337 17.5263 16.4143 19.4125C16.3993 19.4402 16.3902 19.4695 16.3862 19.4991L15.885 20.2631L15.2944 21.0639L14.6268 21.7823L14.2471 22.0525L13.8129 22.3333L13.3841 22.5709L12.8989 22.7605L12.4552 22.8357H12.0136L11.5903 22.7282L11.2206 22.5026L10.8409 22.2325L10.4528 21.8775L9.78292 21.0765L9.22847 20.2311L8.79761 19.3557L8.64437 18.9274L8.52996 18.4621C8.50451 18.1279 8.47853 17.7946 8.45124 17.4605V16.9503C8.50634 16.6154 8.55856 16.2831 8.6092 15.9474L8.72256 15.4869L9.11406 14.6117L9.63545 13.7149L10.1637 12.8893L10.6916 11.981L11.1458 11.0576C11.1511 11.0472 11.1555 11.0362 11.1592 11.0248L11.4791 10.0493C11.4843 10.036 11.4888 10.0218 11.4917 10.0069L11.6916 9.03143C11.6956 9.0165 11.6982 9.00103 11.6995 8.9853L11.7806 7.95543C11.7816 7.9421 11.7819 7.9285 11.7806 7.91463L11.699 6.8829C11.6982 6.8725 11.6969 6.8621 11.6945 6.8517L11.4909 5.8613L11.4838 5.8341L11.1608 4.84904C11.1569 4.83597 11.1519 4.82317 11.1456 4.81037L10.7016 3.90771L10.6885 3.88291C10.1584 3.01304 9.61735 2.15144 9.05135 1.30531L8.0949 0.00824935Z" fill="#6FA59B"/>
</svg>
