<svg preserveAspectRatio="none" width="100%" height="100%" overflow="visible" style="display: block;" viewBox="0 0 32 32" fill="none" xmlns="http://www.w3.org/2000/svg">
<g id="Frame 13">
<g id="Vector">
<path d="M15.9999 17.7144C11.1229 17.7144 7.0429 16.3258 4.85713 14.1701C4.52714 13.8487 4.24 13.5015 4 13.1415V21.5714C4 25.1757 9.27144 28 15.9999 28C22.7283 28 27.9998 25.1757 27.9998 21.5714V13.1415C27.7598 13.5015 27.4726 13.8487 27.1426 14.1701C24.9569 16.3258 20.8769 17.7144 15.9999 17.7144ZM14.9285 25.7426H13.4328C13.0385 25.7426 12.686 25.5402 12.4889 25.1994C12.2917 24.8587 12.2907 24.4526 12.4867 24.1109L13.2378 22.8112C13.3567 22.6055 13.6181 22.5359 13.8228 22.6548C14.0274 22.7737 14.0981 23.0351 13.9792 23.2398L13.2292 24.5384C13.1692 24.6423 13.2099 24.7355 13.2303 24.7698C13.2506 24.8041 13.3106 24.8855 13.4328 24.8855H14.9285C15.1653 24.8855 15.357 25.0773 15.357 25.3141C15.357 25.5508 15.1653 25.7426 14.9285 25.7426ZM15.9999 19.972C15.9592 19.972 15.8585 19.9838 15.7963 20.0899L15.0517 21.3831C14.9338 21.5877 14.6724 21.6595 14.4667 21.5406C14.2621 21.4227 14.1913 21.1602 14.3092 20.9556L15.0549 19.6613C15.2542 19.3184 15.6067 19.1159 15.9999 19.1159H16.0042C16.3963 19.117 16.7477 19.3216 16.9428 19.6623L17.6928 20.9598C17.8117 21.1645 17.741 21.427 17.5363 21.5448C17.4688 21.5834 17.3949 21.6027 17.3221 21.6027C17.1742 21.6027 17.0296 21.5266 16.9503 21.3884L16.2003 20.0898C16.1392 19.9838 16.0535 19.9773 16.001 19.9731L15.9999 19.972ZM19.511 25.2004C19.3149 25.539 18.9635 25.7415 18.5713 25.7415H17.0713C16.8346 25.7415 16.6428 25.5497 16.6428 25.3129C16.6428 25.0761 16.8346 24.8843 17.0713 24.8843H18.5713C18.6903 24.8843 18.7492 24.804 18.7696 24.7697C18.7899 24.7354 18.8306 24.6411 18.7696 24.5361L18.0206 23.244C17.9017 23.0394 17.9713 22.7769 18.1771 22.659C18.3817 22.5401 18.6442 22.6097 18.762 22.8154L19.512 24.1097C19.7092 24.4537 19.7081 24.8608 19.5099 25.2015L19.511 25.2004Z" fill="var(--fill-0, #6FA59B)"/>
<path d="M15.9999 19.972C15.9592 19.972 15.8585 19.9838 15.7963 20.0899L15.0517 21.3831C14.9338 21.5877 14.6724 21.6595 14.4667 21.5406C14.2621 21.4227 14.1913 21.1602 14.3092 20.9556L15.0549 19.6613C15.2542 19.3184 15.6067 19.1159 15.9999 19.1159H16.0042C16.3963 19.117 16.7477 19.3216 16.9428 19.6623L17.6928 20.9598C17.8117 21.1645 17.741 21.427 17.5363 21.5448C17.4688 21.5834 17.3949 21.6027 17.3221 21.6027C17.1742 21.6027 17.0296 21.5266 16.9503 21.3884L16.2003 20.0898C16.1392 19.9838 16.0535 19.9773 16.001 19.9731L15.9999 19.972Z" fill="var(--fill-0, #6FA59B)"/>
<path d="M19.511 25.2004C19.3149 25.539 18.9635 25.7415 18.5713 25.7415H17.0713C16.8346 25.7415 16.6428 25.5497 16.6428 25.3129C16.6428 25.0761 16.8346 24.8843 17.0713 24.8843H18.5713C18.6903 24.8843 18.7492 24.804 18.7696 24.7697C18.7899 24.7354 18.8306 24.6411 18.7696 24.5361L18.0206 23.244C17.9017 23.0394 17.9713 22.7769 18.1771 22.659C18.3817 22.5401 18.6442 22.6097 18.762 22.8154L19.512 24.1097C19.7092 24.4537 19.7081 24.8608 19.5099 25.2015L19.511 25.2004Z" fill="var(--fill-0, #6FA59B)"/>
<path d="M14.9285 25.7426H13.4328C13.0385 25.7426 12.686 25.5402 12.4889 25.1994C12.2917 24.8587 12.2907 24.4526 12.4867 24.1109L13.2378 22.8112C13.3567 22.6055 13.6181 22.5359 13.8228 22.6548C14.0274 22.7737 14.0981 23.0351 13.9792 23.2398L13.2292 24.5384C13.1692 24.6423 13.2099 24.7355 13.2303 24.7698C13.2506 24.8041 13.3106 24.8855 13.4328 24.8855H14.9285C15.1653 24.8855 15.357 25.0773 15.357 25.3141C15.357 25.5508 15.1653 25.7426 14.9285 25.7426Z" fill="var(--fill-0, #6FA59B)"/>
<path d="M21.9998 10.8573C22.2366 10.8573 22.4284 10.6656 22.4284 10.4288C22.4284 10.192 22.2366 10.0002 21.9998 10.0002H21.0816C21.117 10.1384 21.1427 10.2798 21.1427 10.4288C21.1427 10.5777 21.118 10.7191 21.0816 10.8573H21.9998Z" fill="var(--fill-0, #6FA59B)"/>
<path d="M20.2856 10.4289C20.2856 11.5721 18.5713 11.5721 18.5713 10.4289C18.5713 9.28571 20.2856 9.28571 20.2856 10.4289Z" fill="var(--fill-0, #6FA59B)"/>
<path d="M15.9999 16.8573C22.7283 16.8573 27.9998 14.033 27.9998 10.4286C27.9998 6.82429 22.7283 4 15.9999 4C9.27144 4 4 6.82429 4 10.4286C4 14.033 9.27144 16.8573 15.9999 16.8573ZM10.8165 6.39284C12.4011 5.94927 14.1935 5.71463 15.9999 5.71463C21.4792 5.71463 26.2855 7.91745 26.2855 10.429C26.2855 12.9406 21.4792 15.1434 15.9999 15.1434C12.2916 15.1434 8.82793 14.1695 6.96034 12.5998C6.14498 11.9141 5.71427 11.1631 5.71427 10.4291C5.71427 8.8488 7.71782 7.26506 10.8165 6.39284Z" fill="var(--fill-0, #6FA59B)"/>
<path d="M7.5111 11.9437C9.20608 13.3666 12.5371 14.2859 15.9999 14.2859C21.7554 14.2859 25.4284 12.0016 25.4284 10.4289C25.4284 8.8562 21.7554 6.57194 15.9999 6.57194C14.2706 6.57194 12.5585 6.79587 11.0488 7.21908C8.4131 7.9605 6.5714 9.28048 6.5714 10.429C6.5714 10.9026 6.89717 11.4263 7.5111 11.9437ZM19.4284 8.71461C19.8591 8.71461 20.2491 8.87961 20.5502 9.14318H21.9998C22.7091 9.14318 23.2855 9.71961 23.2855 10.4289C23.2855 11.1381 22.7091 11.7146 21.9998 11.7146H20.5502C20.2491 11.9782 19.8591 12.1431 19.4284 12.1431C18.4834 12.1431 17.7142 11.3739 17.7142 10.4289C17.7142 9.48389 18.4834 8.71461 19.4284 8.71461Z" fill="var(--fill-0, #6FA59B)"/>
</g>
</g>
</svg>
