<svg preserveAspectRatio="none" width="100%" height="100%" overflow="visible" style="display: block;" viewBox="0 0 61.4076 48" fill="none" xmlns="http://www.w3.org/2000/svg">
<path id="Vector" d="M58.849 16.63H47.9496L42.9149 4.0866C41.9179 1.60415 39.5441 0 36.8681 0H24.5895C21.9134 0 19.5422 1.60415 18.5452 4.0866L13.5083 16.63H2.55865C1.1444 16.63 0 17.7756 0 19.1886C0 20.6016 1.1444 21.7473 2.55865 21.7473H4.71251L8.83987 41.2707C9.65866 45.1854 13.1384 48 17.1043 48H44.3027C48.2686 48 51.7483 45.1854 52.5671 41.2707L56.6945 21.7473H58.849C60.2632 21.7473 61.4076 20.6016 61.4076 19.1886C61.4076 17.7756 60.2632 16.63 58.849 16.63ZM23.2927 5.99309C23.5076 5.46087 24.0148 5.1173 24.5895 5.1173H36.8681C37.4428 5.1173 37.9525 5.46087 38.1674 5.99309L42.4372 16.63H19.0229L23.2927 5.99309ZM36.0639 35.6161H33.275V38.4051C33.275 39.8123 32.1235 40.9637 30.7163 40.9637C29.2835 40.9637 28.1577 39.8123 28.1577 38.4051V35.6161H25.3432C23.9358 35.6161 22.7845 34.4646 22.7845 33.0574C22.7845 31.6502 23.9358 30.4988 25.3432 30.4988H28.1577V27.7099C28.1577 26.3027 29.2835 25.1513 30.7163 25.1513C32.1235 25.1513 33.275 26.3027 33.275 27.7099V30.4988H36.0639C37.4712 30.4988 38.6226 31.6502 38.6226 33.0574C38.6226 34.4646 37.4712 35.6161 36.0639 35.6161Z" fill="var(--fill-0, #F7F2EA)"/>
</svg>
