<svg preserveAspectRatio="none" width="100%" height="100%" overflow="visible" style="display: block;" viewBox="0 0 32 32" fill="none" xmlns="http://www.w3.org/2000/svg">
<g id="Frame 13">
<path id="Vector" d="M27.3982 12.1861V12.1837C27.326 11.8921 27.216 11.6101 27.0717 11.3473L23.4507 4.32142C23.4495 4.31903 23.4472 4.31664 23.446 4.31305C23.4389 4.3011 23.4318 4.28796 23.4247 4.27601C23.4223 4.27123 23.4199 4.26765 23.4164 4.26287C23.3951 4.2318 23.3714 4.20193 23.3454 4.17564C23.3419 4.17206 23.3383 4.16847 23.3336 4.16489C23.3241 4.15533 23.3135 4.14577 23.3028 4.13741C23.2981 4.13382 23.2934 4.13024 23.2886 4.12666C23.2768 4.1171 23.265 4.10873 23.252 4.10037C23.2496 4.09798 23.2461 4.09559 23.2437 4.09439C23.2283 4.08484 23.2118 4.07528 23.1952 4.06691C23.1916 4.06452 23.1869 4.06333 23.1834 4.06094C23.1703 4.05377 23.1573 4.04899 23.1431 4.04301C23.1384 4.04063 23.1337 4.03943 23.1278 4.03704C23.1136 4.03226 23.0994 4.02748 23.0852 4.0227C23.0828 4.02151 23.0793 4.02031 23.0769 4.02031H23.0733C23.0544 4.01553 23.0367 4.01075 23.0177 4.00836C23.0142 4.00836 23.0107 4.00836 23.0083 4.00717C22.9929 4.00478 22.9775 4.00358 22.9633 4.00239C22.9562 4.00239 22.9503 4.00239 22.9444 4.0012C22.9373 4.0012 22.9314 4 22.9255 4H10.6477C10.5353 4 10.4241 4.03226 10.3295 4.0932L8.44504 5.30719L8.44267 5.30838C8.42966 5.31675 8.41783 5.32511 8.40482 5.33467C8.40127 5.33706 8.3989 5.33945 8.39535 5.34184C8.38589 5.34901 8.37761 5.35618 8.36933 5.36335C8.3646 5.36813 8.35987 5.37171 8.35513 5.37649C8.34804 5.38247 8.34212 5.38844 8.33621 5.39561C8.33148 5.40039 8.32674 5.40517 8.32201 5.40995C8.3161 5.41592 8.31018 5.4219 8.30545 5.42907C8.30072 5.43384 8.29717 5.43982 8.29244 5.44579C8.28771 5.45296 8.28297 5.45894 8.27824 5.46611C8.27469 5.47208 8.27114 5.47686 8.26641 5.48283C8.26168 5.49 8.25695 5.49717 8.2534 5.50434C8.24985 5.51032 8.2463 5.51629 8.24394 5.52107C8.23921 5.52824 8.23566 5.5366 8.23211 5.54377C8.22974 5.54975 8.22619 5.55572 8.22383 5.56169C8.22264 5.56408 8.22146 5.56528 8.22146 5.56767L4.89393 13.1251C4.6325 13.7178 4.5 14.3487 4.5 14.9987V26.1157C4.5 27.1552 5.33634 28 6.36552 28H22.7446C23.1255 28 23.4898 27.8853 23.8009 27.6678L26.6033 26.136C26.6164 26.1289 26.6294 26.1217 26.6412 26.1133C27.1782 25.7644 27.5 25.1718 27.5 24.5278L27.4988 13.014C27.4988 12.7344 27.4656 12.4561 27.3982 12.1861ZM26.0342 11.9208C26.0626 11.9722 26.0887 12.0259 26.1135 12.0785L24.3225 13.2387L21.7591 6.05873L22.7007 5.45174L26.027 11.9053C26.0282 11.9112 26.0307 11.916 26.0342 11.9208ZM10.8205 5.19503H20.9003L20.8695 5.21414L10.7897 5.21534L10.8205 5.19503ZM17.2109 9.25624H11.8995C11.573 9.25624 11.308 8.98859 11.308 8.65882C11.308 8.32905 11.573 8.0614 11.8995 8.0614H17.2109C17.5374 8.0614 17.8023 8.32905 17.8023 8.65882C17.8023 8.98859 17.5374 9.25624 17.2109 9.25624ZM26.0179 25.0989L24.6102 25.8683L24.609 14.8709C24.609 14.8387 24.609 14.8064 24.6078 14.7741C24.6078 14.7634 24.6078 14.7526 24.6066 14.7407C24.6066 14.7192 24.6055 14.6977 24.6043 14.6761C24.6043 14.663 24.6031 14.6499 24.6019 14.6379C24.6007 14.6188 24.5995 14.5985 24.5995 14.5794C24.5984 14.5662 24.5972 14.5531 24.5972 14.5399C24.596 14.528 24.596 14.516 24.5948 14.5029L24.596 14.4802L26.0415 13.5446L26.316 13.3666V24.5277C26.316 24.7583 26.2048 24.9698 26.0179 25.0989Z" fill="var(--fill-0, #6FA59B)"/>
</g>
</svg>
