<svg width="32" height="32" viewBox="0 0 32 32" fill="none" xmlns="http://www.w3.org/2000/svg">
<path d="M31.0145 9.91935C30.7191 9.69355 30.3253 8.98387 29.9314 8.75806C29.5376 8.5 29.7017 7.91935 29.4063 7.82258C29.2094 7.75806 28.914 7.59677 28.5202 7.37097C28.5858 7.24194 28.6187 7.1129 28.6515 7.04839C28.7828 6.69355 28.4874 6.5 28.4874 6.5L27.8638 7.08064C27.831 7.08064 27.7982 7.04839 27.7982 7.04839C26.912 6.66129 26.912 6.95161 26.2228 7.46774C25.5336 7.98387 25.1398 7.82258 24.2208 7.53226C21.464 6.62903 21.2014 9.08065 16.1472 9.08065C14.014 9.08065 6.46546 9.08065 4.56192 9.08065C3.93835 9.08065 3.38042 9.1129 2.92094 9.20968C2.10045 9.27419 1.54252 9.43548 1.24714 9.98387C0.492294 11.3387 0.328196 13.5645 0.623572 14.3387C0.918948 15.1129 0.623572 19.0161 0.623572 19.0161C0.623572 19.0161 0 19.9516 0 21.1774C0 21.1774 0.78767 21.3065 0.951768 20.1774C1.08305 19.4677 1.27996 13.5968 1.27996 13.5968H1.64098C1.64098 13.6613 1.64098 13.6935 1.64098 13.7581C1.64098 15.6613 1.64098 18.371 1.64098 19.0484C1.64098 19.9194 2.65839 25.1774 2.65839 25.1774C2.72402 25.371 2.88812 25.5 3.11786 25.5H4.72602C4.72602 24.7903 4.10245 24.629 3.90553 23.7903C3.74143 23.0161 3.57733 22.2742 3.57733 22.0806C3.57733 21.7258 3.90553 21.4355 4.2009 20.8548L4.98857 18.2419C5.02139 18.1129 5.21831 18.1774 5.18549 18.2742L4.95576 19.6613L6.0388 24.2742L6.26854 25.0806C6.367 25.3065 6.59673 25.4677 6.85929 25.4677H8.53309C8.53309 24.7581 7.81106 24.5 7.67978 23.8548C7.5485 23.2742 7.28594 22.0484 7.48286 21.4032C7.61414 21.0161 7.94234 19.7581 8.20489 18.7903C9.45204 19.371 10.7648 20.0484 11.5853 20.0484C12.9637 20.0484 15.4908 18.8871 16.6067 18.8226C16.738 19.1774 16.8693 19.5968 17.0005 20.0161C17.2303 20.7581 17.5257 20.6613 17.821 22.0806C18.1164 23.4677 18.379 24.7903 18.379 24.8226C18.4446 25.3065 18.8056 25.5 19.1666 25.5H20.184C20.184 25.5 19.7246 22.8548 19.6917 22.2742L19.4292 19.8548L18.7072 19.5645C18.6415 19.5323 18.6743 19.4032 18.7728 19.4355L19.7246 19.6935L20.3481 23.5645C20.4794 24.3065 20.6107 24.8548 20.6107 24.8548C20.7091 25.3065 21.0045 25.5 21.3655 25.5H22.8096C22.8096 24.5645 22.2188 24.9194 22.0547 22.5C21.9891 21.5323 22.1204 20.8226 22.2845 20.3387C23.4332 19.8871 24.0896 17.8548 24.3849 17.0161C24.6803 16.0806 26.1572 13.2097 26.8464 12.7903C27.2402 12.5645 27.47 12.3065 27.8638 12.371C28.9469 12.5323 29.5704 12.2742 30.0627 12.0484C30.555 11.8226 30.3909 12.0484 30.7848 12.0484C31.1786 12.0484 32.0319 10.9516 31.9991 10.6935C31.9991 10.4677 31.3099 10.1452 31.0145 9.91935Z" fill="#6FA59B"/>
</svg>
