<svg width="32" height="32" viewBox="0 0 32 32" fill="none" xmlns="http://www.w3.org/2000/svg">
<path d="M27.2325 16.3885L15.6077 4.76371C15.1113 4.27277 14.4512 4 13.7475 4C13.0493 4 12.3838 4.27275 11.8874 4.76916L11.3091 5.34738C11.1018 5.55467 11.1018 5.88744 11.3091 6.08927L11.4891 6.27474L25.7268 20.5124L25.9123 20.6924C26.1196 20.8997 26.4469 20.8997 26.6542 20.6924L27.2324 20.1142C28.258 19.0887 28.2581 17.4196 27.2325 16.3885Z" fill="#6FA59B"/>
<path d="M21.8211 9.49331L22.5084 10.1807L23.8122 8.8769C24.7941 7.89498 24.7941 6.30754 23.8122 5.32559L22.7266 4.24002C22.5412 4.05455 22.2193 4.05455 22.0393 4.24002C21.952 4.32731 21.8974 4.45823 21.8974 4.5837C21.8974 4.71462 21.952 4.83463 22.0393 4.92737L22.7703 5.65837C23.1522 6.04024 23.3704 6.55845 23.3704 7.10396C23.3704 7.64946 23.1522 8.16223 22.7703 8.55499L21.8211 9.49331Z" fill="#6FA59B"/>
<path d="M7.55582 10.9555C4.13547 14.3758 3.07165 19.678 4.84465 24.4625C4.99739 24.877 4.98648 25.3189 4.80646 25.7117L4.31552 26.7699C4.31007 26.7863 4.29916 26.8081 4.28279 26.8245C4.1246 27.0809 4.16824 27.4082 4.37553 27.6264C4.59373 27.8446 4.91559 27.8773 5.17743 27.7191C5.1938 27.7028 5.21562 27.6918 5.23198 27.6864L6.29025 27.1954C6.67757 27.0154 7.12487 27.0045 7.53946 27.1573C12.3235 28.9247 17.626 27.861 21.0464 24.4461L24.6086 20.8892L11.1128 7.3934L7.55582 10.9555ZM7.27761 16.1051C6.5848 17.8889 6.43206 19.8798 6.83031 21.8601C6.89031 22.1437 6.7103 22.422 6.42117 22.4819C6.38844 22.4874 6.35025 22.4928 6.31752 22.4928C6.0775 22.4928 5.85385 22.3183 5.79928 22.0728C5.35742 19.8962 5.53198 17.7032 6.2957 15.7229C6.39935 15.4556 6.70484 15.3193 6.98306 15.4229C7.2449 15.5265 7.38124 15.8323 7.27761 16.1051Z" fill="#6FA59B"/>
</svg>
