<svg preserveAspectRatio="none" width="100%" height="100%" overflow="visible" style="display: block;" viewBox="0 0 32 32" fill="none" xmlns="http://www.w3.org/2000/svg">
<g id="Frame 13">
<g id="Vector">
<path d="M9.2612 9.328H22.7374C23.2 9.328 23.5746 9.79057 23.5746 10.1652V10.8925C23.5746 11.3551 23.2 11.7298 22.7374 11.7298H9.2612C8.79863 11.7298 8.42398 11.2672 8.42398 10.8925V10.1652C8.42398 9.70264 8.79863 9.328 9.2612 9.328Z" fill="var(--fill-0, #6FA59B)"/>
<path d="M19.2902 5.62947C17.5404 3.45688 14.4678 3.45688 12.7181 5.62947L10.4115 8.49076H21.5979L19.2913 5.62947H19.2902ZM13.1628 7.8952C12.9305 7.8952 12.7431 7.70682 12.7431 7.47554C12.7431 7.24321 12.9315 7.05589 13.1628 7.05589C13.3951 7.05589 13.5824 7.24426 13.5824 7.47554C13.5824 7.70787 13.3941 7.8952 13.1628 7.8952ZM14.945 6.27412C14.7127 6.27412 14.5254 6.08575 14.5254 5.85447C14.5254 5.62214 14.7137 5.43481 14.945 5.43481C15.1773 5.43481 15.3647 5.62319 15.3647 5.85447C15.3647 6.0868 15.1763 6.27412 14.945 6.27412ZM16.4321 7.69009C16.1998 7.69009 16.0125 7.50171 16.0125 7.27043C16.0125 7.0381 16.2008 6.85077 16.4321 6.85077C16.6645 6.85077 16.8518 7.03915 16.8518 7.27043C16.8518 7.50276 16.6634 7.69009 16.4321 7.69009ZM17.4378 6.05122C17.2055 6.05122 17.0182 5.86285 17.0182 5.63156C17.0182 5.39923 17.2066 5.21191 17.4378 5.21191C17.6702 5.21191 17.8575 5.40028 17.8575 5.63156C17.8575 5.86389 17.6691 6.05122 17.4378 6.05122ZM19.2818 7.94857C19.0495 7.94857 18.8622 7.76019 18.8622 7.52891C18.8622 7.29658 19.0505 7.10925 19.2818 7.10925C19.5141 7.10925 19.7015 7.29763 19.7015 7.52891C19.7015 7.76124 19.5131 7.94857 19.2818 7.94857Z" fill="var(--fill-0, #6FA59B)"/>
<path d="M24.3124 26.0076C24.2025 25.7083 24.0592 25.4194 23.9074 25.1882C23.6814 24.8449 23.5862 24.4346 23.5987 24.0244C23.6552 22.2244 23.6364 19.9891 23.4941 18.0926C23.3455 16.0655 23.0796 14.2151 22.7636 12.5648C22.7552 12.5648 22.7479 12.5669 22.7395 12.5669H9.26117C9.25699 12.5669 9.25385 12.5658 9.24966 12.5658C8.91582 14.2256 8.63325 16.1073 8.48464 18.1826C8.35069 20.0433 8.34231 22.2315 8.41034 23.997C8.42708 24.4198 8.32557 24.8405 8.0922 25.1922C7.98336 25.3554 7.87975 25.549 7.78871 25.7542C7.74998 25.8421 7.71545 25.9289 7.6851 26.0127C7.49254 26.5464 7.83057 27.1251 8.38628 27.2371C10.4772 27.6609 13.056 28.0011 16.0113 28C18.9572 27.999 21.5286 27.6589 23.6143 27.236C24.1711 27.123 24.5091 26.5401 24.3134 26.0064L24.3124 26.0076ZM19.332 19.5903C19.0515 19.9629 18.5586 20.483 17.894 20.6504C17.197 20.8263 16.4833 20.5719 16.0668 20.371L15.2013 22.351C15.4242 22.1825 15.6827 22.0391 15.9757 21.9659C16.6403 21.7985 17.3216 22.0214 17.7444 22.2171C17.9914 22.3311 18.0688 22.6378 17.9055 22.8554C17.6251 23.228 17.1322 23.7481 16.4676 23.9156C15.7706 24.0914 15.0569 23.8371 14.6404 23.6361L13.9863 25.1327C13.9172 25.2896 13.7634 25.3838 13.6022 25.3838C13.5457 25.3838 13.4892 25.3734 13.4348 25.3483C13.2234 25.2562 13.1261 25.0092 13.2192 24.7978L13.8733 23.3012C13.4421 23.1317 12.7713 22.7811 12.427 22.1501C12.0984 21.5483 12.1444 20.8335 12.2281 20.3752C12.2763 20.1083 12.5547 19.9565 12.8058 20.0591C13.237 20.237 13.8638 20.5844 14.1925 21.1862C14.3369 21.452 14.408 21.7388 14.4363 22.0161L15.3018 20.0361C14.8706 19.8665 14.1998 19.516 13.8555 18.8849C13.5269 18.2831 13.5729 17.5684 13.6567 17.11C13.7048 16.8431 13.9832 16.6914 14.2343 16.7939C14.6655 16.9718 15.2924 17.3193 15.621 17.921C15.7654 18.1869 15.8366 18.4736 15.8648 18.752L16.6058 17.0566C16.5001 16.6077 16.4362 15.9787 16.6832 15.4125C16.9574 14.7846 17.5508 14.3827 17.9652 14.1682C18.2059 14.0426 18.4969 14.1703 18.568 14.4319C18.6915 14.882 18.8003 15.5894 18.5261 16.2184C18.2792 16.7846 17.7737 17.1644 17.3729 17.3926L16.6319 19.089C16.8548 18.9205 17.1133 18.7771 17.4064 18.7039C18.0709 18.5364 18.7522 18.7593 19.175 18.955C19.422 19.0691 19.4994 19.3757 19.3362 19.5934L19.332 19.5903Z" fill="var(--fill-0, #6FA59B)"/>
</g>
</g>
</svg>
