<svg preserveAspectRatio="none" width="100%" height="100%" overflow="visible" style="display: block;" viewBox="0 0 32 32" fill="none" xmlns="http://www.w3.org/2000/svg">
<g id="Frame 13">
<path id="Vector" d="M24.4998 13.2C24.4998 9.892 21.7757 7.19994 18.4283 7.19994C18.23 7.19994 18.0316 7.21594 17.8333 7.23194C17.9547 7.06395 18.0883 6.89994 18.2421 6.75195L18.7157 6.28396C18.829 6.16797 18.8654 5.99597 18.8007 5.84798C18.7399 5.69598 18.5902 5.59998 18.4283 5.59998H17.214V4.39999C17.214 4.18 17.0319 4 16.8092 4H13.1665C12.9439 4 12.7618 4.18 12.7618 4.39999V5.59998H10.738C10.5801 5.59998 10.4344 5.69198 10.3697 5.83598C10.3049 5.97598 10.3292 6.14397 10.4344 6.26398L11.9968 8.02795C12.8791 9.02792 13.1787 10.4159 12.778 11.66C12.3084 13.112 11.4342 14.4 10.2482 15.384C8.49966 16.832 7.5 18.9521 7.5 21.2C7.5 24.0559 9.0988 26.644 11.6691 27.956C11.7257 27.984 11.7905 28 11.8553 28H18.5257C18.5905 28 18.6552 27.984 18.7119 27.956C21.2821 26.644 22.881 24.0561 22.881 21.2C22.881 20.06 22.6219 18.952 22.1403 17.9481C23.6217 16.8121 24.4998 15.0601 24.4998 13.2ZM13.5712 4.80023H16.4046V5.60022H13.5712V4.80023ZM13.0086 13.2C13.219 12.784 13.4052 12.352 13.551 11.9C14.0367 10.396 13.6764 8.70799 12.6038 7.49995L11.6284 6.39995H17.4649C16.7809 7.17593 16.4045 8.15993 16.4045 9.20005C16.4045 9.31204 16.4085 9.42004 16.4125 9.53205V9.54405C16.4652 10.832 16.7971 12.076 17.3718 13.1999L13.0086 13.2ZM20.7556 15.9599C20.5613 15.7599 20.3508 15.5639 20.1323 15.3839C18.4323 13.9759 17.4001 11.964 17.2382 9.8001C17.6187 9.6681 18.0154 9.6001 18.4282 9.6001C20.4358 9.6001 22.0709 11.2161 22.0709 13.1999C22.0709 14.2719 21.5813 15.28 20.7556 15.9599ZM21.2818 16.5679C22.2896 15.7359 22.8806 14.5079 22.8806 13.2C22.8806 10.772 20.8851 8.79992 18.4281 8.79992C18.0152 8.79992 17.6105 8.85992 17.226 8.96792C17.2462 8.67194 17.3029 8.38394 17.3919 8.10793C17.74 8.03993 18.0841 7.99993 18.4281 7.99993C21.3302 7.99993 23.6898 10.3319 23.6898 13.1997C23.6898 14.7677 22.9653 16.2397 21.743 17.2276C21.6013 16.9996 21.4477 16.7799 21.2818 16.5679Z" fill="var(--fill-0, #6FA59B)"/>
</g>
</svg>
