<svg preserveAspectRatio="none" width="100%" height="100%" overflow="visible" style="display: block;" viewBox="0 0 32 32" fill="none" xmlns="http://www.w3.org/2000/svg">
<g id="Frame 13">
<path id="Vector" d="M18.3508 13.9478C18.4096 13.9055 18.4782 13.8838 18.5501 13.8838C18.6611 13.8838 18.7657 13.937 18.8299 14.027C18.9399 14.1798 18.9039 14.3945 18.7504 14.5041C17.5571 15.3553 17.3937 16.5763 17.4667 17.4513C17.4819 17.6389 17.3415 17.8048 17.1531 17.8211C17.1433 17.8222 17.1335 17.8222 17.1237 17.8222C16.9473 17.8222 16.797 17.6845 16.7818 17.5088C16.6577 16.0221 17.2152 14.7578 18.3508 13.9478ZM28 22.088C28 25.3476 25.3367 28 22.0637 28C20.5948 28 19.1837 27.4589 18.0905 26.4765L18.0034 26.3984L17.9076 26.4645C17.5069 26.7411 17.0768 26.9753 16.6293 27.1607C15.7941 27.5055 14.9155 27.6801 14.0172 27.6801C13.022 27.6801 12.041 27.4676 11.1001 27.0469C9.3101 26.2466 7.89909 24.7849 7.12809 22.9307C4.75227 17.2205 3.85177 13.8297 4.01958 11.2261C4.11648 9.72207 4.58249 8.48265 5.44595 7.43634C6.30832 6.39102 7.57352 5.53436 9.31236 4.81652C10.6255 4.27435 11.8972 4 13.0926 4C13.9332 4 14.7292 4.13771 15.4598 4.40882C17.3402 5.10714 18.7796 6.63175 19.7409 8.94141C19.8281 9.15069 19.8988 9.35672 19.9576 9.57358L20.0034 9.74382L20.1623 9.66792C20.4857 9.51502 20.8167 9.41418 21.1444 9.36864L21.2283 9.35671L22.2845 6.81715L22.2061 6.74775C21.7564 6.35195 21.6235 5.71978 21.8751 5.17542C22.095 4.6994 22.5795 4.39143 23.1098 4.39143C23.2688 4.39143 23.4245 4.41962 23.5736 4.47384C23.8916 4.59095 24.1518 4.82084 24.3075 5.12011L24.3641 5.22963L24.4828 5.19168C24.6157 5.14939 24.755 5.1277 24.8944 5.1277C25.0915 5.1277 25.282 5.16891 25.4606 5.25132C26.0986 5.5441 26.4079 6.28689 26.164 6.94294C25.968 7.46992 25.4584 7.82453 24.8955 7.82453C24.8682 7.82453 24.841 7.82344 24.8138 7.82236L24.7093 7.81585L23.6673 10.3207L23.7217 10.3879C24.0015 10.736 24.2084 11.1513 24.3391 11.6219C24.5895 12.5252 24.5263 13.5565 24.1605 14.5248L24.142 14.5736L24.1583 14.6234C24.363 15.2307 24.4545 15.9008 24.424 16.5623L24.4196 16.661L24.51 16.7022C26.6289 17.6618 27.9987 19.7752 27.9987 22.0881L28 22.088ZM25.7232 23.6625C25.8267 23.6625 25.9247 23.617 25.99 23.5367C26.0477 23.4663 26.0749 23.3773 26.0651 23.2863C26.0553 23.1952 26.0118 23.1138 25.941 23.0553L25.1712 22.4296H26.3493C26.5388 22.4296 26.6923 22.2756 26.6923 22.088C26.6923 21.8994 26.5388 21.7465 26.3493 21.7465H25.1712L25.941 21.1208C26.0118 21.0633 26.0564 20.9809 26.0651 20.8898C26.0749 20.7987 26.0477 20.7098 25.99 20.6393C25.9247 20.5591 25.8278 20.5135 25.7232 20.5135C25.6438 20.5135 25.5686 20.5406 25.5066 20.5905L24.0845 21.7454H22.8934L24.7444 19.902C24.8783 19.7686 24.8783 19.5517 24.7444 19.4183C24.679 19.3533 24.593 19.3186 24.5016 19.3186C24.4101 19.3186 24.3241 19.3544 24.2588 19.4183L22.4078 21.2618V20.0755L23.5674 18.6593C23.6251 18.5888 23.6523 18.4999 23.6425 18.4088C23.6327 18.3177 23.5891 18.2364 23.5184 18.1778C23.4563 18.1279 23.3812 18.1008 23.3017 18.1008C23.1983 18.1008 23.1003 18.1464 23.0349 18.2266L22.4067 18.9933V17.82C22.4067 17.6313 22.2532 17.4784 22.0637 17.4784C21.8742 17.4784 21.7207 17.6324 21.7207 17.82V18.9933L21.0924 18.2266C21.0271 18.1464 20.9302 18.1008 20.8257 18.1008C20.7462 18.1008 20.6711 18.128 20.609 18.1778C20.5382 18.2353 20.4936 18.3177 20.4849 18.4088C20.4751 18.4999 20.5023 18.5888 20.56 18.6593L21.7196 20.0755V21.2618L19.8686 19.4183C19.8033 19.3533 19.7173 19.3186 19.6258 19.3186C19.5344 19.3186 19.4483 19.3544 19.383 19.4183C19.2491 19.5517 19.2491 19.7686 19.383 19.902L21.234 21.7454H20.0428L18.6208 20.5905C18.5588 20.5406 18.4836 20.5135 18.4041 20.5135C18.3007 20.5135 18.2027 20.5591 18.1374 20.6393C18.0797 20.7098 18.0524 20.7987 18.0622 20.8898C18.072 20.9809 18.1156 21.0622 18.1864 21.1208L18.9562 21.7465H17.778C17.5886 21.7465 17.4351 21.9004 17.4351 22.088C17.4351 22.2767 17.5886 22.4296 17.778 22.4296H18.9562L18.1864 23.0553C18.1156 23.1128 18.071 23.1952 18.0622 23.2863C18.0524 23.3773 18.0797 23.4663 18.1374 23.5367C18.2027 23.617 18.2996 23.6625 18.4041 23.6625C18.4836 23.6625 18.5588 23.6354 18.6208 23.5855L20.0428 22.4307H21.234L19.383 24.2741C19.2491 24.4075 19.2491 24.6243 19.383 24.7577C19.4483 24.8228 19.5344 24.8575 19.6258 24.8575C19.7173 24.8575 19.8033 24.8217 19.8686 24.7577L21.7196 22.9143V24.1006L20.56 25.5168C20.5023 25.5873 20.4751 25.6762 20.4849 25.7673C20.4947 25.8584 20.5382 25.9397 20.609 25.9982C20.6711 26.0481 20.7462 26.0752 20.8257 26.0752C20.9291 26.0752 21.0271 26.0297 21.0924 25.9494L21.7207 25.1828V26.3561C21.7207 26.5448 21.8742 26.6977 22.0637 26.6977C22.2531 26.6977 22.4067 26.5437 22.4067 26.3561V25.1828L23.0349 25.9494C23.1003 26.0297 23.1972 26.0752 23.3017 26.0752C23.3812 26.0752 23.4563 26.0481 23.5184 25.9982C23.5892 25.9408 23.6338 25.8584 23.6425 25.7673C23.6523 25.6762 23.6251 25.5873 23.5674 25.5168L22.4078 24.1006V22.9143L24.2588 24.7566C24.3241 24.8217 24.4101 24.8564 24.5016 24.8564C24.593 24.8564 24.6791 24.8206 24.7444 24.7566C24.8783 24.6233 24.8783 24.4064 24.7444 24.273L22.8934 22.4296H24.0845L25.5066 23.5845C25.5686 23.6343 25.6438 23.6614 25.7232 23.6614V23.6625ZM18.5423 12.3971L18.538 12.4069C18.5053 12.4871 18.4421 12.5522 18.3616 12.589C17.2738 13.077 16.4082 13.9879 15.9237 15.1536C15.266 16.7346 15.4457 18.4792 16.3908 19.7067L16.5411 19.9019L16.6423 19.6774C17.6005 17.551 19.728 16.1761 22.0624 16.1761C22.5687 16.1761 23.0718 16.2401 23.5585 16.367L23.7458 16.4157L23.7425 16.2227C23.7327 15.6871 23.6347 15.1709 23.4518 14.6895C23.4202 14.607 23.4224 14.517 23.4561 14.4357L23.4594 14.427C24.2009 12.6443 23.7 10.7403 22.3433 10.1806C22.0918 10.0766 21.8229 10.0245 21.5441 10.0245C20.3377 10.0245 19.1302 10.9777 18.5401 12.3971L18.5423 12.3971ZM9.54317 15.8399C9.58564 15.8572 9.62919 15.8659 9.67492 15.8659C9.81429 15.8659 9.93951 15.7835 9.99286 15.6544L10.8552 13.5822C10.9282 13.4077 10.8443 13.207 10.669 13.1355C10.6266 13.1181 10.583 13.1094 10.5373 13.1094C10.3979 13.1094 10.2727 13.1919 10.2194 13.3209L9.35698 15.3931C9.28403 15.5677 9.36787 15.7683 9.54317 15.8399ZM9.35372 9.97453C9.42667 9.79995 9.34283 9.59933 9.16753 9.52777C9.12506 9.51042 9.08151 9.50174 9.03687 9.50174C8.8975 9.50174 8.77228 9.58416 8.71893 9.71319L7.85657 11.7854C7.78361 11.96 7.86745 12.1606 8.04276 12.2322C8.08522 12.2495 8.12877 12.2582 8.17451 12.2582C8.31388 12.2582 8.43909 12.1758 8.49244 12.0467L9.35481 9.97453H9.35372ZM13.464 19.6699C13.2746 19.3413 12.936 19.0572 12.5331 18.8913C12.2816 18.7872 12.0126 18.733 11.7535 18.733C11.2123 18.733 10.779 18.9672 10.6222 19.3435C10.3837 19.9171 10.8552 20.6805 11.6522 21.009C11.9037 21.1131 12.1727 21.1674 12.4318 21.1674C12.973 21.1674 13.4063 20.9331 13.5631 20.5569C13.6742 20.2901 13.6382 19.9746 13.4629 19.6699H13.464ZM13.0568 12.4762C13.3083 12.5803 13.5773 12.6345 13.8375 12.6345C14.3787 12.6345 14.812 12.4003 14.9688 12.0241C15.0864 11.74 15.0363 11.3951 14.8305 11.0752C14.6324 10.7683 14.3155 10.5135 13.9377 10.3574C13.6862 10.2533 13.4172 10.1991 13.157 10.1991C12.6159 10.1991 12.1825 10.4333 12.0257 10.8096C11.9146 11.0763 11.9506 11.3919 12.1259 11.6966C12.3153 12.0251 12.6539 12.3092 13.0568 12.4751L13.0568 12.4762ZM17.5253 25.8994L17.4241 25.7736C17.2901 25.6066 17.1649 25.432 17.0506 25.2542L16.9711 25.1295L16.847 25.2108C16.5802 25.3843 16.296 25.534 16.0021 25.6543C15.3695 25.9157 14.702 26.048 14.0193 26.048C13.2375 26.048 12.4655 25.8756 11.724 25.5373C10.3379 24.9029 9.2426 23.7556 8.6406 22.3069C6.39869 16.9176 5.50588 13.6353 5.65389 11.331C5.72902 10.1642 6.06439 9.25551 6.71116 8.47258C7.3982 7.63979 8.45437 6.93714 9.93953 6.32445C11.0567 5.86359 12.1107 5.63046 13.0709 5.63046C13.5108 5.63046 13.9376 5.68034 14.3394 5.77685C16.0456 6.19 17.3543 7.46519 18.2287 9.5666C18.3713 9.91034 18.4573 10.2747 18.4911 10.6791L18.5205 11.0283L18.7491 10.7616C18.9255 10.5566 19.1161 10.369 19.3153 10.2064L19.3828 10.1511L19.3665 10.0654C19.3077 9.76612 19.2228 9.48416 19.1063 9.20332C18.2221 7.07688 16.9144 5.67923 15.2203 5.0502C14.567 4.8073 13.8506 4.68477 13.0917 4.68477C11.9876 4.68477 10.804 4.94177 9.5748 5.44924C6.38015 6.76674 4.87746 8.56249 4.70436 11.2702C4.5443 13.761 5.42953 17.0639 7.76187 22.6688C8.46633 24.3615 9.75116 25.6952 11.381 26.4228C12.2314 26.8023 13.1177 26.9953 14.0171 26.9953C14.8261 26.9953 15.6155 26.8381 16.3657 26.529C16.7217 26.3826 17.0669 26.2005 17.3903 25.9879L17.5253 25.8994Z" fill="var(--fill-0, #6FA59B)"/>
</g>
</svg>
