<svg width="17" height="24" viewBox="0 0 17 24" fill="none" xmlns="http://www.w3.org/2000/svg">
<path d="M1.63056 5.32797H15.1067C15.5693 5.32797 15.944 5.79054 15.944 6.16519V6.89252C15.944 7.35509 15.5693 7.72974 15.1067 7.72974H1.63056C1.16798 7.72974 0.793333 7.26716 0.793333 6.89252V6.16519C0.793333 5.70262 1.16798 5.32797 1.63056 5.32797Z" fill="#6FA59B"/>
<path d="M11.6595 1.62945C9.90975 -0.543149 6.83713 -0.543149 5.08741 1.62945L2.78085 4.49074H13.9672L11.6607 1.62945H11.6595ZM5.53214 3.89517C5.29981 3.89517 5.11248 3.7068 5.11248 3.47552C5.11248 3.24319 5.30086 3.05586 5.53214 3.05586C5.76447 3.05586 5.95179 3.24423 5.95179 3.47552C5.95179 3.70785 5.76342 3.89517 5.53214 3.89517ZM7.31436 2.2741C7.08203 2.2741 6.89471 2.08572 6.89471 1.85444C6.89471 1.62211 7.08308 1.43478 7.31436 1.43478C7.54669 1.43478 7.73402 1.62316 7.73402 1.85444C7.73402 2.08677 7.54564 2.2741 7.31436 2.2741ZM8.80148 3.69006C8.56915 3.69006 8.38183 3.50168 8.38183 3.2704C8.38183 3.03807 8.5702 2.85075 8.80148 2.85075C9.03381 2.85075 9.22114 3.03912 9.22114 3.2704C9.22114 3.50273 9.03276 3.69006 8.80148 3.69006ZM9.80719 2.05119C9.57486 2.05119 9.38754 1.86282 9.38754 1.63154C9.38754 1.39921 9.57591 1.21188 9.80719 1.21188C10.0395 1.21188 10.2268 1.40026 10.2268 1.63154C10.2268 1.86387 10.0385 2.05119 9.80719 2.05119ZM11.6512 3.94854C11.4188 3.94854 11.2315 3.76017 11.2315 3.52888C11.2315 3.29655 11.4199 3.10923 11.6512 3.10923C11.8835 3.10923 12.0708 3.2976 12.0708 3.52888C12.0708 3.76121 11.8825 3.94854 11.6512 3.94854Z" fill="#6FA59B"/>
<path d="M16.6818 22.0076C16.5719 21.7082 16.4285 21.4194 16.2768 21.1881C16.0507 20.8449 15.9555 20.4346 15.9681 20.0244C16.0246 18.2243 16.0057 15.9891 15.8634 14.0926C15.7148 12.0654 15.449 10.2151 15.1329 8.56475C15.1246 8.56475 15.1172 8.56684 15.1089 8.56684H1.63053C1.62634 8.56684 1.6232 8.56579 1.61901 8.56579C1.28517 10.2256 1.0026 12.1073 0.853994 14.1825C0.720039 16.0433 0.711667 18.2315 0.779692 19.997C0.796436 20.4198 0.694922 20.8405 0.461548 21.1921C0.352709 21.3554 0.249102 21.549 0.158058 21.7541C0.119337 21.842 0.0848 21.9289 0.0544511 22.0126C-0.13811 22.5464 0.199919 23.1251 0.755628 23.2371C2.84659 23.6609 5.42532 24.001 8.38064 24C11.3266 23.9989 13.898 23.6588 15.9837 23.236C16.5404 23.123 16.8785 22.5401 16.6828 22.0064L16.6818 22.0076ZM11.7013 15.5903C11.4208 15.9628 10.9279 16.483 10.2634 16.6504C9.56639 16.8262 8.85267 16.5719 8.43615 16.371L7.57067 18.351C7.79358 18.1825 8.05208 18.0391 8.34509 17.9659C9.00964 17.7984 9.69091 18.0213 10.1137 18.217C10.3607 18.3311 10.4381 18.6377 10.2749 18.8554C9.99442 19.228 9.50152 19.7481 8.83696 19.9155C8.13997 20.0914 7.42625 19.8371 7.00973 19.6361L6.35565 21.1326C6.28658 21.2896 6.13274 21.3838 5.97157 21.3838C5.91506 21.3838 5.85855 21.3733 5.80413 21.3482C5.59273 21.2561 5.49542 21.0092 5.58855 20.7977L6.24262 19.3012C5.81145 19.1317 5.14063 18.7811 4.79633 18.15C4.46771 17.5483 4.51377 16.8335 4.59749 16.3751C4.64563 16.1083 4.92402 15.9565 5.17516 16.0591C5.60634 16.237 6.2332 16.5844 6.56182 17.1862C6.70624 17.452 6.7774 17.7387 6.80566 18.0161L7.67114 16.0361C7.23997 15.8665 6.56915 15.5159 6.22485 14.8849C5.89623 14.2831 5.94229 13.5683 6.02601 13.11C6.07415 12.8431 6.35254 12.6913 6.60368 12.7939C7.03486 12.9718 7.66172 13.3193 7.99034 13.921C8.13476 14.1868 8.20592 14.4736 8.23418 14.752L8.97511 13.0566C8.86941 12.6076 8.80557 11.9787 9.05255 11.4125C9.32673 10.7846 9.92013 10.3827 10.3346 10.1682C10.5753 10.0426 10.8662 10.1703 10.9374 10.4319C11.0609 10.8819 11.1697 11.5894 10.8955 12.2183C10.6485 12.7845 10.143 13.1644 9.74222 13.3925L9.00129 15.089C9.2242 14.9205 9.4827 14.7771 9.77571 14.7038C10.4403 14.5364 11.1215 14.7593 11.5444 14.955C11.7913 15.0691 11.8688 15.3757 11.7055 15.5934L11.7013 15.5903Z" fill="#6FA59B"/>
</svg>
