<svg xmlns="http://www.w3.org/2000/svg" viewBox="0 0 64 64" fill="none" aria-hidden="true">
  <path d="M32 54V14" stroke="#0F7569" stroke-width="3.5" stroke-linecap="round"/>
  <path d="M31 22c-8.5-1.5-13-6-14.5-12.5C25 10.5 30 14.5 31 22Z" fill="#D8A85C" stroke="#0F7569" stroke-width="2.5" stroke-linejoin="round"/>
  <path d="M33 29c8.5-1.5 13-6 14.5-12.5C39 17.5 34 21.5 33 29Z" fill="#F4D58A" stroke="#0F7569" stroke-width="2.5" stroke-linejoin="round"/>
  <path d="M31 36c-8.5-1.5-13-6-14.5-12.5C25 24.5 30 28.5 31 36Z" fill="#F4D58A" stroke="#0F7569" stroke-width="2.5" stroke-linejoin="round"/>
  <path d="M33 43c8.5-1.5 13-6 14.5-12.5C39 31.5 34 35.5 33 43Z" fill="#D8A85C" stroke="#0F7569" stroke-width="2.5" stroke-linejoin="round"/>
  <path d="M16 54h32" stroke="#143B36" stroke-width="3.5" stroke-linecap="round"/>
</svg>
