<svg preserveAspectRatio="none" width="100%" height="100%" overflow="visible" style="display: block;" viewBox="0 0 32 32" fill="none" xmlns="http://www.w3.org/2000/svg">
<g id="Frame 13">
<path id="Vector" fill-rule="evenodd" clip-rule="evenodd" d="M9.79598 6.80051C8.28639 8.58531 7.36852 10.9832 7.09037 13.5568C6.81039 16.1472 7.17749 18.9111 8.24021 21.4063C9.29873 23.8919 10.908 25.7831 12.7527 26.8906C14.3969 27.8775 16.229 28.2397 18.0217 27.8405L17.7273 27.6695C17.715 27.6623 17.7037 27.6546 17.6932 27.6458L16.9325 27.0762C16.9233 27.0695 16.9149 27.0621 16.907 27.0543L16.1786 26.3551C16.1668 26.3439 16.1566 26.3317 16.1474 26.3189L15.5806 25.537C15.574 25.5279 15.5683 25.5186 15.563 25.509L15.0419 24.6538C15.0364 24.6445 15.0314 24.6351 15.0272 24.6255L14.6207 23.7178C14.6142 23.7029 14.6089 23.6874 14.6055 23.6719L14.3261 22.7383C14.3219 22.7245 14.319 22.7106 14.3174 22.6967L14.1946 21.7061C14.1922 21.6861 14.1922 21.6663 14.1946 21.6471L14.2345 20.6757C14.2348 20.665 14.2358 20.6549 14.2376 20.6447L14.3998 19.6538C14.4029 19.6354 14.4077 19.6178 14.4145 19.6013L14.7354 18.6637C14.7404 18.6495 14.7462 18.6362 14.753 18.6237L15.1946 17.7264L15.2046 17.7082L16.2161 16.0216L16.6987 15.1629L17.0944 14.2781L17.3678 13.3656L17.5239 12.3733V11.4149L17.3675 10.4605L17.0957 9.5925L16.6987 8.70477L16.2112 7.83731L15.6989 6.99624L15.098 6.14104L14.8133 5.76985L14.8021 5.75385L14.5121 5.38558L14.1778 5.12131L13.7813 4.90158L13.3426 4.79011L12.8936 4.75198L12.4447 4.79011L12.0007 4.90291L11.637 5.08745L11.2489 5.36371L10.8616 5.67865L10.5021 6.00451L9.82485 6.77358C9.81619 6.78344 9.80596 6.79224 9.79598 6.80051ZM15.0949 4.00825C16.7058 3.92825 18.3004 4.43252 19.725 5.41625C21.291 6.49758 22.6531 8.15757 23.6108 10.2573C24.572 12.3648 25.0331 14.7117 24.9982 17.0045C24.9633 19.2927 24.4337 21.5263 23.4143 23.4125C23.3993 23.4402 23.3902 23.4695 23.3862 23.4991L22.885 24.2631L22.2944 25.0639L21.6268 25.7823L21.2471 26.0525L20.8129 26.3333L20.3841 26.5709L19.8989 26.7605L19.4552 26.8357H19.0136L18.5903 26.7282L18.2206 26.5026L17.8409 26.2325L17.4528 25.8775L16.7829 25.0765L16.2285 24.2311L15.7976 23.3557L15.6444 22.9274L15.53 22.4621C15.5045 22.1279 15.4785 21.7946 15.4512 21.4605V20.9503C15.5063 20.6154 15.5586 20.2831 15.6092 19.9474L15.7226 19.4869L16.1141 18.6117L16.6355 17.7149L17.1637 16.8893L17.6916 15.981L18.1458 15.0576C18.1511 15.0472 18.1555 15.0362 18.1592 15.0248L18.4791 14.0493C18.4843 14.036 18.4888 14.0218 18.4917 14.0069L18.6916 13.0314C18.6956 13.0165 18.6982 13.001 18.6995 12.9853L18.7806 11.9554C18.7816 11.9421 18.7819 11.9285 18.7806 11.9146L18.699 10.8829C18.6982 10.8725 18.6969 10.8621 18.6945 10.8517L18.4909 9.8613L18.4838 9.8341L18.1608 8.84904C18.1569 8.83597 18.1519 8.82317 18.1456 8.81037L17.7016 7.90771L17.6885 7.88291C17.1584 7.01304 16.6173 6.15144 16.0513 5.30531L15.0949 4.00825Z" fill="var(--fill-0, #6FA59B)"/>
</g>
</svg>
