<svg xmlns="http://www.w3.org/2000/svg" width="1484.26" height="692.68" viewBox="109.49 97.67 1484.26 692.68">
  <!-- Created using SVG Map Generator: dojo.amcharts.com/svg-map-generator -->
  <style>
    .land { fill: #8FBDB2; fill-opacity: 0.28; stroke: rgba(255, 253, 248, 0.22); stroke-width: 0.65; }
</style>
  <g id="polygons">
    <path d="M530.5,451.166L527.851,451.698L528.559,449.254L530.501,448.579ZM461.963,408.354L463.87,408.749L466.175,409.981L465.245,411.455L463.867,410.9L461.559,411.624L459.804,411.398L458.178,408.451L459.725,408.068ZM510.987,408.334L513.236,408.795L511.535,410.898L506.175,410.795L506.602,408.185ZM486.321,401.869L488.156,400.97L490.802,400.873L494.24,402.31L495.75,404.051L497.516,404.558L500.141,406.09L501.495,407.602L499.89,409.618L498.779,408.657L495.14,408.474L493.232,409.465L491.256,409.029L489.544,409.355L487.597,412.592L485.001,409.584L481.384,409.981L479.213,409.467L476.907,410.549L474.741,408.976L475.761,407.34L478.463,408.065L481.924,408.52L483.992,407.279L482.193,405.228L482.882,403.319L481.458,402.44L481.352,400.926L483.449,400.942ZM120.276,405.535L119.037,405.233L119.17,401.722L120.512,400.356L120.809,399.002L123.198,400.458L124.315,402.888L121.773,404.253ZM113.867,392.896L112.316,393.61L111.992,392.23L113.51,391.63ZM441.346,392.042L439.971,392.963L439.237,391.164L440.913,390.652ZM444.597,383.924L448.493,384.601L450.819,384.376L453.187,385.208L456.635,388.077L458.775,388.185L462.002,390.599L463.58,390.749L466.864,393.787L470.771,394.685L470.868,396.636L474.126,397.065L476.507,400.017L472.626,400.94L468.134,400.483L461.254,401.176L463.734,398.876L463.892,397.1L460.595,396.73L458.679,394.98L458.37,392.591L455.629,392.347L451.695,390.746L450.673,389.756L448.654,389.811L445.054,389.049L445.048,386.57L441.433,386.518L438.28,388.932L434.05,389.699L434.141,388.123L435.744,386.637L439.404,385.077ZM464.533,378.242L464.991,380.408L463.805,381.014L463.188,378.594ZM464.345,375.62L464.485,377.332L463.047,378.245L462.331,375.829L463.802,373.813ZM504.748,291.637L504.915,292.377L501.098,293.609L499.904,292.247ZM557.813,266.122L557.844,267.674L559.441,266.618L559.64,265.316L562.131,265.541L559.414,268.097L555.727,268.507L555.356,266.645L558.956,262.323L561.055,262.468L559.313,265.478ZM546.782,263.851L549.485,264.214L553.412,263.885L549.922,266.342L547.192,265.181ZM558.632,250.724L556.738,250.857L551.927,249.257L550.513,246.553L555.134,247.729L558.602,249.836ZM305.288,242.183L308.305,243.697L312.458,244.686L313.168,249.111L315.12,250.132L315.282,253.345L314.213,254.592L310.642,253.268L307.569,250.794L308.07,249.87L305.69,249.159L306.493,246.878L304.822,246.861L303.414,244.047ZM586.454,238.511L583.971,241.753L579.66,245.965L583.151,246.459L582.166,248.354L585.326,249.913L587.183,248.8L589.551,249.045L590.687,250.546L589.19,252.197L589.758,255.102L588.744,256.662L591.789,256.118L590.478,258.009L592.421,258.53L589.778,262.905L587.606,262.91L588.065,261.512L585.627,261.9L587.426,259.347L587.389,257.489L585.279,258.967L583.518,259.358L581.128,261.772L579.205,261.967L582.273,259.034L578.473,257.916L575.463,258.405L570.139,257.889L566.906,258.422L566.321,256.941L569.49,254.634L569.825,253.266L573.82,248.542L577.194,243.956L581.058,239.931L584.252,238.48ZM491.358,232.475L487.375,231.638L487.804,230.518L490.56,230.423ZM296.897,230.304L297.253,230.927L294.838,233.683L294.711,230.765ZM308.827,230.88L307.425,233.796L306.178,232.303ZM166.907,227.024L166.523,228.24L163.367,228.853L165.786,226.722ZM295.943,225.854L299.953,226.607L296.41,230.131L293.746,229.91L294.131,227.622ZM183.306,221.77L182.732,222.96L179.549,223.517L176.689,224.57L176.413,223.581L178.909,222.255L182.07,221.487ZM308.023,218.927L305.516,218.842L308.195,217.056ZM300.916,215.208L302.207,215.301L303,220.665L301.623,222.623L299.418,221.442L299.479,217.821L300.678,217.223ZM505.322,215.299L503.42,217.396L500.421,217.168L503.414,215.51ZM302.929,211.736L304.988,212.16L304.363,213.585L301.215,214.607ZM299.146,210.043L298.309,213.387L296.108,210.518ZM234.612,208.101L234.909,209.862L227.887,212.087L225.575,212.416L225.906,210.432L228.726,208.987L230.268,209.189ZM299.683,206.101L301.669,207.019L299.412,209.593L296.327,208.812L296.253,206.806ZM303.293,206.192L303.785,207.812L303.093,210.425L300.201,211.764L301.443,208.987ZM197.223,196.013L198.378,196.337L197.04,198.218L194.23,198.873L191.842,197.77L195.984,196.016ZM516.012,186.582L516.117,188.37L513.784,190.285L512.322,189.145L514.338,186.906ZM508.566,184.018L507.581,185.481L503.315,187.52L500.751,187.75L500.79,186.29L503.68,184.318ZM193.511,180.554L198.115,181.628L200.68,183.097L197.014,183.452L195.754,182.143L191.498,181.935ZM503.977,172.797L508.905,174.301L512.541,176.381L512.229,179.209L515.519,178.899L516.612,180.393L513.275,181.767L509.14,180.646L509.352,179.642L506.144,178.856L504.624,180.159L500.192,182.464L496.713,183.243L497.22,180.869L492.038,180.803L496.516,178.686L497.167,176.736L501.498,171.596L504.236,171.187ZM542.616,159.894L544.803,160.346L543.305,163.42L540.49,164.544L536.249,164.618L536.242,162.673L539.398,160.357ZM473.164,154.084L476.133,155.485L476.413,158.143L473.207,159.305L469.791,158.984L464.715,157.585L464.188,156.839L468.841,155.528L469.17,154.613ZM622.943,152.03L625.94,153.475L625.202,154.855L619.887,155.867L619.611,154.78L616.388,154.242L617.202,151.943L618.999,151.268ZM716.015,148.58L715.97,149.824L707.492,150.679L708.507,148.775ZM454.894,466.299L453.775,464.681L452.79,462.019L454.239,460.377L450.103,457.197L448.531,457.152L447.043,459.266L444.219,460.843L443.765,461.936L445.356,464.046L443.646,466.066L441.828,466.347L441.11,463.82L439.033,463.767L438.151,461.623L433.984,460.675L432.026,460.514L431.92,459.303L429.395,459.168L429.952,457.001L428.884,455.759L425.626,453.848L423.586,454.186L421.437,452.533L420.705,449.981L421.557,448.193L421.345,446.422L418.411,443.073L417.323,440.918L413.636,437.066L414.866,435.913L413.674,434.713L412.606,435.638L410.043,435.622L406.812,434.104L404.531,433.681L401.182,431.778L398.805,431.797L396.001,430.235L394.227,428.484L392.157,425.538L387.845,420.816L385.98,419.623L384.664,420.051L383.755,418.937L380.992,421.224L377.52,422.677L376.188,422.89L373.39,421.561L370.922,421.263L369.391,420.028L367.782,419.519L366.875,418.332L362.927,417.377L361.603,416.34L358.192,414.894L355.226,412.565L354.35,411.166L350.724,410.441L347.682,409.084L346.027,406.485L341.945,403.998L340.151,400.552L339.701,398.436L341.661,397.435L340.831,396.413L342.263,394.641L342.738,392.719L341.304,390.147L341.324,386.837L339.261,383.896L337.684,380.348L334.106,376.548L332.949,373.548L330.46,372.065L329.22,370.787L329.415,369.205L330.721,367.793L330.008,365.693L328.83,365.732L328.494,363.782L326.517,362.521L327.005,359.715L324.608,359.181L322.9,356.572L321.604,353.731L321.695,352.432L320.535,348.721L320.157,344.535L321.016,342.536L318.828,341.672L317.897,340.204L316.851,340.837L314.388,339.328L313.197,342.654L313.252,346.021L312.776,347.413L313.347,349.527L315.3,351.923L315.76,354.208L316.835,354.873L317.743,356.812L317.511,359.913L318.84,361.481L319.483,364.364L321.036,365.709L321.323,368.724L321.082,370.463L321.869,371.824L322.53,375.649L322.43,378.624L324.652,378.828L326.485,382.423L326.036,383.797L323.665,385.5L323.087,384.882L322.543,381.778L318.79,378.029L316.565,375.383L317.42,372.026L316.936,368.267L314.64,366.353L314.2,364.934L312.335,365.638L311.615,364.366L309.354,363.062L309.236,361.96L307.705,360.38L310.864,359.669L312.708,356.803L312.546,355.873L310.043,351.836L307.694,349.908L307.916,347.072L307.639,344.48L306.297,340.538L305.644,334.845L305.771,331.574L303.93,329.366L302.582,329.253L302.661,327.838L300.153,327.349L298.763,325.767L295.19,325.489L294.703,324.929L295.671,322.359L295.265,320.865L292.884,315.876L294.041,313.803L292.483,311.349L293.475,308.098L291.939,306.764L292.241,305.835L290.634,302.589L291.967,297.684L291.039,295.674L291.385,294.446L293.453,291.99L294.672,289.864L296.145,282.555L299.876,278.071L305.523,268.491L308.023,262.585L309.281,257.98L308.987,256.747L310.244,254.382L312.258,255.42L318.658,256.211L319.202,251.288L318.182,251.288L318.366,248.959L316.387,248.84L316.165,247.295L314.876,247.217L313.982,243.893L309.499,243.627L309.762,241.715L307.969,241.95L306.304,240.545L307.542,238.926L306.725,237.394L306.888,235.567L310.027,232.129L308.772,232.037L309.168,230.237L307.232,229.506L305.712,230.199L304.295,227.888L306.739,225.889L305.908,222.61L306.33,220.912L308.766,218.115L308.32,216.783L306.741,216.07L306.176,211.841L304.216,211.212L305.745,208.715L305.714,206.259L303.967,205.106L301.305,206.046L300.42,204.522L296.542,206.096L294.243,204.503L293.171,202.108L288.791,199.095L286.593,198.989L284.438,197.952L280.295,197.355L276.833,197.75L274.135,196.239L271.091,195.569L269.713,193.11L263.771,193.816L261.473,197.023L259.891,197.861L256.292,197.805L251.705,199.848L250.295,199.857L247.583,201.368L244.505,201.63L247.854,197.866L249.784,196.86L252.53,194.333L256.9,193.024L257.457,191.731L251.748,193.55L251.028,194.277L242.38,198.397L236.631,200.806L235.454,201.953L237.412,203.067L233.233,204.921L231.009,206.504L227.605,207.186L219.292,210.467L218.38,211.533L212.32,213.79L208.375,214.744L207.902,215.897L201.631,217.757L199.92,217.831L194.034,219.71L191.555,219.782L189.257,221.001L185.504,221.897L186.093,220.786L191.364,218.195L196.162,216.738L196.486,217.942L200.809,215.329L206.183,213.53L212.321,210.612L216.246,209.161L220.024,205.261L218.256,203.228L214.486,205.031L214.234,202.94L212.301,202.278L205.263,204.357L209.307,199.743L210.435,196.974L205.381,198.536L202.699,198.718L202.208,196.386L200.787,195.275L204.391,193.637L202.615,192.657L204.043,189.402L210.37,186.304L216.672,182.895L219.605,183.672L226.431,181.806L230.019,181.326L232.372,180.134L235.395,176.676L236.13,175.114L233.614,175.602L227.836,177.606L225.673,176.634L220.892,177.213L217.115,176.66L216.819,172.866L215.605,171.805L231.882,167.786L234.869,167.892L232.961,169.893L239.331,170.028L241.177,169.147L246.577,168.388L245.597,167.269L242.316,167.138L243.64,165.581L239.966,165.682L238.323,164.935L238.97,163.113L235.39,159.506L238.312,157.488L245.019,157.265L251.143,155.296L253.711,153.687L260.191,151.206L263.007,151.324L271.481,148.855L275.687,148.996L282.06,146.969L286.331,147.908L288.106,149.187L291.936,148.622L294.671,149.147L293.926,150.687L303.072,150.477L306.978,151.7L313.007,151.948L314.416,152.602L321.52,152.136L325.545,154.142L332.43,154.741L334.424,156.324L338.081,157.472L341.042,157.351L343.312,155.63L345.818,154.95L352.334,155.096L354.31,154.154L357.774,153.708L364.169,152.021L367.551,153.886L373.622,151.68L375.784,151.606L375.542,153.807L376.694,155.163L382.737,152.683L384.273,155.342L387.883,153.462L391.111,153.435L394.243,154.111L395.601,155.154L399.795,155.866L401.624,156.8L407.814,157.62L409.697,157.107L412.714,158.477L413.331,159.62L410.159,160.187L407.33,162.173L411.875,162.7L416.086,162.767L421.382,162.299L425.241,161.476L425.834,162.555L428.914,163.182L428.941,165.493L431.54,166.329L431.885,160.715L430.857,160.156L433.229,158.691L441.52,157.338L442.52,159.36L445.358,161.239L448.074,160.869L449.792,162.207L453.31,162.731L457.513,162.084L461.635,162.595L464.436,162.141L467.103,163.068L468.653,162.015L465.074,161.091L466.58,159.979L470.221,159.383L470.618,160.251L473.533,160.681L470.626,163.346L471.6,164.943L473.596,164.637L473.625,162.534L475.094,161.282L477.68,161.064L482.75,158.988L483.558,157.695L483.29,155.004L478.419,153.371L477.816,152.099L479.956,150.301L479.69,149.153L481.574,147.163L487.458,144.481L489.979,145.07L492.977,147.212L491.671,148.966L494.449,151.869L489.145,153.879L494.433,155.721L494.439,157.583L500.315,155.827L502.509,157.811L502.197,159.597L500.062,160.107L499.176,162.409L500.818,164.986L504.192,163.513L507.64,161.057L509.843,158.606L513.953,156.664L512.595,155.976L513.809,153.309L518.027,153.354L523.101,153.979L522.428,154.989L525.999,156.464L525.005,158.487L520.165,159.412L520.664,161.985L522.085,163.763L520.452,165.493L515.221,167.64L507.85,169.465L504.945,167.726L501.296,167.891L502.029,170.168L495.971,173.168L493.588,173.196L488.941,170.556L487.918,171.254L490.084,173.199L496.49,173.875L494.651,175.557L490.102,178.474L487.726,179.266L482.401,179.391L482.39,180.2L476.949,181.56L478.61,182.27L477.107,184.131L474.677,184.783L471.468,184.712L464.732,189.853L462.368,190.894L456.901,195.859L455.181,198.028L452.716,202.977L453.803,203.864L457.615,203.672L457.081,211.992L461.875,210.882L463.764,210.962L466.165,212.126L468.997,212.75L471.363,214.592L472.346,216.57L477.942,218.497L480.021,220.293L484.418,220.152L489.088,220.956L489.735,222.581L488.029,224.806L487.968,227.43L485.768,231.622L487.243,234.22L486.729,234.902L489.544,237.542L489.838,239.66L491.597,240.435L493.658,238.474L495.975,237.664L498.829,235.108L498.657,233.259L499.558,226.058L499.153,223.145L502.384,222.251L506.936,220.531L509.705,218.987L513.337,216.324L515.377,212.555L515.886,210.216L515.339,207.172L511.725,204.023L512.34,203.119L515.98,200.726L516.737,199.333L519.031,197.611L518.604,194.132L520.514,191.099L520.552,187.994L521.351,186.848L524.318,185.848L533.065,187.642L537.429,186.393L541.473,189.749L542.694,192.393L546.644,192.814L548.213,194.581L547.21,195.989L545.465,200.907L545.119,203.139L548.246,202.972L549.037,204.436L551.126,206.247L555.278,204.655L559.969,201.998L564.482,196.629L566.081,196.552L567.93,200.949L568.408,203.193L569.93,205.01L570.15,207.394L571.469,207.923L570.854,210.213L572.172,211.986L570.496,214.963L571.253,217.487L572.364,217.044L574.664,220.419L578.015,220.952L578.366,222.46L580.618,222.327L583.174,223.762L580.022,224.833L582.539,225.746L583.102,227.284L585.587,227.687L587.36,230.393L585.991,234.821L586.291,235.671L580.433,239.028L574.281,239.833L571.027,242.385L566.741,244.995L561.96,245.256L556.556,244.761L548.144,244.891L546.653,244.67L541.714,245.207L539.642,246.293L536.965,249.51L533.169,250.267L530.062,252.108L525.602,255.772L524.677,257.108L520.45,260.593L521.024,261.134L528.978,254.885L535.471,251.974L541.431,250.187L544.073,249.922L546.651,250.294L548.508,251.644L548.003,253.503L543.282,256.158L540.897,255.317L541.206,257.793L543.103,257.212L545.051,257.648L543.721,259.439L541.732,260.788L543.07,261.861L543.621,265.132L547.939,267.603L550.999,268.264L553.425,267.016L555.039,267.933L555.296,270.221L549.869,272.211L544.404,274.027L542.38,273.702L541.688,274.955L539.173,277.174L535.242,278.739L534.012,277.449L534.853,274.629L537.158,272.633L542.659,270.118L541.363,268.241L536.87,270.285L532.702,271.075L530.222,272.955L527.707,274.191L526.294,273.918L522.546,276.003L519.226,277.493L517.611,277.691L513.676,282.492L512.119,285.017L513.231,285.539L513.782,288.62L512.63,289.095L509.629,288.588L508.895,289.892L503.341,290.472L500.006,291.721L496.812,293.846L497.536,295.282L495.837,298.373L494.35,300.119L492.105,301.364L489.997,301.633L490.695,304.669L487.412,307.501L485.486,304.715L486.481,302.87L485.094,302.634L484.684,304.52L484.83,307.812L484.146,310.58L483.392,311.324L484.683,312.873L484.819,314.193L481.596,317.44L484.387,318.103L484.075,319.41L482.056,320.925L480.538,321.356L479.176,323.059L474.185,326.453L472.646,328.385L470.23,328.585L468.539,329.694L466.434,332.404L462.697,335.072L461.769,335.298L458.624,337.694L456.687,339.816L456.588,340.713L454.399,344.114L454.391,349.715L455.113,353.571L456.154,356.492L455.314,358.073L456.197,363.119L456.4,366.429L455.373,370.237L453.896,372.838L452.149,373.744L450.733,372.9L450.036,370.249L448.664,369.462L448.429,367.121L446.549,363.883L446.248,360.469L445.591,359.809L447.017,356.495L447.466,354.412L445.331,351.486L444.12,349.03L442.824,348.11L441.168,349.126L436.932,350.304L436.999,349.29L433.848,346.092L427.099,347.134L422.502,346.495L419.302,347.787L416.846,346.681L415.764,347.919L419.006,349.087L415.979,352.887L414.923,352.299L413.149,353.15L411.03,352.331L411.116,351.167L409.101,349.496L407.204,350.943L403.57,349.791L401.348,349.84L395.777,351.907L393.646,354.017L390.783,355.694L388.185,355.931L387.432,357.109L384.623,358.263L384.248,359.635L381.557,364.361L381.575,367.319L382.301,369.221L381.459,371.523L379.642,374.479L378.306,377.714L375.757,386.853L375.78,392.136L377.169,397.249L379.456,401.102L379.765,403.822L381.361,406.866L384.116,407.146L385.658,408.107L386.513,409.861L388.091,409.756L391.048,408.54L393.996,408.343L394.864,407.602L398.161,407.066L398.732,408.334L401.151,407.538L401.054,406.111L404.023,403.778L404.505,401.825L405.456,400.884L406.054,397.552L406.984,395.208L409.519,393.837L413.728,393.116L417.14,392.071L422.674,393.077L422.081,395.853L418.865,399.9L418.671,402.582L416.401,408.46L414.714,410.137L413.612,412.78L412.812,417.826L410.901,419.815L409.815,421.657L413.058,422.635L415.433,421.559L418.473,422.319L420.904,422.212L423.548,421.078L424.808,421.611L427.1,421.144L430.137,422.008L432.013,425.116L433.744,425.016L434.545,426.289L433.796,427.549L434.081,429.658L432.923,431.43L431.919,434.917L431.763,439.602L430.419,442.078L430.82,443.569L429.729,445.333L431.271,449.631L433.96,453.734L435.686,454.978L436.123,457.017L439.987,458.313L442.307,457.762L445.556,456.1L448.111,454.102L452.804,455.089L454.62,455.965L457.72,459.053L459.757,461.865L459.738,459.141L462.548,457.241L463.254,455.814L465.506,454.863L465.595,451.019L466.726,448.883L469.554,446.315L471.238,446.934L473.105,445.123L476.386,445.354L479.147,443.206L481.184,442.297L481.907,440.753L483.852,439.561L485.818,439.998L486.265,441.487L484.599,443.174L482.888,443.645L482.469,444.743L483.78,448.645L483.4,449.746L481.229,452.982L482.652,455.453L482.907,456.809L484.645,456.535L485.645,455.389L485.891,453.546L484.577,450.672L484.039,448.019L484.43,447.063L490.033,444.956L489.968,442.313L491.318,440.808L492.02,441.748L492.725,444.405L496.262,444.654L498.072,446.049L498.619,449.098L500.194,449.599L504.139,448.886L507.428,448.773L509.07,450.703L512.216,451.671L513.458,451.527L517.938,448.611L519.598,448.716L523.142,448.168L522.429,449.878L523.815,451.124L524.576,453.148L525.516,452.11L527.039,452.99L528.17,452.817L529.015,453.921L531.24,455.325L530.022,456.692L528.76,460.219L531.028,459.28L533.078,459.095L534.651,459.589L538.017,461.947L540.461,464.67L541.019,467.284L543.188,468.582L547.563,472.665L552.111,473.679L552.627,472.825L557.045,472.688L561.399,473.748L563.116,474.874L565.565,475.587L568.215,478.073L570.92,481.743L571.836,481.305L572.89,482.438L573.571,486.615L575.254,492.537L576.132,494.088L578.357,494.96L578.603,497.518L576.836,499.201L574.509,502.613L572.434,503.937L570.574,507.422L569.504,511.663L572.384,509.795L574.071,509.238L575.102,512.563L576.387,513.869L578.176,512.923L579.424,513.41L581.221,512.41L582.658,512.915L583.898,511.154L585.073,511.323L585.046,509.393L586.527,507.295L589.714,506.724L592.325,507.511L593.191,508.493L594.963,508.806L597.525,510.434L600.055,511.044L601.954,512.48L603.509,516.543L605.181,516.79L609.604,516.183L612.674,517.864L614.332,517.631L616.822,518.606L620.566,517.882L622.835,518.222L629.499,522.626L631.427,525.193L635.361,528.775L637.968,529.727L640.678,529.506L642.596,529.892L644.023,532.142L645.194,536.398L646.092,541.005L646.038,544.523L644.723,549.46L643.951,551.005L639.453,557.463L637.121,559.197L635.141,562.683L634.028,565.79L631.742,569.628L629.31,569.309L629.177,571.188L628.151,573.464L628.899,575.746L628.528,578.966L629.615,585.208L628.78,589.848L628.539,592.7L628.919,594.706L627.544,596.185L626.634,599.54L627.011,602.839L625.846,605.237L624.407,609.515L622.813,611.257L621.91,614.359L622.323,616.502L621.8,617.352L619.357,618.519L618.27,619.92L618.151,621.817L614.186,621.921L611.728,622.33L610.224,621.627L606.943,622.378L606.935,623.826L605.724,624.065L603.819,625.639L601.493,626.211L597.83,628.491L593.847,632.434L591.393,636.673L591.308,641.268L592.116,643.824L592.339,648.38L591.871,650.971L590.036,652.503L588.316,655.054L587.372,657.322L586.649,660.56L582.96,660.241L582.13,663.808L580.206,665.524L579.63,668.123L580.116,669.585L579.411,670.994L578.627,674.608L575.898,677.928L574.845,681.041L573.476,682.543L570.622,683.897L567.26,683.084L565.511,683.769L562.22,682.572L560.704,681.413L557.964,681.541L555.072,678.618L554.882,680.604L556.242,682.609L560.795,685.22L561.684,686.86L561.062,687.968L561.821,690.159L564.441,691.617L564.941,693.811L562.786,698.421L562.491,700.179L560.225,701.984L553.831,704.055L548.702,704.853L544.688,704.471L543.823,705.664L545.238,706.813L544.858,709.495L545.544,714.605L543.494,715.727L540.219,715.934L535.407,714.211L534.342,714.553L535.643,718.071L535.973,720.135L539.141,722.508L542.453,722.369L542.552,724.406L540.848,724.694L539.702,723.216L538.33,723.007L537.089,724.17L539.875,725.703L537.935,726.899L537.166,728.615L537.893,730.746L537.965,732.928L537.062,733.865L537.563,735.623L535.295,735.404L532.689,736.889L531.233,740.501L531.744,742.397L535.818,745.732L539.029,746.175L540.419,747.441L540.995,750.439L539.286,752.453L537.197,753.884L535.583,756.98L536.149,760.036L532.475,762.641L532.25,765.461L534.161,768.855L537.731,772.163L534.305,771.663L533.442,772.727L529.302,774.433L530.306,779.382L529.343,779.891L525.556,778.664L526.163,776.967L527.575,776.093L527.023,774.412L523.796,776.815L521.506,776.761L516.734,773.797L516.697,771.803L517.568,770.851L515.361,769.588L514.859,767.348L510.831,766.018L509.071,764.125L510.801,760.611L508.439,753.724L506.975,752.113L505.725,749.239L506.844,746.622L506.535,745.573L499.978,743.736L502.168,741.46L501.151,740.02L504.607,739.474L504.545,737.702L506.597,738.037L506.578,735.472L508.713,734.235L508.573,732.721L505.761,731.359L506.057,728.623L505.38,727.723L505.697,725.646L505.019,721.831L505.735,720.192L504.601,718.546L503.037,717.955L501.324,719.251L499.758,717.819L498.574,715.773L498.388,710.455L499.064,708.947L499.086,706.043L496.729,701.627L496.6,699.946L495.359,698.183L494.982,695.552L496.557,695.44L496.389,692.97L497.049,691.432L497.161,687.273L498.279,684.742L498.18,679.927L499.052,677.273L498.136,674.387L498.913,672.132L497.741,667.711L496.539,664.413L495.702,660.066L496.67,659.095L496.575,656.538L495.052,652.79L495.991,649.947L496.003,646.577L496.597,639.332L495.877,636.508L496.564,633.339L495.612,630.603L495.358,626.138L494.522,622.385L495.384,621.307L495.552,614.293L494.594,610.323L494.254,605.563L493.388,602.789L492.529,598.29L487.874,594.596L486.814,592.59L484.124,591.084L482.411,589.562L480.932,589.081L476.172,586.697L474.637,585.455L470.185,582.871L468.052,580.225L466.166,578.856L464.374,576.275L464.567,573.088L461.228,567.073L459.7,565.586L459.25,563.541L457.287,561.605L456.671,559.279L454.431,555.427L451.43,547.846L450.211,545.75L448.494,543.821L446.599,539.863L444.96,537.717L441.768,535.825L440.061,534.077L441.348,533.131L440.214,529.369L439.142,527.525L439.327,525.739L441.402,522.697L444.775,520.108L446.032,516.77L444.262,516.507L442.834,517.01L440.52,514.762L441.367,514.184L441.19,510.615L440.728,509.05L442.27,507.863L442.579,505.394L444.129,503.531L444.613,501.389L444.339,499.464L445.889,498.459L449.639,497.294L450.145,493.99L450.958,491.633L453.182,490.699L455.216,488.689L457.188,485.053L457.559,483.63L456.426,482.609L457.145,479.205L456.744,475.633L457.486,473.759L456.584,471.717L457.136,470.031ZM426.651,141.43L430.158,141.142L433.654,139.918L437.505,141.061L440.793,141.281L442.578,139.928L445.146,141.962L444.157,145.129L447.625,144.519L447.217,143.44L448.765,139.416L451.229,138.485L454.783,139.039L456.859,140.747L456.186,142.318L455.823,146.479L454.008,147.889L454.935,149.352L462.533,152.512L461.676,153.874L457.717,153.323L454.535,154.527L457.213,155.213L456.411,156.883L450.284,157.825L445.913,156.632L442.39,156.28L441.554,155.071L437.479,156.978L431.58,158.038L422.831,158.992L416.501,159.203L416.038,157.694L417.021,156.136L412.327,155.833L408.336,155.136L407.722,153.487L408.693,152.206L417.957,151.289L424.176,151.666L426.699,150.71L422.089,149.661L414.28,150.109L409.124,149.923L407.829,148.813L410.326,147.654L408.819,145.401L409.695,144.134L413.143,142.96L413.644,141.817L417.456,140.568L428.96,138.302L428.785,140.442ZM458.097,140.08L454.343,137.856L456.089,136.959L459.89,136.669L462.159,137.297L461.485,138.381ZM542.437,136.935L547.523,137.083L550.594,137.774L552.526,139.521L551.522,140.611L547.035,140.292L541.254,140.883L540.242,138.92L538.572,138.269L539.388,136.854ZM513.803,148.151L519.521,147.934L521.259,145.637L518.232,144.129L521.292,142.29L521.27,140.805L524.855,138.457L533.564,136.818L537.36,137.213L538.702,140.927L535.139,143.183L543.862,142.233L546.874,141.014L550.243,141.139L554.305,142.04L554.672,143.647L557.684,145.262L564.051,146.128L568.15,148.999L572.749,150.382L575.037,152.491L575.764,155.741L571.655,156.818L569.671,158.954L572.621,159.941L574.627,161.558L580.131,162.202L581.005,164.261L584.11,164.759L585.759,166.224L587.386,165.719L589.005,167.367L585.484,170.11L582.433,171.885L579.797,172.32L578.872,174.235L574.551,174.007L573.128,171.328L573.937,170.23L570.409,169.016L567.474,170.114L563.556,170.544L565.957,172.592L566.728,174.357L571.391,176.438L571.136,179.268L572.344,179.181L571.496,182.672L569.527,182.674L567.799,185.192L565.798,183.879L559.941,183.453L563.397,187.092L562.668,189.1L558.962,187.791L553.58,186.619L552.601,185.055L550.174,184.969L547.119,183.687L542.271,177.382L539.052,176.263L536.635,177.232L530.332,178.207L526.858,177.639L526.083,176.501L527.096,175.045L529.872,174.04L530.959,172.726L535.676,173.745L544.282,172.322L542.557,169.646L548.696,167.013L552.641,164.674L551.087,160.201L547.603,158.267L547.323,157.063L541.62,158.334L545.166,155.598L540.35,153.308L540.698,151.901L534.732,153.095L529.212,152.245L525.094,153.327L522.319,152.622L519.64,152.801L511.883,152.011L511.562,150.906L506.896,151.551L504.482,150.382L504.283,148.046L508.36,148.543L509.624,147.441L505.851,147.102L503.897,146.23L504.608,144.289L510.321,139.57L517.204,136.846L520.592,136.385L525.867,136.493L518.329,140.401L517.233,145.045L519.442,146.823ZM478.269,135.922L480.292,136.81L485.88,136.164L487.049,137.08L483.268,138.667L483.648,141.384L482.601,144.777L474.196,147.041L472.732,146.764L470.522,143.427L467.345,142.741L465.647,140.77L469.127,139.622L469.97,140.924L472.881,140.811L474.664,139.356L471.892,138.06L474.861,136.505ZM500.225,134.96L503.416,135.812L509.126,136.242L500.103,140.892L496.26,140.691L491.66,143.951L487.861,143.956L489.004,140.775L491.562,136.96L494.77,135.528ZM415.403,135.162L422.944,134.742L427.059,137.278L426.588,138.027L412.3,141.185L409.603,142.548L406.506,143.173L402.356,146.173L392.316,147.805L391.846,145.442L387.904,143.49L392.251,141.589L394.707,139.541L400.873,136.658L400.351,134.263L411.931,133.517ZM743.374,129.941L744.444,131.624L740.992,131.589L740.602,130.298ZM502.484,131.386L501.373,132.856L497.541,133.056L493.402,131.92L493.037,131.193L497.275,129.451L501.423,129.189ZM477.813,127.209L473.873,128.502L472.093,126.826L476.495,126.311ZM494.002,125.577L491.84,129.356L489.168,131.12L481.05,131.564L480.879,129.945L475.446,129.512L480.618,127.587L479.418,126.417L486.063,125.111ZM458.96,127.288L462.213,128.041L465.208,127.314L466.958,128.576L463.766,130.816L458.71,131.892L453.86,131.331L445.561,133.071L439.683,133.98L436.542,133.927L436.047,131.237L431.515,131.724L426.748,130.491L433.077,127.259L437.77,125.809L442.177,125.754L445.899,126.749L448.596,129.371L454.671,129.54L455.832,128.764L454.357,125.891L458.586,124.532L461.227,124.62ZM505.283,123.75L510.058,125.153L514.727,124.845L515.367,125.81L519.877,126.35L516.066,127.34L520.898,129.518L524.205,129.091L527.631,129.558L535.309,128.281L540.96,128.233L547.805,129.771L546.765,132.084L543.51,133.305L538.324,133.735L533.105,133.288L530.026,133.606L517.179,133.663L512.787,133.44L506.756,132.439L507.095,130.04L509.319,128.171L508.079,126.141L500.929,126.498L498.105,124.757L498.644,123.698ZM440.599,121.785L440.99,122.545L436.462,125.121L424.994,126.668L421.787,128.121L416.218,127.416L414.304,126.644L418.852,125.793L430.378,122.392L438.317,121.52ZM505.406,120.501L511.978,120.702L510.413,121.731L502.791,121.695ZM460.375,119.303L461.906,119.864L458.874,121.537L452.718,122.239L449.702,121.515L451.063,120.071ZM464.29,117.115L464.593,118.412L453.348,118.139L463.184,116.821ZM505.685,117.597L509.16,118.378L507.322,119.728L500.803,120.447L499.123,118.059L500.62,116.64ZM485.984,114.596L495.533,117.476L494.258,120.251L490.001,120.116L489.603,118.957L485.172,118.281L479.895,118.668L484.281,116.773L479.159,115.785L480.77,114.702ZM528.186,108.017L530.006,110.092L538.086,110.881L537.25,113.452L541.778,113.938L541.371,115.13L535.111,116.286L527.38,118.962L521.631,119.125L516.092,118.211L511.851,114.826L512.587,113.487L509.948,111.73L514.413,110.795L514.002,109.746L517.775,108.659ZM600.158,101.927L616.612,102.598L621.91,103.709L618.719,105.104L610.848,106.142L606.938,107.674L590.63,110.79L585.122,113.089L578.694,113.97L572.454,114.341L568.238,115.881L573.002,116.943L566.633,119.662L559.836,119.907L558.441,121.558L553.503,122.965L556.281,123.673L555.181,125.279L546.54,126.849L545.971,125.51L537.285,125.747L532.907,126.338L519.568,125.593L520.834,124.268L525.137,123.178L530.182,122.801L528.013,120.782L531.886,120.115L531.142,119.022L535.343,116.753L543.588,115.999L543.29,113.637L540.048,112.784L541.998,111.07L549.436,111.394L561.405,110.323L552.021,109.666L545.696,110.332L535.905,109.344L534.207,108.062L538.447,106.794L535.29,105.659L547.913,104.627L553.808,103.768L559.928,104.43L562.429,103.274L570.131,102.199L576.875,102.375L582.452,101.857L599.299,101.641ZM712.903,100.173L726.097,101.102L729.866,102.393L738.105,103.295L726.927,105.245L738.139,105.02L738.359,106.272L749.687,107.173L754.881,105.805L764.646,106.428L766.489,107.195L757.318,109.492L750.469,110.164L749.896,111.505L742.259,111.291L739.774,112.937L742.262,113.377L742.506,115.338L736.32,117.582L736.115,120.039L737.667,122.145L743.446,122.743L742.628,124.46L735.105,124.031L731.945,125.27L732.701,126.382L737.257,126.679L738.818,128.528L738.734,130.66L735.425,130.318L738.89,133.723L738.303,134.527L732.53,135.241L734.806,136.326L734.109,137.801L728.525,138.731L728.756,140.202L727.349,143.566L721.813,141.966L719.81,142.224L727.966,145.394L728.681,146.289L728.794,150.368L722.725,150.692L721.256,150.244L719.759,147.707L715.834,146.069L715.268,147.548L711.841,148.545L708.657,148.362L705.368,150.581L707.057,150.902L711.346,150.586L712.242,151.683L715.306,151.114L722.998,152.144L723.117,153.146L711.255,158.29L701.041,160.061L698.948,160.004L694.938,161.106L691.307,159.682L690.386,161.716L687.078,163.024L682.922,167.024L680.789,168.321L674.098,171.028L669.055,172.096L661.328,172.262L662.41,173.232L658.141,175.153L659.286,177.126L657.342,178.709L657.101,180.561L650.03,185.866L648.926,187.785L649.329,189.152L647.838,190.636L645.841,194.218L643.728,196.25L642.647,198.148L639.928,198.164L635.489,196.859L635.122,195.379L633.591,194.927L634.338,192.681L630.853,193.99L627.534,193.931L624.076,191.842L623.186,190.39L623.138,187.415L620.742,186.306L621.186,184.669L618.366,180.94L618.82,179.743L617.328,177.417L617.879,174.071L615.074,168.417L617.792,166.574L615.376,165.201L617.683,163.255L617.564,162.095L620.653,158.691L626.926,158.125L631.325,152.917L625.647,152.384L620.368,150.818L620.538,149.105L626.169,149.678L628.7,150.742L630.867,148.455L624.846,146.995L624.212,145.6L619.741,146.764L617.078,145.969L618.976,143.604L618.646,142.155L622.209,140.393L619.42,139.827L621.085,138.762L619.007,137.53L620.189,136.131L618.288,134.794L620.31,133.529L614.474,130.03L615.353,128.804L607.34,126.835L601.193,126.2L589.698,127.68L585.755,127.286L582.532,126.229L583.763,124.824L579.393,124.102L579.939,122.898L585.852,122.821L588.921,122.101L594.177,122.049L594.125,120.929L585.361,121.76L576.518,118.955L578.641,117.774L589.972,116.441L595.241,115.47L599.886,115.412L605.624,112.219L599.652,111.946L600.088,110.735L614.096,107.943L618.517,108.196L620.784,106.097L628.959,104.938L641.24,104.088L646.847,104.185L651.378,105.598L655.059,105.341L658.424,103.911L667.666,105.821L671.791,104.033L666.499,102.157L676.572,101.209L692.381,100.501ZM1467.348,744.162L1467.118,746.056L1464.432,746.421ZM1392.703,713.737L1394.474,713.986L1397.638,716.005L1400.85,715.126L1402.722,715.174L1405.427,714.036L1406.295,714.894L1403.29,720.493L1400.245,723.218L1398.789,726.203L1397.233,724.86L1392.995,728.526L1390.13,727.32L1389.364,725.027L1389.555,723.073L1390.896,720.389L1390.664,717.313L1391.306,715.067ZM1506.741,716.119L1507.084,716.624L1510.106,715.108L1512.315,715.265L1509.878,717.757L1509.884,718.962L1504.304,722.939L1501.45,725.281L1498.459,726.722L1497.107,729.947L1495.163,729.632L1490.311,731.192L1485.839,735.783L1481.899,739.054L1474.739,743.44L1469.362,743.712L1469.468,742.483L1468.054,741.628L1464.253,741.653L1466.555,738.341L1470.405,735.398L1474.044,733.526L1478.118,730.916L1480.192,730.46L1484.991,728.417L1489.203,725.95L1491.58,725.03L1495.2,722.669L1498.324,719.239L1501.593,717.446L1503.712,714.894L1507.119,712.694L1507.499,714.387ZM1374.888,688.062L1373.535,689.801L1370.735,689.586L1370.868,688.118L1374.11,687.308ZM1525.954,683.723L1528.14,684.381L1529.537,685.52L1529.554,687.255L1528.388,688.246L1528.607,691.012L1526.767,693.758L1528.727,694.544L1530.88,691.872L1531.225,694.361L1530.177,697.907L1532.191,699.167L1534.23,699.689L1538.323,697.441L1540.096,698.149L1536.378,702.576L1534.646,703.459L1533.297,705.622L1531.192,705.305L1528.43,706.781L1528.111,708.351L1525.474,710.843L1518.542,716.26L1514.493,718.296L1514.54,717.307L1512.799,716.649L1517.109,713.225L1518.547,711.518L1518.608,709.787L1515.572,707.509L1516.336,705.606L1520.519,703.781L1522.689,700.9L1524.819,698.728L1525.038,696.894L1526.72,694.287L1525.453,694.278L1526.729,691.744L1525.412,690.324L1524.614,685.307ZM1516.268,607.302L1517.711,608.03L1520.312,610.548L1521.632,613.124L1523.862,615.039L1525.943,617.382L1524.763,618.861L1522.472,616.69L1519.414,614.461L1517.015,610.858L1516.272,609.054ZM1582.199,592.991L1583.197,594.435L1582.957,596.653L1579.127,597.552L1577.066,596.634L1577.099,595.529L1579.179,593.452ZM1591.253,586.778L1589.812,588.212L1590.229,589.75L1585.99,590.554L1585.441,589.167L1589.189,587.197ZM1536.042,586.402L1537.501,588.228L1535.679,588.773ZM1534.476,579.852L1534.415,581.559L1535.853,581.444L1535.777,583.254L1533.972,584.023L1533.364,582.842L1533.491,579.973ZM1403.12,574.577L1403.521,577.099L1401.232,576.768L1401.794,574.89ZM1377.906,562.06L1380.891,561.1L1381.934,562.372L1379.026,564.895L1377.792,563.948ZM1433.027,565.041L1432.474,566.84L1433.51,568.575L1433.703,572.717L1433.293,574.251L1433.698,577.388L1434.505,577.974L1436.957,576.784L1437.502,578.128L1439.918,580.452L1439.356,583.205L1439.621,586.198L1439.136,588.004L1440.548,591.432L1440.93,594.351L1439.82,597.646L1440.821,599.095L1440.331,600.581L1440.86,601.809L1443.36,603.433L1444.599,603.358L1446.172,605.895L1449.326,608.069L1448.625,609.572L1450.181,612.389L1450.538,619.196L1452.547,617.768L1454.005,619.81L1454.946,619.897L1453.99,624.462L1455.99,627.333L1457.436,628.307L1457.791,630.362L1458.874,631.422L1459.077,633.493L1459.815,634.685L1459.415,636.013L1460.002,637.441L1459.072,639.201L1457.648,643.814L1457.698,649.236L1456.659,652.418L1454.725,654.677L1453.218,657.796L1450.84,661.273L1448.673,665.788L1445.752,668.953L1444.53,670.99L1442.546,672.638L1440.749,673.383L1438.378,675.695L1435.788,679.224L1434.04,680.609L1430.874,685.164L1427.256,688.553L1423.828,693.781L1422.015,697.307L1418.702,698.717L1414.34,698.865L1409.779,700.865L1406.43,703.154L1402.023,704.382L1402.023,703.173L1398.515,700.819L1395.562,702.119L1392.349,703.966L1389.438,702.064L1386.212,701.135L1384.746,701.611L1383.73,700.133L1382.257,699.884L1380.606,695.848L1382.252,692.835L1382.24,689.914L1381.013,687.808L1377.618,687.413L1380.256,684.37L1380.722,683.023L1380.291,679.95L1376.572,684.985L1372.984,685.485L1374.22,683.81L1375.8,683.799L1377.807,679.906L1380.844,676.892L1381.274,674.934L1379.56,674.897L1377.818,677.154L1373.613,679.226L1368.447,683.931L1368.631,678.59L1368.124,675.596L1366.382,674.75L1366.342,672.594L1367.292,671.557L1365.099,669.663L1363.664,669.668L1362.166,668.488L1359.775,668.753L1358.258,667.143L1356.174,666.103L1354.451,666.665L1351.728,666.536L1346.496,667.175L1342.126,669.061L1338.61,670.084L1332.623,670.254L1326.686,673.289L1323.573,674.564L1320.284,678.225L1318.143,679.01L1316.513,678.507L1313.697,679.029L1313.532,678.422L1310.864,678.174L1306.47,678.879L1304.077,678.942L1301.674,680.976L1299.143,681.555L1295.04,684.175L1292.518,684.751L1288.263,684.182L1286.386,683.186L1285.771,681.794L1283.234,680.395L1285.013,677.225L1286.608,676.646L1287.888,674.893L1290.412,667.134L1289.595,662.541L1289.724,659.475L1290.738,655.417L1290.139,652.507L1290.218,650.802L1289.269,648.408L1289.683,644.605L1288.805,640.518L1290.263,639.345L1289.425,638.136L1289.807,635.684L1291.877,639.125L1292.43,636.857L1291.17,632.328L1290.723,629.523L1292.127,625.885L1293.37,624.255L1294.099,621.648L1293.916,620.216L1295.864,616.601L1296.345,618.587L1297.254,618.682L1298.66,616.617L1299.993,615.549L1302.849,614.286L1305.741,611.9L1309.16,609.951L1312.139,610.3L1315.949,608.512L1318.472,607.924L1320.283,606.547L1322.339,606.77L1325.133,606.102L1328.357,604.84L1331.596,601.954L1333.688,598.701L1335.929,596.073L1336.183,592.691L1339.099,589.974L1340.497,588.162L1340.884,590.364L1342.014,593.578L1343.671,590.387L1342.733,588.441L1347.825,586.493L1347.261,584.658L1349.751,581.577L1351.7,580.462L1351.595,579.275L1354.056,577.589L1355.471,578.139L1356.155,576.177L1358.138,576.417L1359.916,574.267L1362.973,576.593L1364.864,579.465L1370.263,580.402L1371.675,579.66L1370.336,577.613L1372.11,575.485L1372.982,573.386L1375.034,571.99L1374.876,570.211L1376.085,568.822L1378.396,567.975L1379.273,566.252L1380.948,566.703L1385.098,566.508L1386.119,565.842L1386.949,562.726L1388.493,562.454L1389.042,563.758L1392.135,564.41L1393.489,565.316L1395.683,565.195L1397.678,566.417L1400.41,564.797L1401.353,567.453L1403.698,565.057L1405.226,567.078L1403.105,569.318L1403.198,570.449L1400.031,571.998L1399.917,574.609L1399.179,576.378L1396.58,579.499L1396.93,580.747L1399.549,582.828L1399.781,583.689L1401.658,585.361L1402.629,585.279L1405.386,587.11L1407.301,589.615L1410.481,590.55L1411.101,592.767L1414.17,594.699L1416.335,594.295L1417.95,593.211L1420.426,589.243L1421.831,586.267L1422.438,583.87L1423.7,581.038L1423.759,578.013L1424.341,576.376L1424.096,574.544L1425.287,571.767L1426.011,567.808L1427.646,564.739L1429.243,559.846L1430.67,558.613L1431.963,561.704L1431.768,564.355ZM1516.089,556.964L1517.769,557.307L1517.585,559.217L1515.179,557.891ZM1508.118,551.223L1508.994,552.05L1510.702,551.988L1511.796,552.851L1511.682,554.602L1508.248,553.895L1507.387,552.558ZM1513.102,546.285L1514.036,547.821L1514.77,551.451L1513.164,550.626L1512.365,546.589ZM1499.903,545.917L1498.059,546.086L1498.577,544.589ZM1509.123,547.419L1505.245,544.879L1503.852,543.428L1504.54,542.633L1506.051,544.173L1509.078,546.353ZM1492.644,537.909L1491.51,538.814L1489.906,538.087L1489.449,535.955L1487.716,534.221L1487.691,532.032L1488.828,532.005L1490.69,535.119L1492.173,536.33ZM1475.527,525.606L1477.692,525.832L1477.556,527.842L1475.756,529.245L1476.217,531.063L1474.912,532.133L1473.361,532.069L1471.96,533.961L1468.271,535.795L1464.82,535.868L1463.703,534.774L1462.547,535.03L1459.459,533.163L1459.285,532.03L1462.211,531.719L1463.275,532.174L1467.965,531.982L1470.909,531.406L1472.719,529.021L1474.273,528.626L1473.897,525.858ZM1427.244,516.927L1428.184,517.018L1432.669,519.364L1435.708,520.584L1438.37,521.152L1440.548,522.966L1442.59,523.181L1445.175,525.876L1446.262,526.063L1448.062,528.315L1448.242,531.651L1450.64,532.398L1453.336,533.956L1454.844,534.118L1456.596,535.994L1456.652,537.783L1453.405,538.087L1452.616,539.154L1453.44,541.467L1455.577,544.031L1457.252,545.201L1457.553,547.524L1458.386,548.246L1458.776,550.084L1461.709,550.185L1461.321,551.913L1463.556,553.969L1463.931,555.036L1467.285,556.294L1466.221,558.25L1464.2,557.943L1463.183,556.788L1457.223,555.924L1454.573,555.329L1450.433,549.949L1447.983,545.062L1443.415,543.649L1441.466,542.441L1437.195,545.7L1434.841,546.271L1435.911,548.797L1435.711,549.618L1432.329,551.506L1430.565,550.692L1425.681,550.957L1423.787,549.028L1420.931,545.19L1418.456,545.643L1416.129,545.416L1417.408,542.543L1416.042,540.816L1415.52,539.193L1416.718,538.791L1415.023,536.14L1414.505,533.543L1413.641,531.621L1409.484,528.836L1407.423,528.293L1404.659,526.813L1401.198,526.399L1398.99,524.487L1396.686,523.035L1395.91,523.144L1394.575,520.81L1392.636,524.4L1391.384,524.567L1390.512,522.555L1390.578,520.451L1388.842,518.807L1392.668,516.041L1394.51,516.605L1395.848,515.801L1395.957,514.315L1391.675,515.191L1388.766,515.036L1387.53,513.739L1387.159,511.524L1384.339,510.67L1384.21,507.902L1386.65,507.121L1388.1,505.835L1390.311,505.346L1394.068,507.235L1396.3,507.329L1397.531,510.512L1396.818,512.355L1396.988,514.794L1400.733,520.648L1402.728,520.709L1406.218,516.79L1406.911,515.196L1408.936,514.805L1410.224,512.972L1413.293,511.131L1417.015,512.714L1422.017,515.582L1425.706,516.082ZM1471.785,517.331L1476.913,521.045L1480.908,525.378L1480.344,527.509L1478.87,526.645L1478.64,524.053L1476.95,521.536L1475.986,521.267L1471.649,517.802ZM547.454,785.882L545.13,786.581L543.277,784.98L546.615,785.215ZM536.479,784.752L540.435,785.409L543.182,786.559L543.61,787.848L539.264,787.474L536.594,786.039ZM522.269,777.737L525.753,779.52L521.82,780.186L519.42,777.658ZM534.113,773.046L536.66,773.489L539.304,775.49L541.31,778.329L544.849,780.703L553.619,784.73L549.479,785.48L547.713,784.959L542.232,784.433L539.562,784.886L536.787,783.927L534.034,784.399L530.123,783.478L531.672,782.107L530.98,779.895L533.123,777.617L531.341,776.578ZM566.949,767.684L568.24,768.088L571.538,767.822L569.792,770.499ZM572.932,767.042L574.72,768.226L576.467,767.609L577.451,769.215L574.512,770.335L573.368,771.503L571.079,770.282L572.708,769.099ZM508.057,754.809L509.827,759.2L509.909,760.693L506.814,759.978L505.953,756.165L506.845,754.271ZM507.065,752.869L506.204,753.877L504.252,751.447L506.131,751.368ZM508.045,734.122L505.741,733.761L506.237,732.204L507.887,732.829ZM504.206,732.509L503.36,733.017L505.332,736.189L504.158,737.234L501.044,733.795L501.245,732.908ZM502.506,727.166L500.037,726.747L500.066,724.783L499.224,719.241L501.436,719.757L502.469,722.675L501.347,723.286L503.278,725.077ZM570.875,510.405L570.682,507.9L571.267,506.842L572.981,506.929L572.473,508.756ZM577.036,504.099L579.791,504.68L582.066,504.342L585.345,505.314L584.64,507.621L582.924,511.126L580.002,512.309L575.915,512.698L574.776,509.882L574.713,506.819L575.269,504.903ZM394.443,503.031L395.019,504.648L396.704,507.37L396.239,508.338L394.169,508.733L393.777,507.614L395.166,506.705L394.162,504.976ZM962.626,108.258L972.205,109.39L966.658,109.937L961.363,109.315ZM985.413,109.241L983.115,110.715L977.646,110.348L977.796,109.305ZM863.15,111.319L867.669,110.774L881.121,111.643L882.405,112.561L878.213,114.408L873.27,115.182L863.731,114.427L856.995,113.093L855.63,112.006ZM851.051,112.56L856.696,113.786L858.535,115.319L862.717,115.424L865.86,116.882L860.995,117.326L857.331,119.603L857.01,121.544L855.213,122.024L852.83,125.247L845.183,122.667L846.669,120.9L842.664,119.592L836.489,116.972L833.268,112.962L838.971,113.037L841.024,114.12L848.267,113.381ZM866.646,117.428L871.775,119.732L875.315,120.09L874.433,121.641L868.897,121.628L867.183,120.023L862.51,117.875ZM1013.638,126.605L1009.553,127.621L995.41,130.315L992.856,132.425L988.045,133.643L988.461,135.167L985.13,138.328L978.63,137.964L976.524,138.393L974.054,136.667L976.548,135.866L978.348,133.115L980.659,131.77L981.718,130.037L986.47,128.138L992.776,127.075L998.562,126.609L1006.798,125.112L1011.103,123.556L1014.246,123.847L1016.407,125.272ZM979.907,138.571L983.7,139.018L983.324,140.743L981.53,142.107L982.275,144.346L985.772,146.856L989.338,148.646L990.776,150.097L982.149,149.707L978.998,149.129L976.584,146.02L971.548,146.235L969.839,143.771L972.866,142.8L974.851,138.634ZM950.231,318.018L949.664,315.986L951.029,314.182L950.303,312.882L948.36,314.503L944.359,313.533L940.918,316.646L937.245,317.401L935.428,316.637L933.765,314.821L930.843,313.448L927.866,313.116L927.474,315.981L924.239,316.777L921.85,315.534L921.272,314.003L918.915,313.435L917.357,312.268L914.101,312.321L912.674,308.874L913.18,307.373L910.806,306.24L911.463,305.341L910.905,303.606L911.853,302.694L910.296,300.608L910.765,299.215L907.875,299.706L907.91,297.02L909.995,294.912L912.208,294.628L913.057,295.325L916.347,294.897L920.533,292.812L919.123,291.796L920.132,290.667L928.087,291.282L928.793,290.194L932.004,288.095L936.198,286.62L941.803,286.931L942.773,286.386L944.181,288.1L947.28,288.336L949.433,290.488L957.308,292.222L961.446,291.289L964.979,292.033L969.315,289.662L970.307,286.863L968.643,283.34L965.679,281.275L964.369,280.98L961.461,279.187L956.162,275.034L953.907,274.365L952.367,272.946L950.572,272.761L948.265,269.947L951.021,269.503L951.668,266.34L952.591,265.869L951.309,263.224L956.161,260.765L952.9,260.412L949.254,260.922L948.574,261.716L944.57,263.02L942.801,263.192L939.241,265.388L940.292,267.861L942.716,269.839L945.059,269.118L946.721,269.42L946.242,271.084L944.191,271.388L942.903,270.811L941.204,272.418L939.712,272.396L936.766,274.528L934.809,273.684L934.854,270.919L930.455,269.368L934.697,266.616L932.693,265.46L929.868,265.925L927.99,265.029L927.441,262.767L922.867,263.558L921.013,267.023L918.665,267.956L919.375,269.675L919.001,272.211L917.012,272.648L915.664,274.996L915.782,279.042L913.401,280.65L913.477,282.877L911.99,284.316L914.234,286.468L916.025,289.443L919.05,290.656L918.056,291.967L915.517,291.421L912.826,291.972L911.983,293.439L907.305,293.828L906.173,292.634L903.032,291.862L901.824,292.566L900.127,292.282L898.224,294.172L897.485,295.818L896.045,295.856L893.132,294.423L893.168,296.778L894.675,298.875L895.109,301.954L894.411,303.139L896.442,303.855L899.548,305.847L900.144,308.76L898.056,307.208L896.477,307.473L896.586,310.699L894.919,310.392L896.434,313.583L894.498,313.558L892.214,312.273L891.537,313.778L890.128,312.005L889.915,309.63L888.013,307.68L888.983,306.249L890.675,305.572L894.837,307.359L896.135,306.885L893.099,305.003L889.221,305.606L887.715,305.279L886.173,303.103L886.111,302.068L884.026,300.427L881.924,296.744L879.979,295.506L879.745,289.657L880.169,287.8L878.518,286.975L877.223,285.435L872.688,282.633L868.761,279.597L864.795,278.25L861.312,275.194L859.983,271.005L858.029,269.681L856.494,272.252L855.068,270.868L854.514,268.972L852.528,268.183L849.558,269.154L850.677,271.58L849.636,272.827L850.355,275.361L851.6,276.527L855.229,278.685L857.273,283.184L860.921,286.443L862.186,287.05L865.418,287.02L865.768,289.603L870.332,291.516L873.945,293.602L876.302,296.429L874.684,297.294L873.698,295.528L869.806,294.616L868.355,297.69L868.697,298.824L870.9,300.153L871.262,302.122L868.808,303.58L868.839,305.154L866.949,307.562L865.574,307.576L866.387,303.592L867.301,303.352L866.42,300.292L864.881,297.02L861.769,295.74L860.895,293.536L858.142,292.721L856.528,290.626L853.896,290.583L851.976,289.427L847.747,285.239L845.787,283.973L843.841,281.925L840.95,276.398L837.842,274.875L835.72,274.352L833.052,276.913L829.463,278.237L826.754,280.736L825.237,281.229L822.351,280.432L820.929,279.332L819.53,279.694L816.85,278.573L813.674,280.613L812.853,282.032L813.708,286.995L808.995,290.36L804.717,291.516L803.421,292.744L801.99,295.33L799.156,299.436L799.656,301.789L801.331,303.352L798.925,305.019L797.826,306.481L797.093,309.424L794.998,309.527L793.04,311.219L791.721,313.574L782.34,313.877L781.045,314.97L778.968,315.396L777.043,317.451L775.327,316.612L773.525,312.655L771.923,311.418L769.392,311.553L767.957,312.392L764.802,311.796L763.949,310.197L763.695,304.623L761.421,303.498L761.93,300.37L762.896,299.32L764.072,296.046L765.154,291.682L764.388,286.173L765.213,285.307L763.129,281.717L764.655,279.893L766.015,279.88L767.186,278.642L769.468,277.7L771.202,278.565L777.641,278.628L782.236,279.476L785.952,278.949L788.2,279.703L791.059,279.925L794.509,278.723L795.499,273.652L796.247,267.331L795.939,264.773L793.399,263.746L792.5,261.107L788.027,257.8L783.486,257.155L782.261,255.835L783.218,254.42L781.948,253.557L787.822,252.049L789.918,253.572L790.892,253.013L794.854,253.048L794.302,250.241L793.253,247.838L795.586,247.856L796.047,249.314L799.86,249.77L801.586,248.938L801.229,247.742L805.354,246.271L806.535,244.8L806.627,242.587L807.907,241.341L809.97,240.965L814.355,239.047L817.723,234.827L818.748,231.72L819.73,231.678L820.162,234.438L821.827,233.422L821.049,230.963L823.627,229.437L826.499,229.27L828.244,228.096L830.998,228.049L833.044,228.704L834.352,227.342L834.418,223.918L833.321,222.687L832.932,219.651L831.073,218.772L830.979,213.922L832.562,211.503L836.012,210.924L837.436,209.259L839.604,209.891L838.886,213.857L841.016,214.331L839.13,215.816L838.713,217.492L836.585,219.29L836.903,221.566L839.205,224.548L842.285,225.657L843.837,226.81L846.474,225.72L848.142,224.264L849.879,224.538L853.243,227.256L855.676,228.142L856.417,226.451L861.895,225.125L863.2,223.843L865.782,222.99L869.745,222.461L871.247,224.441L874.063,224.659L875.316,223.887L875.943,222.058L880.521,221.991L880.425,219.473L879.567,217.741L879.044,212.881L881.066,209.307L884.037,208.577L888.559,212.175L891.143,210.481L890.469,208.291L890.934,205.579L888.123,205.547L886.982,204.136L886.583,201.596L889.644,200.29L893.657,199.507L902.53,200.565L904.27,198.683L906.651,197.811L904.516,196.051L904.356,194.949L900.16,195.633L899.305,195.287L893.701,196.249L886.913,197.972L883.462,197.45L882.494,196.127L878.212,195.017L877.717,193.286L878.225,190.383L876.727,188.538L875.799,185.616L879.345,181.875L882.6,179.782L885.797,176.966L886.574,175.671L889.275,174.727L888.837,172.609L885.963,171.359L882.819,171.038L875.701,172.929L875.91,174.202L874.583,175.636L876,177.582L873.837,179.911L868.08,182.792L866.234,184.36L864.246,184.661L863.084,189.691L862.133,190.456L862.99,194.528L865.599,195.047L867.953,196.621L869.715,198.951L865.96,201.241L867.54,202.004L864.622,203.189L861.858,205.198L862.003,211.71L860.381,215.769L855.859,216.062L853.857,217.649L854.445,219.121L850.669,219.998L847.666,216.178L848.595,213.87L846.775,212.486L843.964,208.607L842.02,205.003L841.557,202.151L839.447,200.683L837.848,202.476L835.807,202.775L830.654,206.572L826.389,207.147L821.513,204.775L821.891,200.851L819.297,201.451L819.872,199.49L819.168,198.591L819.515,195.142L818.79,194.498L818.21,189.829L820.294,187.054L823.17,185.669L826.493,185.711L825.439,184.077L829.295,183.464L830.244,181.431L834.819,181.021L834.791,179.923L840.246,175.196L842.983,173.962L843.238,172.208L845.514,170.182L845.756,167.855L851.03,163.589L851.041,162.217L855.173,160.495L856.955,158.625L859.369,157.864L861.576,156.305L862.043,154.917L867.763,153.144L871.427,153.118L872.033,151.885L876.184,151.02L877.587,152.199L881.723,149.612L882.285,148.329L886.087,148.963L891.955,147.943L897.154,148.931L903.837,151.453L899.627,152.74L906.108,153.985L907.631,152.84L911.043,153.715L909.423,154.899L913.994,155.634L921.449,156.151L928.343,158.334L938.382,162.118L940.528,162.64L942.389,166.577L940.552,168.27L936.66,169.676L933.648,169.98L923.297,168.497L920.691,167.535L912.245,166.176L916.64,168.831L919.72,169.692L921.333,170.876L920.491,172.985L922.295,174.834L922.962,176.762L925.883,177.588L928.805,179.296L932.812,180.159L934.798,179.191L934.06,177.852L931.254,177.45L928.48,175.461L929.37,173.992L933.635,175.319L940.111,176.686L941.45,174.779L939.347,173.191L939.12,172.074L941.725,170.433L944.25,169.715L946.297,167.944L953.188,169.215L953.963,167.264L952.716,165.361L950.76,164.673L951.289,161.395L949.943,158.962L956.296,159.265L959.901,162.042L956.062,162.445L954.43,163.684L958.878,166.457L961.346,166.58L964.538,165.603L964.329,163.213L967.543,162.561L973.291,159.836L978.718,158.771L982.298,157.005L984.127,160.375L986.07,160.174L990.468,158.523L994.305,158.94L999.574,156.97L1003.947,159.52L1006.412,157.045L1002.714,154.413L1005.062,153.282L1013.273,154.047L1025.019,157.216L1027.154,157.54L1030.364,159.117L1033.334,159.842L1034.224,157.203L1032.168,157.132L1029.28,154.895L1025.67,153.967L1024.541,152.578L1024.22,149.455L1021.826,148.76L1021.856,147.126L1025.462,145.419L1025.823,141.244L1027.29,140.289L1033.294,140.221L1038.086,141.154L1038.897,143.736L1037.773,145.994L1040.89,147.686L1042.866,150.665L1042.509,151.451L1045.383,156.636L1049.97,158.85L1050.207,161.971L1048.915,163.2L1047.125,166.869L1045.467,167.816L1041.176,166.491L1039.378,167.68L1043.828,168.736L1049.491,169.163L1050.544,167.76L1054.329,165.824L1054.366,163.965L1055.952,162.407L1053.18,159.525L1053.066,158.076L1058.898,157.082L1062.735,159.31L1063.105,157.412L1056.749,155.962L1053.082,156.591L1049.331,156.122L1047.448,153.908L1047.78,149.819L1041.887,146.433L1042.886,144.73L1048.605,142.82L1048.144,144.864L1049.549,146.873L1052.418,147.399L1056.727,147.001L1052.176,145.79L1050.495,144.453L1057.337,142.402L1060.447,142.462L1065.587,143.695L1068.933,145.149L1073.784,145.139L1074.423,146.538L1072.873,147.221L1076.984,150.134L1079.423,150.281L1076.023,147.89L1076.119,145.795L1069.861,143.067L1064.767,142.01L1062.178,139.499L1061.155,137.488L1070.467,137.08L1079.666,136.136L1077.602,132.892L1079.552,131.068L1086.148,129.199L1095.968,128.14L1098.243,126.948L1106.228,127.831L1110.799,126.585L1110.437,125.638L1115.2,125.645L1116.845,124.753L1115.491,123.624L1119.841,121.141L1122.188,120.739L1128.918,121.675L1127.042,122.901L1130.178,123.581L1135.819,123.876L1138.471,124.696L1148.113,124.678L1154.147,126.024L1160.143,128.132L1161.501,130.405L1158.028,132.655L1153.071,134.371L1150.039,136.966L1147.295,137.269L1146.4,139.276L1150.415,139.135L1156.182,137.887L1155.531,135.627L1162.737,136.904L1169.381,137.42L1173.067,136.931L1183.558,137.399L1184.815,138.828L1190.136,139.947L1201.328,140.048L1201.877,139.051L1199.485,137.635L1202.089,136.713L1207.017,137.686L1214.052,137.849L1218.988,139.064L1224.333,142.738L1221.816,143.699L1230.404,147.822L1236.581,149.441L1237.271,148.757L1236.427,144.517L1240.98,146.236L1243.688,146.714L1248.495,145.641L1254.389,146.797L1256.14,145.915L1260.748,145.345L1256.897,141.977L1263.913,141.031L1275.919,141.782L1280.666,142.792L1286.543,142.753L1290.85,143.377L1297.535,146.112L1301.895,147.106L1307.13,149.043L1311.181,148.848L1317.1,147.925L1324.478,148.165L1330.077,149.231L1334.662,151.302L1336.689,153.571L1344.429,155.332L1345.902,154.16L1351.538,153.856L1353.286,154.334L1361.603,154.81L1363.073,153.765L1367.772,155.802L1372.168,156.64L1374.705,157.922L1377.642,157.751L1378.036,156.789L1373.814,154.446L1370.723,152.174L1378.402,152.777L1381.582,153.403L1390.874,153.244L1394.786,154.174L1402.679,155.299L1408.792,157.06L1429.983,174.467L1427.239,176.568L1422.848,175.961L1424.246,177.287L1431.02,179.467L1433.518,181.492L1437.45,183.01L1440.888,185.319L1441.162,187.01L1433.482,185.779L1428.47,188.017L1427.15,189.307L1424.48,189.805L1422.926,190.95L1423.233,192.846L1419.774,195.772L1419.239,197.496L1414.002,195.019L1410.156,195.122L1407.142,196.371L1404.095,195.539L1401.265,197.348L1396.78,197.618L1396.362,198.586L1398.25,201.091L1397.88,205.136L1398.829,206.897L1402.055,208.376L1405.165,208.754L1404.983,210.325L1407.423,212.941L1409.643,213.532L1411.887,215.722L1411.606,216.626L1408.747,215.586L1407.809,216.409L1409.537,219.942L1413.464,222.879L1412.927,223.944L1409.285,223.903L1408.062,225.618L1408.81,227.596L1410.618,229.566L1407.684,232.053L1409.327,234.848L1409.835,237.29L1407.746,241.447L1404.909,238.943L1400.485,233.842L1397.565,231.4L1388.495,222.333L1386.323,219.989L1382.475,213.498L1383.368,211.308L1382.982,209.807L1381.116,208.463L1383.339,208.218L1383.207,207.167L1385.194,207.142L1386.542,205.248L1386.476,201.92L1387.968,199.564L1388.903,197.096L1388.609,195.842L1390.481,194.147L1392.534,193.521L1391.636,191.533L1386.229,185.277L1383.617,185.948L1385.985,189.456L1384.366,190.056L1382.625,194.284L1377.014,191.776L1376.309,189.448L1373.896,189.79L1371.272,188.85L1368.415,189.632L1366.055,189.422L1364.63,190.898L1365.368,191.865L1364.73,194.173L1363.265,196.045L1363.124,198.593L1365.428,199.972L1368.329,200.82L1365.297,202.163L1362.332,201.506L1361.726,202.808L1356.279,203.11L1357.535,201.764L1354.177,200.048L1350.142,199.734L1346.426,198.888L1345.988,200.217L1341.53,200.688L1340.695,201.251L1336.127,200.489L1335.179,201.584L1332.939,200.568L1324.468,200.773L1321.637,202.522L1321.624,203.725L1319.719,206.254L1320.344,208.15L1319.17,208.751L1316.863,212.2L1316.231,216.169L1313.325,219.97L1311.303,221.951L1312.016,222.98L1314.77,223.697L1318.222,223.517L1320.164,226.875L1322.337,227.41L1323.962,228.792L1327.453,228.531L1328.33,227.785L1326.463,224.981L1329.273,225.599L1330.45,225.19L1334.512,227.455L1340.734,230.53L1342.665,234.535L1344.528,235.47L1344.653,240.144L1346.108,243.546L1349.358,248.275L1351.41,253.637L1350.244,256.831L1350.316,259.365L1349.658,261.009L1350.197,263.602L1349.724,267.268L1348.05,270.548L1347.304,274.011L1346.549,274.6L1346.444,277.341L1345.856,278.918L1341.944,282.467L1340.065,283.148L1336.766,282.059L1335.319,280.38L1333.095,280.296L1332.135,283.51L1331.08,284.037L1329.165,286.477L1328.716,288.184L1330.591,292.566L1326.771,296.782L1324.335,298.09L1324.917,301.042L1326.809,301.679L1330.261,304.051L1332.257,306.354L1337.18,311.004L1338.89,313.753L1340.041,317.316L1340.919,317.857L1341.026,321.815L1338.246,322.233L1338.423,323.424L1335.204,322.99L1333.018,324.788L1330.934,325.374L1328.853,321.958L1329.413,318.779L1327.271,315.119L1325.084,313.088L1327.574,312.548L1324.612,308.311L1321.837,307.915L1320.101,308.655L1318.388,307.068L1316.118,306.597L1316.758,304.394L1316.57,300.628L1315.841,299.402L1310.464,297.357L1307.047,298.185L1303.748,300.227L1302,302.806L1301.413,300.049L1299.799,298.824L1300.919,294.185L1298.545,292.643L1295.615,292.341L1294.25,295.781L1291.32,297.469L1290.865,300.012L1290.088,301.254L1287.763,301.766L1285.51,301.419L1285.62,304.042L1288.402,306.318L1292.511,307.043L1293.816,308.806L1293.988,310.713L1296.459,311.778L1299.123,308.806L1300.426,308.119L1304.874,310.046L1308.933,310.221L1309.563,312.697L1307.099,312.63L1303.897,314.498L1302.471,317.307L1301.427,318.302L1299.515,322.695L1301.84,324.917L1304.903,326.244L1307.414,329.801L1310.054,333.02L1310.597,334.859L1313.409,336.358L1314.077,339.016L1313.056,339.738L1316.288,341.807L1317.875,343.898L1314.716,345.754L1315.816,347.086L1319.802,349.195L1320.872,353.129L1319.832,352.501L1320.686,357.111L1318.646,357.507L1316.849,363.69L1315.746,369.796L1315.707,371.49L1313.968,373.396L1313.841,374.923L1312.773,376.728L1310.671,376.486L1311.005,378.459L1309.647,380.578L1308.941,380.557L1305.694,383.979L1305.668,385.189L1301.705,386.364L1300.283,385.856L1299.021,386.892L1297.99,386.175L1296.827,388.555L1295.07,387.868L1293.782,388.92L1288.881,391.421L1287.199,390.863L1286.014,392.366L1282.569,393.258L1280.4,395.063L1280.516,395.988L1282.288,397.749L1280.835,399.064L1278.205,395.688L1278.818,392.772L1277.079,392.476L1275.469,393.057L1274.756,392.016L1271.62,391.67L1268.04,393.785L1268.018,394.972L1265.15,395.463L1265.703,396.629L1265.089,398.936L1263.074,400.745L1262.331,405.772L1263.884,408.169L1267.008,411.042L1267.102,412.214L1270.814,416.455L1274.965,419.384L1278.407,423.758L1279.13,424.304L1280.74,427.718L1282.262,432.154L1282.478,435.13L1283.34,436.796L1282.616,438.396L1283.036,443.144L1281.577,445.253L1279.34,447.218L1275.127,449.979L1273.125,449.798L1273.147,451.431L1272.047,452.952L1272.411,453.88L1267.891,456.701L1267.213,458.206L1265.388,459.328L1264.979,458.203L1264.777,454.061L1265.39,451.685L1263.732,451.156L1261.79,449.242L1258.531,448.915L1259.24,447.445L1258.28,446.122L1256.712,447.324L1256.329,444.505L1254.45,441.661L1249.507,438.172L1248.314,438.536L1245.697,438.041L1245.741,434.343L1244.34,433.883L1241.616,434.747L1242.106,436.334L1241.74,438.167L1242.117,440.845L1240.865,444.494L1240.509,447.447L1239.333,450.384L1239.556,453.402L1240.788,456.082L1242.213,455.563L1243.09,456.6L1243.5,458.875L1245.053,460.949L1246.096,465.202L1246.765,466.573L1248.771,468.196L1250.899,468.173L1252.346,470.186L1254.828,471.742L1255.768,473.334L1257.84,475.073L1259.913,478.545L1260.238,480.896L1259.872,484.107L1260.318,485.387L1260.337,488.41L1262.034,490.224L1264.247,495.883L1261.608,496.043L1257.279,493.953L1250.81,488.657L1250.782,486.761L1248.079,483.093L1247.507,479.564L1246.146,474.751L1246.01,472.708L1244.897,470.353L1242.901,468.116L1242.943,466.934L1239.734,462.91L1237.491,460.558L1235.951,460.153L1235.848,458.375L1236.862,452.869L1236.083,448.549L1236.876,446.946L1236.89,443.83L1236.355,443.073L1236.381,440.563L1235.364,435.734L1233.591,432.788L1231.027,426.981L1229.943,421.735L1229.295,420.993L1229.106,418.318L1228.045,418.394L1226.81,415.609L1225.719,414.291L1225.392,417.074L1224.71,418.181L1221.198,420.22L1219.839,422.523L1217.817,422.031L1215.955,419.602L1214.419,420.438L1215.104,412.989L1213.964,409.724L1211.877,406.148L1210.184,405.46L1211.148,403.319L1207.892,400.127L1206.306,400.042L1204.274,398L1201.298,394.354L1200.664,391.715L1198.59,387.473L1197.102,385.959L1195.264,386.995L1193.472,384.42L1192.914,386.194L1194.011,388.748L1192.511,391.031L1190.864,390.17L1187.831,391.874L1184.386,392.039L1182.893,390.987L1181.856,391.876L1179.466,392.668L1178.624,394.032L1179.542,396.808L1178.851,398.81L1177.085,400.846L1174.172,402.016L1171.054,404.95L1168.69,409.254L1166.862,410.405L1165.151,412.785L1161.783,415.433L1161.652,418.202L1159.598,419.391L1157.336,419.73L1156.469,422.34L1154.937,421.634L1153.481,422.585L1152.753,425.872L1153.493,428.433L1153.431,430.317L1154.219,432.582L1153.493,433.443L1154.838,434.707L1154.63,438.167L1153.281,441.783L1152.981,443.915L1153.541,445.864L1153.805,450.37L1151.83,450.452L1150.289,453.663L1150.343,455.798L1147.92,456.642L1146.967,457.744L1146.522,460.352L1144.198,461.929L1141.67,460.235L1139.702,457.682L1138.528,454.854L1138.481,452.432L1136.324,447.991L1135.246,445.015L1132.661,441.428L1130.379,436.171L1129.698,433.127L1128.064,428.861L1125.893,425.868L1125.666,424.205L1123.344,420.812L1122.534,418.72L1121.131,412.719L1119.293,407.235L1118.675,404.054L1117.728,401.302L1118.205,397.517L1117.557,394.653L1115.998,391.653L1115.81,388.644L1114.697,388.686L1113.713,390.999L1114.851,392.51L1114.056,394.453L1110.003,396.609L1108.671,396.599L1105.874,394.767L1100.307,389.067L1105.132,387.121L1105.183,385.061L1102.782,386.157L1100.863,385.693L1098.052,383.926L1096.824,381.952L1094.987,380.518L1093.418,380.711L1091.613,378.826L1090.609,375.817L1088.512,375.275L1088.233,373.383L1086.814,371.573L1083.744,372.714L1079.884,372.962L1079.463,373.601L1075.275,372.555L1074.406,373.463L1070.413,373.236L1069.384,373.856L1065.506,374.024L1062.163,373.093L1056.824,372.061L1055.097,372.392L1053.939,371.681L1049.559,371.171L1047.482,370.453L1045.249,364.683L1044.399,363.727L1042.365,363.156L1039.48,364.309L1036.506,366.491L1035.457,366.737L1033.631,365.764L1031.285,365.615L1030.074,364.488L1026.563,362.517L1025.455,360.999L1023.418,359.922L1021.844,359.814L1020.007,358.33L1018.706,355.248L1016.786,353.069L1016.503,351.652L1013.149,347.562L1011.443,348.496L1008.492,346.589L1008.679,348.02L1006.816,348.965L1004.762,348.588L1004.951,350.633L1006.253,353.936L1010.147,360.934L1012.545,363.253L1015.241,365.079L1016.52,367.777L1015.845,368.8L1018.68,374.104L1020.101,369.469L1021.119,368.579L1022.471,369.881L1022.436,371.835L1023.186,374.737L1022.327,377.969L1024.352,378.415L1025.094,379.808L1028.214,378.932L1033.643,379.334L1035.709,378.293L1036.917,375.537L1038.298,374.339L1039.857,371.974L1041.478,370.442L1042.182,368.301L1043.248,367.68L1043.814,374.459L1045.297,377.298L1048.123,380.132L1049.887,380.75L1054.167,381.577L1058.933,387.092L1060.223,387.45L1060.285,388.946L1058.821,392.678L1056.955,394.675L1055.482,398.325L1052.892,399.168L1052.561,402.461L1053.259,405.51L1050.534,406.102L1048.395,407.731L1048.123,409.907L1046.986,411.02L1043.562,411.574L1042.071,415.728L1037.714,415.9L1035.795,417.17L1034.439,417.358L1031.386,418.664L1030.337,419.577L1029.78,421.316L1030.075,422.871L1027.483,424.516L1022.841,426.055L1021.316,427.022L1017.783,428.121L1016.51,429.058L1014.954,431.153L1011.966,431.165L1009.505,433.159L1006.829,434.168L1001.871,434.823L999.27,437.519L997.412,437.513L994.423,438.547L992.365,437.4L991.191,435.192L991.324,433.271L990.379,431.357L989.94,428.55L988.306,422.876L988.738,420.926L987.914,417.287L986.413,415.298L985.925,413.684L983.4,411.356L980.871,407.26L980.242,405.173L978.458,401.692L975.324,399.053L973.201,397.751L970.66,393.654L969.996,390.696L970.278,388.052L969.424,385.521L967.038,381.224L964.497,378.774L962.828,378.222L961.056,375.486L960.731,373.047L958.881,370.662L956.327,366.293L953.109,361.953L951.137,358.832L948.672,358.243L949.22,356.382L948.703,352.428L947.802,358.928L947.135,360.233L945.05,358.765L942.643,356.069L941.701,353.451L940.002,351.125L939.393,351.827L939.839,353.87L941.151,356.083L944.198,359.538L944.326,361.047L946.019,363.938L946.46,366.013L949.435,370.973L952.604,377.272L954.616,379.392L954.4,382.618L955.332,385.187L957.75,386.83L960.54,389.579L961.136,392.223L962.272,394.721L962.785,397.55L963.183,402.589L964.386,406.527L966.436,407.893L967.752,409.476L969.434,410.389L971.099,413.725L972.306,417.328L973.21,421.499L974.222,423.508L975.809,423.827L977.423,426.181L978.949,426.596L981.801,428.213L984.081,431.499L986.763,433.539L989.362,437.27L990.636,437.474L992.223,440.746L991.661,441.881L989.621,443.068L992.539,445.093L994.473,447.991L996.902,449.814L999.362,449.782L1003.149,447.724L1006.478,448.188L1010.1,445.983L1012.825,446.162L1015.68,445.216L1016.706,445.567L1021.977,444.151L1024.88,441.81L1026.962,442.597L1026.33,445.15L1026.738,448.648L1025.754,450.727L1025.599,454.978L1023.96,457.979L1022.626,461.303L1021.554,462.524L1021.199,464.084L1019.467,467.528L1018.248,471.733L1016.552,475.231L1013.658,480.364L1008.878,486.597L1005.242,490.765L1000.24,494.189L997.64,496.344L993.807,500.302L987.185,508.505L986.075,510.857L984.529,513.102L982.785,513.536L982.341,515.178L981.2,516.564L979.318,517.332L978.815,520.223L975.962,526.543L974.781,527.505L972.862,533.743L973.06,536.079L975.658,538.896L975.839,540.16L974.768,542.187L975.383,544.728L974.717,546.955L976.622,554.529L977.466,555.791L979.226,556.791L980.158,558.377L979.112,561.832L979.634,568.552L979.295,572.818L979.496,577.601L980.255,579.671L979.217,581.343L978.865,583.189L976.753,585.801L975.469,588.157L972.727,590L971.983,590.93L967.789,592.324L963.703,594.892L960.402,598.912L959.732,600.212L958.492,600.589L956.329,602.25L953.07,605.604L952.228,605.65L951.805,608.661L952.921,610.741L953.898,615.11L953.861,618.969L954.795,621.9L953.612,626.223L953.771,628.153L952.415,630.07L949.942,631.521L944.345,633.797L941.813,635.783L940.815,637.646L942.201,638.934L941.525,643.223L939.742,649.024L938.509,651.21L936.216,652.845L934.149,655.13L929.053,663.38L922.446,670.24L917.936,674.173L914.45,676.593L911.63,677.827L909.799,677.577L908.208,679.13L905.553,678.934L904.742,679.945L899.594,678.994L898.225,679.493L895.249,679.123L893.936,679.431L891.917,681L888.862,680.958L886.607,681.468L884.371,683.137L882.767,682.969L879.488,679.63L877.628,678.755L878.019,677.609L875.883,673.695L877.537,672.093L877.925,669.35L877.599,667.382L875.517,663.634L873.655,658.87L872.789,655.263L870.945,651.313L867.819,647.812L866.308,644.81L864.889,639.274L864.46,636.204L864.537,632.617L863.215,628.314L863.23,623.546L863.537,620.552L862.721,617.899L861.262,615.714L859.092,611.313L857.947,607.525L854.978,601.024L853.429,599.031L852.079,596.244L851.888,593.482L852.379,589.543L852.148,585.041L853.118,584.019L854.569,578.877L855.847,572.687L857.407,570.575L857.803,569.275L859.735,567.957L861.41,564.31L861.735,560.402L858.989,553.441L858.088,550.066L859.703,548.207L859.804,546.573L857.563,540.713L857.402,539.287L856.073,537.411L854.479,532.482L854.71,531.635L852.826,526.991L849.529,523.187L846.497,519.001L843.291,515.678L841.701,512.889L841.991,511.396L840.81,510.179L839.73,507.144L841.845,505.308L842.615,501.638L841.993,500.357L843.307,499.491L842.72,496.116L844.106,493.583L844.166,490.436L844.724,487.659L844.399,486.471L842.388,483.32L840.494,482.449L839.429,479.937L832.289,480.272L830.523,481.152L827.5,481.426L825.325,479.589L823.738,475.285L822.082,472.491L820.171,470.833L818.814,470.511L812.807,470.693L808.571,471.285L805.409,472.364L804.718,473.604L801.653,473.876L798.951,475.196L796.957,476.608L793.222,477.874L791.607,478.998L789.843,478.139L782.568,476.59L775.783,477.314L770.088,479.466L767.504,480.985L766.464,481.033L763.806,479.884L759.935,477.492L754.877,472.229L752.622,471.031L747.575,466.534L745.114,465.492L745.015,464.052L743.379,463.07L742.077,459.36L741.717,456.303L739.846,452.799L736.653,450.752L735.153,447.232L733.971,447.186L732.442,445.759L731.999,443.149L729.202,442.151L726.704,439.895L726.295,434.812L727.372,433.015L724.911,428.108L725.033,426.656L726.408,424.736L727.822,421.927L727.869,419.613L728.773,416.311L730.02,413.111L730.112,408.073L729.612,405.581L728.342,403.727L729.409,401.529L729.788,399.25L728.891,397.056L728.049,397.15L727.011,394.813L726.897,390.601L728.775,388.36L730.215,384.402L733.073,379.355L735.516,376.891L736.356,375.22L736.705,372.461L738.483,368.06L742.163,365.567L744.023,360.796L745.036,359.455L749.191,358.342L751.606,357.031L753.146,355.312L755.732,353.493L759.36,348.08L759.463,346.327L758.552,344.926L758.93,341.264L760.97,337.836L761.464,335.318L764.282,332.135L771.504,328.089L773.884,323.914L775.772,318.692L777.986,317.949L779.166,320.337L780.272,321.301L782.386,321.921L785.056,321.308L788.617,322.093L792.057,322.316L793.499,321.808L796.669,319.3L798.722,318.302L800.7,318.1L802.645,316.234L805.732,314.902L811.289,314.482L812.859,313.533L816.204,312.958L820.274,312.956L822.111,314.09L825.708,313.123L827.437,311.98L829.286,312.836L832.104,312.422L833.38,313.162L837.155,312.433L840.69,310.665L842.821,311.359L844.435,313.043L846.744,313.072L844.34,315.915L844.686,318.169L846.456,319.479L847.006,321.513L844.673,325.11L842.752,326.832L843.202,328.704L845.626,330.441L852.296,333.838L854.304,334.135L856.519,333.546L860.587,334.755L861.79,335.638L864.616,336.259L866.126,340.062L867.063,341.256L868.866,342.095L874.109,343.043L877.752,344.618L881.043,347.141L882.555,347.155L884.296,346.115L885.997,343.059L884.842,339.229L885.556,337.151L887.561,335.28L891.734,333.429L894.067,333.528L897.976,335.08L898.936,337.176L902.568,338.236L904.911,338.199L906.4,338.889L907.371,340.699L910.168,340.248L915.997,341.506L919.154,342.96L921.494,343.203L923.946,344.344L926.079,343.406L929.304,341.094L930.621,341.373L932.634,340.42L936.697,342.987L937.564,342.138L938.835,343.109L941.024,342.594L943.318,342.789L945.399,341.89L947.246,338.825L948.915,331.073L950.132,326.644L951.353,325.096L950.834,321.597L949.891,319.8ZM996.346,264.643L992.688,267.679L990.289,268.365L989.332,271.893L988.129,273.161L988.345,274.361L990.48,275.522L992.249,278.999L992.508,281.42L996.399,285.785L1000.782,290.287L1001.524,291.701L1004.173,293.969L1006.503,294.851L1003.605,295.97L1003.194,298.982L1003.579,300.313L1002.327,301.419L1001.929,303.061L1003.156,307.831L1005.594,309.858L1008.408,310.321L1010.407,312.351L1013.066,313.751L1017.625,314.374L1024.934,312.667L1023.254,307.634L1022.493,302.374L1021.209,301.001L1018.978,299.889L1020.181,298.672L1019.623,297.172L1017.887,297.031L1016.453,294.92L1017.725,292.732L1019.652,292.766L1020.861,293.637L1024.054,292.393L1023.266,290.842L1020.908,289.173L1019.312,286.243L1016.538,286.232L1014.846,289.12L1013.679,286.195L1013.557,282.823L1010.356,282.057L1007.586,279.137L1004.962,275.519L1002.818,274.844L1002.827,273.325L1004.632,273.302L1006.09,269.6L1010.506,269.393L1011.285,268.511L1012.036,265.379L1011.635,262.966L1010.3,261.528L1007.546,262.106L1003.238,260.743L1000.484,261.904L999.083,263.143L996.613,263.723ZM1003.012,152.921L1000.452,153.772L998.071,153.104L995.783,151.486L997.196,150.631ZM859.32,154.39L861.045,156.123L857.774,156.384ZM970.053,156.177L968.395,157.601L965.339,158.155L963.57,156.811L964.168,155.087L966.051,154.759ZM746.678,169.245L749.513,170.177L749.191,171.365L753.052,172.572L751.971,175.394L747.628,177.962L743.885,178.802L741.722,179.921L737.492,180.618L734.362,182.018L728.974,181.336L723.597,178.373L723.382,176.967L721.144,174.651L723.82,172.545L720.754,172.153L716.085,172.572L718.192,169.957L722.979,168.343L726.508,170.823L726.477,172.872L729.702,171.529L729.892,170.12L735.445,169.513L742.456,169.678L743.332,168.27L745.283,167.966ZM789.049,204.814L788.654,205.736L785.747,207.458L787.895,208.652L792.817,208.68L793.904,209.675L790.577,215.309L788.591,216.455L792.445,217.309L794.275,218.915L795.616,222.774L797.956,224.086L799.719,226.433L802.638,231.593L804.539,231.633L806.847,232.641L807.204,234.041L806.498,235.922L804.182,237.299L803.154,239.38L805.969,239.496L804.22,241.661L801.296,242.469L794.616,242.545L790.609,243.197L787.283,243.118L785.739,245.121L784.279,244.318L779.714,245.037L782.724,242.403L784.297,240.36L788.369,240.279L783.588,237.628L781.585,238.195L780.912,236.37L783.648,235.379L785.23,233.683L784.797,230.359L788.81,229.341L789.365,227.845L785.537,222.74L781.095,222.368L782.729,219.637L780.823,217.182L779.476,216.575L780.357,214.364L778.336,213.927L779.827,210.922L778.907,209.951L780.802,206.127L783.135,204.839ZM883.722,204.312L886.295,204.966L882.421,206.529L881.838,204.991ZM871.098,208.043L870.191,208.662L869.999,210.875L867.754,209.375L869.105,208.07ZM847.693,217.879L844.437,220.771L843.047,220.686L841.741,218.185L846.274,216.27ZM840.518,218.724L841.177,221.03L838.166,220.886L837.593,219.18ZM773.412,221.401L777.396,220.622L779.78,224.104L779.231,225.211L776.385,226.603L777.434,231.79L775.273,235.42L771.541,235.863L770.992,236.45L766.485,238.399L764.602,238.828L763.551,237.884L760.515,236.997L762.209,235.676L764.952,230.953L763.127,229.496L762.582,225.195L767.806,224.85L767.345,223.223L769.295,220.968L773.209,219.966ZM838.894,282.592L839.304,286.048L837.952,289.862L836.375,288.818L835.831,283.898ZM839.859,292.438L840.636,294.402L839.87,301.257L837.775,300.879L837.106,302.561L835.153,301.053L835.207,295.464L834.001,293.621L838.379,290.799ZM813.416,298.047L814.721,298.521L813.143,300.562L810.244,298.957L811.932,297.716ZM896.991,302.324L899.929,303.804L898.636,305.195L896.382,303.135ZM864.888,306.128L863.109,310.055L864.03,312.353L863.357,314.033L860.79,313.46L859.226,311.886L858.241,311.902L851.988,308.192L855.7,306.332L857.105,307.258L860.505,307.029L861.88,306.377ZM944.444,319.686L942.426,321.246L943.04,322.816L938.608,324.949L936.467,324.155L935.803,322.997L938.194,320.736L940.384,321.019ZM900.146,319.986L902.136,320.874L903.819,320.558L907.021,321.173L908.211,322.017L904.337,323.094L902.845,321.926L899.022,321.23ZM730.627,357.042L729.168,358.974L728.177,357.251ZM1043.491,613.179L1042.297,613.597L1041.033,612.045L1042.975,611.257ZM1019.228,567.503L1020.821,570.804L1021.591,575.794L1021.653,579.364L1022.537,582.736L1021.144,585.703L1019.917,583.109L1018.814,583.673L1019.339,588.418L1017.365,592.313L1017.252,595.71L1012.434,608.937L1010.937,613.547L1008.514,619.327L1006.335,626.618L1004.24,631.344L1002.121,633.222L999.622,633.64L996.65,635.363L994.969,635.259L993.767,634.176L991.803,633.618L990.574,632.424L989.365,629.121L989.462,625.931L989.886,624.832L988.755,621.503L988.53,617.171L989.829,613.585L991.479,612.139L993.421,608.535L994.313,606.168L994.687,603.617L993.896,601.791L993.988,600.063L993.298,597.726L993.329,593.092L995.486,589.535L995.874,587.03L997.79,586.807L998.979,585.82L1000.872,585.87L1001.373,584.947L1004.18,584.429L1004.871,583.396L1011.038,578.398L1012.014,575.385L1015.736,571.809L1016.325,570.099L1016.401,567.638L1017.854,565.684ZM840.1,484.162L838.96,486.949L838.171,486.704L839.059,484.279ZM1332.05,551.748L1334.085,553.29L1335.362,555.162L1333.49,556.484L1332.235,555.999L1330.039,553.802L1327.789,553.459L1328.383,551.799ZM1364.755,546.854L1362.935,548.351L1360.463,549.599L1355.995,551.239L1351.217,555.734L1348.591,556.74L1347.6,554.799L1348.307,552.985L1349.612,551.739L1352.366,550.619L1355.268,548.004L1358.113,547.203L1361.742,547.035L1363.341,546.294ZM1317.446,547.83L1316.146,549.453L1314.891,548.504L1314.95,546.92L1316.551,545.72L1317.954,546.662ZM1344.668,547.818L1339.527,549.298L1336.781,549.485L1331.447,548.26L1332.043,546.961L1335.196,545.908L1338.751,547.645L1341.117,547.012L1342.359,547.887L1343.963,546.742ZM1324.668,546.305L1327.964,546.408L1327.871,548.529L1324.426,548.829L1319.103,550.328L1317.934,549.851L1318.341,547.409L1319.871,546.559L1321.629,546.865L1324.192,545.297ZM1312.343,545.467L1313.381,546.765L1311.145,548.776L1308.044,545.284ZM1362.878,542.959L1361.304,544.413L1358.572,543.725L1362.068,542.463ZM1414.646,546.077L1413.524,546.755L1410.882,546.02L1412.592,542.822L1413.957,541.777L1416.082,541.531L1416.923,543.103ZM1382.805,544.666L1381.803,543.974L1382.737,541.942L1384.202,540.219L1384.661,541.78ZM1305.61,540.061L1303.914,540.644L1300.803,540.24L1301.344,539.006L1306.263,538.866ZM1397.666,536.65L1396.728,538.567L1395.427,538.332L1396.124,535.279ZM1277.219,534.41L1278.464,535.482L1281.238,535.736L1282.783,538.441L1290.494,539.248L1292.018,536.803L1293.813,537.818L1295.531,537.71L1297.882,538.971L1299.876,539.14L1300.798,542.365L1302.753,543.217L1306.43,542.779L1307.991,544.132L1307.542,546.755L1308.265,548.632L1302.562,546.145L1299.968,546.776L1294.828,546.239L1290.883,545.441L1288.457,544.104L1285.166,543.149L1282.781,542.954L1281.453,543.622L1279.108,543.247L1276.389,541.949L1273.509,541.659L1273.128,539.796L1268.613,538.396L1270.506,534.973L1271.477,533.931L1274.759,534.879L1275.792,533.881ZM1398.848,532.864L1398.735,535.252L1397.28,536.097L1396.773,534.422L1397.045,532.894L1398.351,531.484ZM1345.231,530.611L1344.176,529.585L1344.131,528.028L1345.646,527.262L1345.824,528.887ZM1347.783,526.915L1347.184,527.929L1346.709,531.251L1345.861,532.681L1344.885,532.028L1345.784,530.307L1346.318,527.262ZM1364.432,519.387L1366.009,520.947L1365.974,522.192L1363.522,523.172L1361.312,521.918L1360.707,519.812ZM1377.329,518.245L1380.086,518.88L1382.12,521.87L1381.82,523.347L1377.651,520.618L1375.955,521.267L1373.754,520.611L1371.302,521.075L1369.842,519.883L1370.412,518.245L1375.886,517.857ZM1281.522,518.923L1278.858,520.013L1279.171,516.703L1280.981,516.861ZM1356.192,512.275L1355.575,513.245L1353.71,513.817L1353.577,512.182ZM1402.913,511.688L1406.142,512.015L1406.083,513.065ZM1272.049,512.088L1273.4,516.18L1274.764,517.411L1274.134,519.22L1271.727,518.032L1270.849,514.723L1267.961,514.008L1270.012,511.355ZM1370.353,512.042L1367.717,512.391L1368.126,510.355ZM1241.439,512.647L1240.16,512.061L1238.975,509.663L1240.176,508.21L1241.909,511.873ZM1402.567,506.851L1404.835,507.235L1406.549,508.977L1404.572,509.258ZM1258.674,499.658L1256.511,499.222L1256.533,497.685ZM1233.979,495.963L1236.006,498.489L1235.77,500.268L1233.666,498.63L1232.927,496.175ZM1355.884,498.379L1353.851,501.078L1350.859,501.928L1348.686,501.82L1347.869,501.001L1342.355,501.254L1340.502,500.955L1335.714,501.188L1334.733,502.642L1334.218,505.079L1334.589,506.844L1336.442,508.847L1337.089,510.549L1338.715,510.736L1340.906,507.902L1342.902,508.301L1344.291,507.395L1347,507.386L1348.264,506.435L1349.187,506.838L1349.164,508.667L1347.71,507.989L1346.629,508.471L1345.269,510.434L1341.724,513.083L1340.072,513.51L1342.251,515.495L1344.579,519.967L1343.856,522.127L1346.537,524.64L1346.574,525.876L1343.474,526.634L1342.104,528.443L1340.254,527.07L1340.942,524.558L1337.919,521.794L1338.606,519.794L1338.657,517.656L1336.899,517.224L1335.066,519.206L1335.769,522.573L1335.367,524.521L1335.507,527.258L1334.754,529.979L1334.793,532.014L1332.112,532.793L1330.673,531.416L1331.959,526.259L1332.093,524.256L1331.289,521.381L1329.39,521.7L1328.643,519.741L1328.571,517.724L1329.979,516.274L1331.059,513.428L1331.045,510.745L1333.146,505.988L1332.929,503.956L1333.317,502.273L1335.342,498.505L1336.448,499.295L1338.182,496.87L1340.534,497.253L1341.218,498.007L1344.977,498.263L1347.012,499.128L1348.724,498.726L1351.257,499.187L1353.147,498.242L1356.281,494.748L1357.385,495.771ZM1368.537,499.137L1370.425,497.543L1371.571,495.694L1372.74,495.41L1372.837,497.808L1371.054,498.989L1372.816,501.647L1369.663,501.071L1369.242,501.964L1369.938,507.132L1368.373,504.743L1368.447,502.017L1367.762,500.98L1367.125,497.059L1368.018,494.015L1369.717,494.748L1369.751,496.648L1368.173,498.283ZM1371.652,492.944L1370.574,491.681L1372.245,490.137L1372.385,492.056ZM1229.385,491.359L1226.444,489.838L1226.404,488.497L1229.164,490.56ZM1229.081,476.595L1233.338,476.56L1235.442,478.392L1237.039,480.786L1237.357,482.442L1243.823,487.125L1247.151,491.886L1248.178,492.592L1249.77,491.886L1251.73,494.789L1253.105,495.159L1254.783,497.022L1256.192,499.491L1257.883,499.82L1258.854,500.969L1260.689,501.031L1262.063,503.259L1260.469,504.486L1260.476,506.244L1261.754,508.062L1264.593,508.843L1265.46,513.387L1266.675,514.269L1265.862,515.774L1269.101,515.746L1269.912,516.32L1271.894,519.481L1270.927,522.091L1270.859,529.275L1270.388,532.708L1269.478,533.341L1268.345,532.053L1267.107,533.062L1265.2,531.904L1264.936,533.881L1261.71,529.636L1257.781,526.502L1256.145,524.862L1254.413,522.018L1252.033,519.794L1248.898,514.529L1248.949,513.451L1247.351,510.183L1246.579,507.754L1244.599,505.113L1243.434,502.974L1241.481,501.69L1239.824,495.81L1238.765,493.713L1234.885,491.366L1234.347,488.856L1233.443,488.193L1231.489,485.106L1229.124,483.866L1224.742,479.002L1223.36,476.314L1223.393,474.868L1225.165,474.639L1227.473,476.261ZM1318.894,469.071L1320.227,467.64L1321.058,469.144L1322.683,470.19L1322.717,472.932L1324.401,472.354L1324.952,473.334L1327.155,474.728L1329.996,475.651L1329.671,477.257L1327.66,477.959L1325.826,477.83L1325.531,478.657L1327.281,480.336L1327.023,481.056L1324.871,481.634L1323.666,481.184L1322.494,482.529L1323.308,484.793L1321.254,485.019L1323.313,487.734L1325.438,491.576L1324.578,493.373L1325.561,494.746L1328.072,496.714L1329.629,498.448L1327.634,499.315L1326.126,499.003L1324.126,499.747L1323.146,502.286L1322.88,505.166L1323.313,507.465L1318.792,511.083L1318.161,514.061L1318.767,515.331L1317.648,518.432L1315.875,521.995L1310.159,524.953L1309.58,521.479L1307.599,520.369L1306.294,521.283L1305.138,519.883L1302.674,519.896L1300.991,520.995L1299.603,520.586L1297.512,521.673L1297.588,519.229L1295.58,518.592L1294.127,519.22L1292.058,518.375L1290.535,518.549L1289.735,510.697L1288.726,508.703L1287.25,507.97L1285.956,506.045L1286.392,503.339L1284.997,501.67L1284.814,499.416L1285.534,495.805L1286.848,493.608L1287.952,493.069L1289.559,494.664L1291.181,494.652L1293.821,495.694L1294.758,494.554L1295.083,490.969L1297.191,488.817L1301.651,487.702L1302.997,487.01L1304.693,484.256L1306.724,481.668L1307.228,479.87L1308.317,479.795L1311.315,477.659L1313.637,477.522L1313.099,475.649L1314.745,475.016L1316.097,471.961L1317.559,469.941ZM1358.622,455.529L1359.473,455.757L1360.24,457.982L1361.191,463.193L1361.85,463.993L1362.069,466.205L1360.031,468.854L1358.677,465.764L1356.995,468.532L1357.941,470.23L1358.451,472.738L1357.603,474.355L1353.865,472.637L1351.255,470.547L1350.643,467.513L1351.478,465.44L1350.317,464.06L1348.152,463.321L1347.854,465.383L1343.789,464.016L1342.611,467.457L1341.91,465.609L1342.116,463.307L1342.938,462.185L1345.43,461.527L1345.801,460.281L1347.516,458.711L1351.212,460.935L1352.066,459.209L1353.324,459.433L1353.749,457.326L1356.617,456.457L1355.83,453.736L1356.258,453.272ZM1154.612,452.995L1155.817,453.079L1157.982,455.295L1161.193,460.11L1161.56,461.719L1163.718,465.995L1163.753,467.988L1162.867,470.44L1161.764,471.388L1158.905,472.736L1156.87,472.578L1156.079,471.84L1154.886,468.358L1154.41,464.466L1154.659,457.701L1155.37,455.499ZM1352.138,453.128L1351.181,453.937L1349.305,453.969L1348.684,452.972L1350.096,451.335L1351.942,451.893ZM1346.008,456.852L1343.294,454.696L1342.655,452.229L1344.291,451.584L1343.902,449.437L1344.43,447.463L1345.578,446.909L1347.073,448.009L1345.76,452.73L1346.657,455.343ZM1346.888,454.865L1346.7,452.202L1347.876,449.59L1349.024,450.4L1347.813,451.927ZM1320.488,460.068L1320.548,458.658L1322.688,455.942L1323.658,455.396L1327.199,450.21L1328.019,449.572L1327.991,447.678L1329.107,447.12L1330.015,449.19L1328.087,451.717L1326.344,452.462L1325.117,455.862L1323.312,457.814ZM1351.207,445.111L1352.76,444.958L1353.465,447.985L1354.812,450.672L1353.929,451.861L1352.77,451.166L1352.466,448.005L1350.877,447.273ZM1341.861,443.709L1344.833,444.119L1344.449,446.278L1343.521,447.788L1341.099,448.821L1339.931,447.54L1340.109,443.565ZM1353.413,439.005L1354.937,440.739L1354.738,441.97L1355.987,446.198L1354.235,446.132L1353.239,445.121L1352.316,442.883L1349.82,440.467L1349.214,438.79ZM1037.826,438.442L1039.689,438.302L1039.52,439.865L1037.179,439.961ZM1332.771,434.098L1335,434.34L1336.612,435.894L1337.012,438.435L1335.932,440.597L1334.361,439.087L1333.369,436.725L1332.052,435.228ZM1330.354,407.586L1333.911,409.24L1335.798,408.685L1335.746,412.024L1336.411,413.684L1337.923,415.286L1337.038,420.138L1334.872,421.437L1335.134,422.796L1334.462,424.581L1336.243,427.609L1336.225,428.93L1337.16,430.826L1338.896,430.65L1340.05,429.749L1341.712,430.118L1343.727,432.715L1344.456,431.586L1345.81,432.009L1345.54,433.845L1348.235,436.384L1348.178,438.801L1344.56,436.343L1343.639,434.292L1340.81,431.888L1340.268,434.029L1337.186,431.735L1334.861,433.269L1333.093,432.007L1331.892,430.443L1333.017,428.868L1332.704,427.72L1329.056,427.022L1326.8,419.405L1328.471,420.846L1329.339,419.948L1328.717,418.36L1328.812,416.16L1327.995,412.634L1328.259,408.141ZM1284.431,400.471L1285.288,402.211L1283.796,404.709L1283.641,406.9L1280.014,409.637L1276.168,407.999L1275.439,403.849L1277.26,402.115L1277.28,401.243L1279.037,400.51L1283.044,400.053ZM1325.733,386.874L1324.181,388.24L1322.857,387.278L1321.051,384.135L1320.756,381.24L1322.909,374.385L1324.979,373.128L1326.822,374.691L1326.644,379.058L1326.812,382.715L1326.571,385.082ZM1332.674,331.947L1332.281,330.722L1333.624,330.262L1334.757,331.34ZM1352.367,329.986L1353.987,329.727L1356.079,331.786L1357.201,333.914L1356.643,335.213L1357.159,341.368L1354.389,342.541L1352.542,341.952L1352.503,340.349L1351.076,337.813L1351.986,335.077L1350.005,332.627L1349.587,333.875L1346.355,331.882L1346.448,331.216L1348.899,329.821L1349.012,328.785L1350.912,328.592ZM1364.445,326.603L1365.681,326.756L1366.928,328.859L1365.829,329.956L1365.717,331.825L1362.886,330.46L1361.726,331.241L1361.425,333.923L1359.249,333.537L1357.555,330.453L1358.368,327.967L1361.673,327.841L1363.057,326.074ZM1376.323,289.923L1379.267,293.83L1381.461,295.471L1383.347,297.768L1384.873,301.538L1384.214,302.241L1384.826,305.181L1383.503,305.522L1383.691,307.524L1385.283,310.01L1386.089,312.41L1385.818,314.988L1386.8,317.279L1388.6,319.006L1387.336,320.117L1387.52,321.953L1385.793,322.979L1384.186,320.64L1382.796,321.317L1382.926,324.315L1380.399,322.309L1379.815,324.843L1373.909,323.76L1372.703,324.418L1374.783,326.251L1372.889,327.014L1372.398,330.198L1370.465,330.242L1368.606,328.456L1367.499,326.437L1368.258,325.339L1365.008,323.968L1362.919,324.32L1362.262,325.199L1359.253,326.364L1355.609,326.754L1355.724,328.677L1353.867,327.659L1350.565,328.054L1350.101,325.898L1351.529,325.789L1353.006,324.171L1355.856,320.113L1357.862,320.383L1361.191,319.968L1364.759,318.892L1365.869,320.039L1367.392,320.154L1368.56,318.786L1367.706,317.635L1368.933,313.753L1371.548,313.607L1371.854,312.671L1374.592,311.295L1375.484,308.068L1376.915,306.528L1376.374,299.727L1374.898,297.558L1372.999,293.894L1373.828,292.623L1377.156,292.438ZM1379.241,275.905L1383.676,276.805L1385.405,277.7L1388.086,280.697L1385.84,281.871L1383.347,282.204L1382.446,284.567L1382.81,286.709L1379.15,285.392L1375.605,283.749L1373.89,283.914L1372.741,284.96L1370.1,283.851L1370.195,285.21L1372.327,286.116L1372.494,289.173L1370.755,288.879L1370.326,287.157L1367.89,284.728L1367.468,283.39L1369.52,280.502L1371.645,280.579L1370.818,278.32L1370.748,276.401L1369.301,272.856L1367.223,270.625L1367.603,268.833L1372.701,272.335ZM1394.811,269.805L1393.069,271.465L1391.881,270.449ZM1341.611,224.62L1344.36,227.545L1347.295,229.981L1350.08,233.328L1351.279,235.937L1354.54,238.959L1359.964,244.856L1364.964,249.697L1360.764,250.259L1362.291,255.904L1363.273,257.581L1366.655,260.174L1369.799,263.521L1366.57,262.807L1366.956,265.897L1364.359,264.069L1363.082,260.59L1361.406,258.34L1360.93,256.198L1357.354,252.504L1355.793,248.409L1352.406,243.701L1350.561,240.192L1346.95,237.651L1344.88,235.005L1344.453,233.614L1341.798,229.769L1344.099,229.239L1342.794,226.694L1340.403,225.172ZM1402.692,204.398L1401.325,202.449L1404.073,201.99L1405.039,203.061ZM192.65,157.249L194.756,158.062L196.964,160.297L200.961,162.797L201.004,165.345L203.861,165.159L206.289,166.137L209.233,166.107L211.033,169.366L206.452,171.967L200.074,172.85L198.152,174.553L193.924,176.105L191.563,177.955L189.366,177.65L188.689,176.411L185.756,175.664L185.226,174.721L186.777,172.645L184.168,172.003L179.123,172.583L179.534,170.554L175.88,171.148L175.662,172.44L171.017,174.467L178.86,167.871L186.827,161.356ZM1369.187,154.458L1363.109,153.346L1364.083,152.571L1368.187,153.148ZM1394.718,149.078L1392.541,147.345L1394.467,146.036L1397.559,148.364ZM210.462,145.87L213.136,147.208L211.082,148.045L204.685,148.661L203.441,148.364L206.533,146.036ZM1030.189,139.462L1027.386,138.358L1030.088,137.712L1033.1,139.132ZM1258.888,136.13L1264.159,137.487L1265.294,138.937L1256.022,137.972L1255.481,136.254ZM1164.162,134.048L1163.359,135.306L1159.038,134.573L1159.432,133.438ZM1266.547,130.089L1277.819,130.703L1280.933,131.821L1278.446,132.523L1273.377,132.305L1265.343,130.788ZM1242.95,128.241L1246.397,128.758L1245.994,127.006L1250.207,127.942L1254.27,128.102L1260.601,129.22L1259.318,131.413L1253.096,131.63L1245.445,132.997L1241.576,132.422L1236.097,130.639L1234.523,127.917L1237.285,126.757ZM1112.908,114.96L1121.496,116.586L1123.251,117.791L1119.29,118.711L1111.804,118.964L1107.175,117.112L1108.606,114.603ZM1093.672,111.649L1102.327,113.033L1104.018,116.529L1098.295,116.557L1088.364,115.43L1082.252,114.067L1085.834,111.871ZM1086.658,108.399L1091.637,109.369L1091.855,111.351L1084.458,111.766L1082.806,112.184L1074.485,110.93L1078.067,109.394L1076.729,108.702L1083.693,107.689Z" class="land" id="world" title="World"/>
  </g>
</svg>

