<svg preserveAspectRatio="none" width="100%" height="100%" overflow="visible" style="display: block;" viewBox="0 0 28 28" fill="none" xmlns="http://www.w3.org/2000/svg">
<g id="09">
<path id="Vector" d="M26.6 0H1.4C1.0287 0 0.672601 0.1475 0.41005 0.41005C0.1475 0.672601 0 1.0287 0 1.4C0 1.7713 0.1475 2.1274 0.41005 2.38995C0.672601 2.6525 1.0287 2.8 1.4 2.8H8.4V8.33C6.30052 9.37163 4.53316 10.9782 3.29658 12.9691C2.05999 14.96 1.40319 17.2563 1.4 19.6V25.2C1.4 25.9426 1.695 26.6548 2.2201 27.1799C2.7452 27.705 3.45739 28 4.2 28H23.8C24.5426 28 25.2548 27.705 25.7799 27.1799C26.305 26.6548 26.6 25.9426 26.6 25.2V19.6C26.5968 17.2563 25.94 14.96 24.7034 12.9691C23.4668 10.9782 21.6995 9.37163 19.6 8.33V2.8H26.6C26.9713 2.8 27.3274 2.6525 27.59 2.38995C27.8525 2.1274 28 1.7713 28 1.4C28 1.0287 27.8525 0.672601 27.59 0.41005C27.3274 0.1475 26.9713 0 26.6 0ZM11.2 2.8H16.8V7.322C14.9584 6.88961 13.0416 6.88961 11.2 7.322V2.8ZM14 22.4C13.1693 22.4 12.3573 22.1537 11.6666 21.6922C10.9759 21.2307 10.4376 20.5747 10.1197 19.8073C9.80182 19.0398 9.71864 18.1953 9.8807 17.3806C10.0428 16.5659 10.4428 15.8175 11.0302 15.2302C11.6175 14.6428 12.3659 14.2428 13.1806 14.0807C13.9953 13.9186 14.8398 14.0018 15.6073 14.3197C16.3747 14.6376 17.0307 15.1759 17.4922 15.8666C17.9537 16.5573 18.2 17.3693 18.2 18.2C18.2 19.3139 17.7575 20.3822 16.9698 21.1698C16.1822 21.9575 15.1139 22.4 14 22.4Z" fill="var(--fill-0, #6FA59B)"/>
<path id="Vector_2" d="M14 19.6C14.7732 19.6 15.4 18.9732 15.4 18.2C15.4 17.4268 14.7732 16.8 14 16.8C13.2268 16.8 12.6 17.4268 12.6 18.2C12.6 18.9732 13.2268 19.6 14 19.6Z" fill="var(--fill-0, #6FA59B)"/>
</g>
</svg>
