<svg preserveAspectRatio="none" width="100%" height="100%" overflow="visible" style="display: block;" viewBox="0 0 28 24.3682" fill="none" xmlns="http://www.w3.org/2000/svg">
<g id="Group 20">
<path id="Vector" d="M27.2043 18.8682L26.3363 19.7362C26.0632 20.0092 25.5861 20.0092 25.313 19.7362L24.6364 19.0595C23.99 18.4143 22.94 18.4131 22.2936 19.0595L21.6169 19.7362C21.3346 20.0185 20.876 20.0185 20.5937 19.7362L19.917 19.0595C19.2905 18.433 18.1996 18.433 17.5742 19.0595L16.8975 19.7362C16.6152 20.0185 16.1567 20.0185 15.8743 19.7362L15.1976 19.0595C14.5513 18.4131 13.5001 18.4131 12.8549 19.0595L12.1782 19.7362C11.8958 20.0185 11.4385 20.0185 11.1549 19.7362L10.4783 19.0595C9.85172 18.433 8.76086 18.433 8.13548 19.0595L7.4588 19.7362C7.18579 20.0092 6.70861 20.0092 6.43558 19.7362L5.7589 19.0595C5.11253 18.4131 4.06133 18.4131 3.41612 19.0595L2.73943 19.7362C2.46642 20.0092 1.98924 20.0092 1.71622 19.7362L0.796856 18.8168C0.614847 18.6348 0.319657 18.6348 0.136507 18.8168C-0.0455022 18.9988 -0.0455022 19.294 0.136507 19.4772L1.05587 20.3965C1.70224 21.0429 2.75344 21.0429 3.39865 20.3965L4.07533 19.7198C4.35768 19.4375 4.81504 19.4375 5.09855 19.7198L5.77523 20.3965C6.42161 21.0429 7.47281 21.0429 8.11801 20.3965L8.7947 19.7198C9.06771 19.4468 9.54489 19.4468 9.81791 19.7198L10.4946 20.3965C11.12 21.0219 12.2108 21.0231 12.8374 20.3965L13.5141 19.7198C13.7964 19.4375 14.2549 19.4375 14.5373 19.7198L15.214 20.3965C15.5267 20.7092 15.9432 20.8819 16.3854 20.8819C16.8287 20.8819 17.2441 20.7092 17.5567 20.3965L18.2334 19.7198C18.5064 19.4468 18.9836 19.4468 19.2566 19.7198L19.9333 20.3965C20.5797 21.0429 21.6309 21.0429 22.2761 20.3965L22.9528 19.7198C23.2351 19.4375 23.6937 19.4375 23.976 19.7198L24.6527 20.3965C25.2991 21.0429 26.3503 21.0429 26.9955 20.3965L27.8635 19.5285C28.0455 19.3465 28.0455 19.0501 27.8635 18.8682C27.6815 18.6861 27.3863 18.6861 27.2031 18.8682H27.2043Z" fill="var(--fill-0, #6FA59B)"/>
<path id="Vector_2" d="M26.6431 9.21686H18.014L16.8286 11.583C16.7492 11.737 16.5859 11.8396 16.4086 11.8396H1.64248L2.9072 18.1444C2.9492 18.1118 2.98654 18.0791 3.02387 18.0418L3.12654 17.9391C3.9339 17.1364 5.24062 17.1364 6.04332 17.9391L6.15066 18.0418C6.57535 18.4711 7.31736 18.4665 7.74674 18.0418L7.84941 17.9391C8.65211 17.1364 9.95883 17.1364 10.7662 17.9391L10.8689 18.0418C11.3076 18.4805 12.0262 18.4805 12.4649 18.0418L12.5676 17.9391C13.3703 17.1364 14.6817 17.1364 15.4844 17.9391L15.5871 18.0418C16.0258 18.4805 16.7444 18.4805 17.1831 18.0418L17.2858 17.9391C18.0932 17.1364 19.3999 17.1364 20.2026 17.9391L20.3053 18.0418C20.7486 18.4805 21.4626 18.4805 21.9013 18.0418L22.004 17.9391C22.1674 17.7804 22.3493 17.6498 22.5407 17.5517L22.4987 17.5191C21.92 17.0291 21.808 16.1843 22.242 15.559L26.6431 9.21686ZM21.4724 13.235C20.623 13.235 19.9323 12.5443 19.9323 11.6949C19.9323 10.8456 20.623 10.1549 21.4724 10.1549C22.3171 10.1549 23.0078 10.8456 23.0078 11.6949C23.0078 12.5443 22.3171 13.235 21.4724 13.235Z" fill="var(--fill-0, #6FA59B)"/>
<path id="Vector_3" d="M21.4723 11.0885C21.1363 11.0885 20.8657 11.3638 20.8657 11.6952C20.8657 12.0265 21.1363 12.3018 21.4723 12.3018C21.8037 12.3018 22.0743 12.0265 22.0743 11.6952C22.0743 11.3638 21.8037 11.0885 21.4723 11.0885Z" fill="var(--fill-0, #6FA59B)"/>
<path id="Vector_4" d="M22.5563 22.2832L21.6171 23.2224C21.3347 23.5048 20.8762 23.5048 20.5938 23.2224L19.9172 22.5457C19.2906 21.9192 18.1998 21.9192 17.5744 22.5457L16.8977 23.2224C16.6154 23.5048 16.158 23.5048 15.8745 23.2224L15.1978 22.5457C14.5514 21.8994 13.5002 21.8994 12.855 22.5457L12.1783 23.2224C11.896 23.5048 11.4375 23.5048 11.1551 23.2224L10.4784 22.5457C9.85189 21.9192 8.76103 21.9192 8.13565 22.5457L7.45897 23.2224C7.18596 23.4954 6.70877 23.4954 6.43575 23.2224L5.45806 22.2447C5.27605 22.0627 4.98086 22.0627 4.79771 22.2447C4.6157 22.4267 4.6157 22.7219 4.79771 22.9051L5.7754 23.8828C6.42177 24.5291 7.47297 24.5291 8.11818 23.8828L8.79487 23.2061C9.06788 22.9331 9.54506 22.9331 9.81808 23.2061L10.4948 23.8828C11.1213 24.5093 12.2122 24.5081 12.8375 23.8828L13.5142 23.2061C13.7872 22.9331 14.2644 22.9331 14.5374 23.2061L15.2141 23.8828C15.5268 24.1955 15.9433 24.3681 16.3855 24.3681C16.8289 24.3681 17.2442 24.1955 17.5569 23.8828L18.2336 23.2061C18.5066 22.9331 18.9838 22.9331 19.2568 23.2061L19.9335 23.8828C20.5799 24.5291 21.6311 24.5291 22.2763 23.8828L23.2155 22.9436C23.3975 22.7616 23.3975 22.4664 23.2155 22.2832C23.0335 22.1012 22.7383 22.1012 22.5551 22.2832H22.5563Z" fill="var(--fill-0, #6FA59B)"/>
<path id="Vector_5" d="M10.8179 10.9064H16.1242L17.2535 8.65234V5.42303H10.8179L10.8179 10.9064Z" fill="var(--fill-0, #6FA59B)"/>
<path id="Vector_6" d="M18.1869 5.42273H24.6225V8.2835H18.1869V5.42273Z" fill="var(--fill-0, #6FA59B)"/>
<path id="Vector_7" d="M10.8224 2.38014H17.2532V4.48956H10.8224V2.38014Z" fill="var(--fill-0, #6FA59B)"/>
<path id="Vector_8" d="M18.1869 2.38014H24.6225V4.48956H18.1869V2.38014Z" fill="var(--fill-0, #6FA59B)"/>
<path id="Vector_9" d="M3.45811 6.64084H9.88449V10.9063H3.45811V6.64084Z" fill="var(--fill-0, #6FA59B)"/>
<path id="Vector_10" d="M4.5501 3.11755H8.27432V5.70766H4.5501V3.11755Z" fill="var(--fill-0, #6FA59B)"/>
<path id="Vector_11" d="M5.157 0C4.90032 0 4.69031 0.21001 4.69031 0.466685V2.18409H5.62369V0.466685C5.62369 0.21001 5.41834 0 5.157 0Z" fill="var(--fill-0, #6FA59B)"/>
</g>
</svg>
