<svg preserveAspectRatio="none" width="100%" height="100%" overflow="visible" style="display: block;" viewBox="0 0 22 28" fill="none" xmlns="http://www.w3.org/2000/svg">
<g id="Group 18">
<path id="Vector" d="M8 0H14C14.5525 0 15 0.552509 15 0.999994V4.99997C15 5.55248 14.5525 5.99997 14 5.99997H8C7.44749 5.99997 7 5.44746 7 4.99997V0.999994C7 0.447485 7.44749 0 8 0Z" fill="var(--fill-0, #6FA59B)"/>
<path id="Vector_2" d="M21 2.00015H17V5.00013C17 6.65011 15.65 8.00011 14 8.00011H8C6.35002 8.00011 5 6.65011 5 5.00013V2.00015H1C0.449984 2.00015 0 2.45013 0 3.00014V27C0 27.55 0.449984 28 1 28H21C21.55 28 22 27.55 22 27V3.00014C22 2.45013 21.55 2.00015 21 2.00015ZM16 24H6C5.44998 24 5 23.55 5 23C5 22.45 5.44998 22 6 22H16C16.55 22 17 22.45 17 23C17 23.55 16.55 24 16 24ZM16 18.0001H6C5.44998 18.0001 5 17.5501 5 17.0001C5 16.4501 5.44998 16.0001 6 16.0001H16C16.55 16.0001 17 16.4501 17 17.0001C17 17.5501 16.55 18.0001 16 18.0001ZM16 12.0001H6C5.44998 12.0001 5 11.5501 5 11.0001C5 10.4501 5.44998 10.0001 6 10.0001H16C16.55 10.0001 17 10.4501 17 11.0001C17 11.5501 16.55 12.0001 16 12.0001Z" fill="var(--fill-0, #6FA59B)"/>
</g>
</svg>
