<svg preserveAspectRatio="none" width="100%" height="100%" overflow="visible" style="display: block;" viewBox="0 0 32 20.6157" fill="none" xmlns="http://www.w3.org/2000/svg">
<g id="Group 19">
<path id="Vector" d="M16.4109 17.0799C16.4122 16.7826 16.2949 16.4986 16.0842 16.2893C15.8749 16.0799 15.5909 15.9612 15.2935 15.9612C14.9975 15.9612 14.7122 16.0786 14.5028 16.2893L14.4975 16.2946L12.2694 18.5213L12.2508 18.5426V18.5413C11.9308 18.8613 11.8347 19.3427 12.0081 19.76C12.1814 20.1774 12.5881 20.4494 13.0401 20.4494C13.3375 20.4494 13.6228 20.332 13.8335 20.1227L16.0855 17.8693H16.0842C16.2936 17.6599 16.4122 17.376 16.4109 17.0799Z" fill="var(--fill-0, #6FA59B)"/>
<path id="Vector_2" d="M15.2363 14.7372C15.615 14.2931 15.5897 13.6318 15.1763 13.2198C14.739 12.7838 14.0309 12.7851 13.5936 13.2211L13.3056 13.5091L13.2896 13.5264L13.2589 13.5571L9.53349 17.2812C9.21348 17.6012 9.11746 18.0826 9.29081 18.5012C9.46415 18.9186 9.87216 19.1919 10.3255 19.1919C10.5908 19.1919 10.8482 19.0959 11.0495 18.9226L11.1735 18.8025L15.1164 14.8597L15.2363 14.7372Z" fill="var(--fill-0, #6FA59B)"/>
<path id="Vector_3" d="M7.72538 14.3009L9.85345 12.1729H9.85479C10.1735 11.8529 10.2695 11.3715 10.0961 10.9542C9.92279 10.5368 9.51479 10.2648 9.06278 10.2648C8.7961 10.2635 8.53875 10.3595 8.33742 10.5328L8.21342 10.6528L6.20403 12.6596L6.14403 12.7196V12.7249C5.76668 13.1689 5.79204 13.8289 6.20403 14.2423C6.61604 14.6556 7.27739 14.6823 7.72141 14.3009L7.72538 14.3009Z" fill="var(--fill-0, #6FA59B)"/>
<path id="Vector_4" d="M12.8667 11.5541L12.8653 11.5528V11.5541C12.428 11.1194 11.7213 11.1194 11.284 11.5554L7.51724 15.3235C7.09189 15.7475 7.07855 16.4316 7.48657 16.8729C7.89458 17.3129 8.57727 17.3529 9.03327 16.9623H9.03727L12.8866 13.1129H12.8879C13.3053 12.6742 13.296 11.9821 12.8667 11.5541Z" fill="var(--fill-0, #6FA59B)"/>
<path id="Vector_5" d="M31.8594 8.09286L27.4926 0.530038C27.3526 0.286031 27.1206 0.108682 26.8486 0.0366927C26.5753 -0.0366417 26.2846 0.000691123 26.0406 0.142028L24.7472 0.888719C24.2405 1.18206 24.0658 1.83141 24.3579 2.33943L28.7127 9.88621L28.7207 9.89821L28.7367 9.92488H28.738C28.8794 10.1569 29.106 10.3262 29.3687 10.3956C29.4607 10.4209 29.5541 10.4329 29.6488 10.4329C29.8328 10.4329 30.0154 10.3836 30.1754 10.2916L31.4675 9.54487C31.9755 9.25019 32.1501 8.60222 31.8594 8.09286Z" fill="var(--fill-0, #6FA59B)"/>
<path id="Vector_6" d="M23.9846 3.24996C23.4246 3.58197 22.8166 3.82465 22.1805 3.96866C21.4378 4.02466 20.6952 3.85666 20.0485 3.48597C19.6925 3.32063 19.3245 3.18196 18.9458 3.07529C18.6058 2.98729 18.2497 2.97529 17.9031 3.03796C16.691 3.24863 15.5083 3.59531 14.3749 4.07264C14.1416 4.16598 13.9283 4.30465 13.7469 4.47799L13.4656 4.742C12.6362 5.46869 11.8709 6.2647 11.1789 7.12342C11.1189 7.20076 11.1109 7.30476 11.1575 7.3901C11.4255 7.71677 11.8336 7.89812 12.2562 7.87812C13.5163 7.87412 14.671 7.16744 15.247 6.04605C15.299 5.96472 15.3883 5.91538 15.4857 5.91405L15.899 5.91005C16.187 5.90738 16.4203 5.90471 16.7884 5.89938H16.795C16.8884 5.89938 16.975 5.94471 17.0284 6.01938C17.8337 7.3821 19.0911 8.41811 20.5804 8.94747C20.6617 8.96747 20.7497 8.98614 20.8497 9.00214H20.8511C20.9204 9.00614 20.9897 9.01547 21.0577 9.03014C22.2005 9.08481 23.3258 8.73946 24.2405 8.05277C24.3738 7.9661 24.5512 8.00343 24.6379 8.13677C24.7245 8.26877 24.6872 8.44745 24.5552 8.53413C23.9312 8.95815 23.2418 9.27549 22.5138 9.47682L22.0284 9.60082L25.5873 11.6555L25.6286 11.6795L25.8219 11.7902L25.9233 11.7315H25.9246C26.6793 11.2782 27.378 10.7382 28.006 10.1222L28.122 10.0115L24.1607 3.14878L23.9846 3.24996Z" fill="var(--fill-0, #6FA59B)"/>
<path id="Vector_7" d="M25.3271 12.1688L20.8415 9.57944L20.8042 9.5741C19.3882 9.3541 18.0494 8.36875 16.7108 6.56068L16.6481 6.47668L16.5441 6.47801C16.3708 6.48068 16.2254 6.48201 16.0748 6.48335L15.6454 6.48735L15.5854 6.57402V6.57268C14.8801 7.75271 13.6 8.46875 12.2253 8.45274C11.5946 8.47674 10.9973 8.17273 10.6439 7.6487C10.5053 7.37936 10.5266 7.05534 10.6986 6.80599C11.2773 6.05664 11.924 5.36327 12.632 4.73526L12.872 4.50859L12.5627 4.39525C12.016 4.19524 11.4613 4.01923 11.0173 3.87924H11.016C10.068 3.60056 9.14126 3.25656 8.24257 2.85121L8.07189 2.77121L3.93311 9.93808L3.96777 10.0287C4.29845 10.8834 4.81314 11.6555 5.47716 12.2901L5.62516 12.4368L5.7785 12.2742L5.79583 12.2555L7.86656 10.1848H7.86789C8.29191 9.76073 8.90926 9.59272 9.49061 9.74473C10.0719 9.89673 10.528 10.3434 10.692 10.9221L10.776 11.2194L11.016 11.0261V11.0248C11.5 10.6354 12.16 10.5434 12.7333 10.7848C13.3054 11.0274 13.7 11.5634 13.7587 12.1821L13.7814 12.4128L14.0067 12.3622C14.7214 12.1968 15.4601 12.5115 15.8374 13.1395C16.2148 13.7689 16.1441 14.5689 15.6628 15.1209L15.4508 15.3636L15.7601 15.4516C16.3361 15.6169 16.7815 16.0743 16.9321 16.6543C17.0815 17.2343 16.9148 17.8503 16.4908 18.2757L15.7868 18.981L18.3495 20.4597L18.3642 20.4677C18.5322 20.5637 18.7229 20.6157 18.9162 20.6157C19.0149 20.6157 19.1122 20.6024 19.2069 20.577C19.6429 20.461 19.9669 20.093 20.0255 19.645C20.0855 19.1983 19.8709 18.7583 19.4802 18.5316L18.4415 17.9316V17.9303C18.3041 17.8516 18.2575 17.6756 18.3361 17.5383C18.4161 17.401 18.5921 17.353 18.7295 17.433L20.4855 18.4463C21.0202 18.749 21.7002 18.561 22.0042 18.0276C22.3096 17.493 22.1255 16.8129 21.5935 16.5063L19.0628 15.0435C18.9254 14.9635 18.8774 14.7875 18.9574 14.6502C19.0375 14.5129 19.2121 14.4662 19.3508 14.5462L22.6162 16.4316L22.6362 16.4449L22.6455 16.4476C23.1816 16.7436 23.8576 16.5529 24.1589 16.0196C24.4603 15.4862 24.2763 14.8089 23.7456 14.5022L20.8722 12.8421C20.7348 12.7621 20.6882 12.5861 20.7668 12.4488C20.8468 12.3115 21.0228 12.2648 21.1602 12.3435L24.2069 14.1035C24.4643 14.2542 24.7696 14.2969 25.0589 14.2222C25.347 14.1462 25.5923 13.9582 25.7416 13.7009C25.891 13.4422 25.931 13.1355 25.8536 12.8488C25.775 12.5608 25.5858 12.3155 25.3271 12.1688Z" fill="var(--fill-0, #6FA59B)"/>
<path id="Vector_8" d="M7.74792 1.55903C7.67591 1.28702 7.49724 1.05367 7.25324 0.913685L5.95853 0.166995L5.91053 0.138994H5.90786C5.40383 -0.11568 4.78917 0.0669906 4.50647 0.555024L0.142398 8.11785C-0.150945 8.62587 0.0237268 9.27521 0.530403 9.56989L1.82379 10.3179V10.3166C2.33314 10.6099 2.98248 10.4353 3.27583 9.92725L7.64264 2.36579C7.78397 2.12178 7.82125 1.83105 7.74792 1.55903Z" fill="var(--fill-0, #6FA59B)"/>
</g>
</svg>
