<svg preserveAspectRatio="none" width="100%" height="100%" overflow="visible" style="display: block;" viewBox="0 0 40 40" fill="none" xmlns="http://www.w3.org/2000/svg">
<g id="Frame 29">
<path id="Vector" fill-rule="evenodd" clip-rule="evenodd" d="M6.31174 32.3743C6.52155 32.4962 6.76889 32.5331 7.01343 32.4688L8.6627 32.0334C8.89752 31.9718 9.09623 31.8212 9.2171 31.6131C9.33381 31.4132 9.37272 31.1696 9.3088 30.93L7.45109 24.0969C7.37467 23.8423 7.24684 23.6616 7.02176 23.5329C6.79528 23.4042 6.57297 23.385 6.31036 23.4466L4.67777 23.8779C4.44017 23.9409 4.24705 24.0887 4.12754 24.29C4.00387 24.4967 3.96636 24.7404 4.03166 24.9814L5.89493 31.8309C5.95606 32.0664 6.10748 32.2566 6.31174 32.3743ZM24.1273 13.4237C23.6438 14.5751 23.4882 15.8565 23.4812 17.0943V19.3656C23.4548 19.3656 23.4284 19.3642 23.402 19.3642C23.2047 19.3642 23.0088 19.3711 22.8143 19.3861V18.3867C22.5058 17.2928 22.0946 16.4508 21.5916 15.8032C20.8079 16.3988 19.2698 16.4015 17.0856 14.9188C16.3089 14.3917 15.5183 13.9468 14.6791 14.0426C14.6818 14.0426 15.4155 13.102 16.5687 12.4545C17.0717 12.1725 17.6539 11.9452 18.2902 11.8768C19.506 11.7453 20.9232 12.3669 21.6624 13.2417C22.2154 13.8975 22.3224 14.6902 22.0223 15.2871C22.3196 15.6499 22.5878 16.0675 22.8268 16.5508C22.8851 15.1516 23.1436 14.0002 23.5716 13.0351C22.9477 12.4039 22.7837 11.3538 23.2631 10.3297C23.8786 9.01407 25.4154 7.78874 26.9549 7.55598C27.7608 7.43413 28.5542 7.52312 29.2669 7.70795C30.9023 8.13098 32.1181 9.04964 32.1223 9.04827C31.0579 9.20298 30.234 10.008 29.4559 10.9089C27.2133 13.5019 25.2819 13.9603 24.1273 13.4237ZM23.402 20.0226C26.6422 20.0226 29.3724 22.1761 30.1977 25.1116C28.9666 25.5798 27.7064 25.9276 26.4169 26.1904C26.4322 26.0877 26.4392 25.9796 26.435 25.8673C26.4183 25.3703 26.1307 24.9624 25.7153 24.6995C25.3401 24.4627 24.8663 24.3381 24.4231 24.3518C23.438 24.3833 22.3833 24.3449 21.4344 24.0615C20.7688 23.863 20.2242 23.555 19.6323 23.2113C19.0918 22.8964 18.5999 22.6336 18.0802 22.4132C19.3724 20.9482 21.2775 20.0226 23.402 20.0226ZM23.0685 27.8769C24.1079 27.8578 24.8637 27.7345 25.4209 27.4594C25.7057 27.3183 25.9405 27.1404 26.1114 26.9199C27.619 26.6352 28.9584 26.2723 30.2493 25.7946C31.547 25.314 32.7976 24.7171 34.1246 23.9654C34.875 23.541 35.4752 23.6437 35.7795 23.9805C36.1574 24.3967 36.0838 25.1689 35.2904 25.7425C33.9134 26.7364 31.7904 27.8372 29.3573 28.7832C27.1606 29.6389 24.7179 30.3659 22.3532 30.7739C19.9926 31.1819 19.9634 31.2311 17.9763 30.5028C16.5049 29.9634 15.0849 29.7156 13.7858 29.6485C12.2283 29.5677 10.8402 29.7443 9.73976 29.9839L8.20442 24.3366C8.52955 24.1887 8.81437 24.0463 9.09089 23.9094C9.42853 23.7424 9.7509 23.5822 10.0802 23.4398C11.2723 22.925 12.3881 22.5814 13.4607 22.4322C14.5223 22.2843 15.5421 22.3295 16.5536 22.591C17.8139 22.9168 18.578 23.3618 19.2908 23.7766C20.4983 24.4789 21.5626 25.1005 24.4428 25.0088C24.7443 24.9992 25.0861 25.0827 25.3543 25.2525C25.5891 25.4003 25.7586 25.6153 25.7683 25.8891C25.7836 26.3477 25.5432 26.6667 25.1236 26.8734C24.6623 27.1021 24.0024 27.2048 23.0658 27.2212C22.0863 27.2116 21.2109 27.1144 20.3606 26.9748C19.3199 26.8036 18.3208 26.5668 17.5483 26.3422C17.3719 26.2916 17.1871 26.3902 17.1356 26.564C17.0842 26.7379 17.1843 26.92 17.3607 26.9707C18.1569 27.202 19.1837 27.4457 20.2522 27.621C21.1275 27.7661 22.0362 27.866 23.0685 27.8769Z" fill="var(--fill-0, #6FA59B)"/>
</g>
</svg>
