<svg preserveAspectRatio="none" width="100%" height="100%" overflow="visible" style="display: block;" viewBox="0 0 32 32" fill="none" xmlns="http://www.w3.org/2000/svg">
<g id="Frame 13">
<path id="Vector" d="M22.51 5.99005H20.51V5.89948C20.51 4.8504 19.6595 4 18.6105 4H13.6295C12.5804 4 11.73 4.8504 11.73 5.89948V5.99005H9.48999C7.78003 5.99005 6.40002 7.37006 6.40002 9.07001V24.92C6.40002 26.6201 7.78003 28 9.48999 28H22.51C24.21 28 25.6 26.6201 25.6 24.92V9.07001C25.6 7.37006 24.21 5.99005 22.51 5.99005ZM13.77 22.85L12.06 24.56C11.6811 24.9388 11.0359 24.9559 10.64 24.56L9.78003 23.7C9.39001 23.31 9.39001 22.6801 9.78003 22.29C10.17 21.9 10.81 21.9 11.2 22.29L11.35 22.44L12.36 21.4301C12.75 21.04 13.38 21.04 13.77 21.4301C14.16 21.82 14.16 22.46 13.77 22.85ZM13.77 17.54L12.06 19.26C11.662 19.6381 11.0558 19.655 10.64 19.26L9.78003 18.4C9.39001 18.01 9.39001 17.38 9.78003 16.9901C10.17 16.59 10.81 16.6 11.2 16.98L11.35 17.14L12.36 16.13C12.75 15.7401 13.38 15.7401 13.77 16.13C14.16 16.52 14.16 17.15 13.77 17.54ZM13.77 11.88L12.06 13.6C11.6613 13.9788 11.055 13.9943 10.64 13.6L9.78003 12.7401C9.39001 12.35 9.39001 11.72 9.78003 11.33C10.17 10.9301 10.81 10.9301 11.2 11.32L11.35 11.48L12.36 10.47C12.75 10.08 13.38 10.08 13.77 10.47C14.16 10.86 14.16 11.4901 13.77 11.88ZM21.5 24H17.6C17.05 24 16.6 23.55 16.6 23C16.6 22.44 17.05 22 17.6 22H21.5C22.06 22 22.5 22.44 22.5 23C22.5 23.55 22.06 24 21.5 24ZM21.5 18.69H17.6C17.05 18.69 16.6 18.2401 16.6 17.69C16.6 17.14 17.05 16.69 17.6 16.69H21.5C22.06 16.69 22.5 17.14 22.5 17.69C22.5 18.2401 22.06 18.69 21.5 18.69ZM21.5 13.03H17.6C17.05 13.03 16.6 12.58 16.6 12.03C16.6 11.48 17.05 11.03 17.6 11.03H21.5C22.06 11.03 22.5 11.48 22.5 12.03C22.5 12.58 22.06 13.03 21.5 13.03Z" fill="var(--fill-0, #6FA59B)"/>
</g>
</svg>
