<svg preserveAspectRatio="none" width="100%" height="100%" overflow="visible" style="display: block;" viewBox="0 0 38.3998 48" fill="none" xmlns="http://www.w3.org/2000/svg">
<path id="Vector" d="M32.2199 3.9801H28.2199V3.79895C28.2199 1.70081 26.519 0 24.421 0H14.4588C12.3608 0 10.6599 1.70081 10.6599 3.79895V3.9801H6.17992C2.76 3.9801 0 6.74011 0 10.14V41.8401C0 45.2401 2.76 48 6.17992 48H32.2199C35.6199 48 38.3998 45.2401 38.3998 41.8401V10.14C38.3998 6.74011 35.6199 3.9801 32.2199 3.9801ZM14.74 37.7001L11.3199 41.12C10.5622 41.8777 9.27181 41.9118 8.47996 41.12L6.75999 39.4C5.97997 38.62 5.97997 37.3601 6.75999 36.5801C7.5399 35.8 8.81992 35.8 9.59995 36.5801L9.89988 36.88L11.9199 34.8601C12.6999 34.0801 13.9599 34.0801 14.74 34.8601C15.5199 35.64 15.5199 36.92 14.74 37.7001ZM14.74 27.0801L11.3199 30.52C10.524 31.2761 9.31161 31.3101 8.47996 30.52L6.75999 28.8C5.97997 28.02 5.97997 26.76 6.75999 25.9801C7.5399 25.1801 8.81992 25.2001 9.59995 25.9601L9.89988 26.28L11.9199 24.26C12.6999 23.4801 13.9599 23.4801 14.74 24.26C15.5199 25.04 15.5199 26.3 14.74 27.0801ZM14.74 15.76L11.3199 19.2001C10.5225 19.9576 9.30996 19.9885 8.47996 19.2001L6.75999 17.4801C5.97997 16.7001 5.97997 15.4401 6.75999 14.66C7.5399 13.8601 8.81992 13.8601 9.59995 14.64L9.89988 14.9601L11.9199 12.9401C12.6999 12.16 13.9599 12.16 14.74 12.9401C15.5199 13.7201 15.5199 14.9801 14.74 15.76ZM30.1999 40H22.3998C21.2999 40 20.3999 39.1001 20.3999 38C20.3999 36.88 21.2999 36 22.3998 36H30.1999C31.3199 36 32.1999 36.88 32.1999 38C32.1999 39.1001 31.3199 40 30.1999 40ZM30.1999 29.38H22.3998C21.2999 29.38 20.3999 28.4801 20.3999 27.38C20.3999 26.28 21.2999 25.38 22.3998 25.38H30.1999C31.3199 25.38 32.1999 26.28 32.1999 27.38C32.1999 28.4801 31.3199 29.38 30.1999 29.38ZM30.1999 18.0601H22.3998C21.2999 18.0601 20.3999 17.16 20.3999 16.0601C20.3999 14.9601 21.2999 14.0601 22.3998 14.0601H30.1999C31.3199 14.0601 32.1999 14.9601 32.1999 16.0601C32.1999 17.16 31.3199 18.0601 30.1999 18.0601Z" fill="var(--fill-0, #F7F2EA)"/>
</svg>
