<svg preserveAspectRatio="none" width="100%" height="100%" overflow="visible" style="display: block;" viewBox="0 0 52.3298 48" fill="none" xmlns="http://www.w3.org/2000/svg">
<g id="Vector">
<path d="M30.4884 33.6173C30.9387 33.2181 30.9813 32.5292 30.5821 32.0784C30.1807 31.627 29.4929 31.5865 29.0426 31.9852C24.4827 36.0234 21.4825 40.9597 20.124 46.6566C19.9845 47.2422 20.3454 47.8304 20.9321 47.9699C21.5115 48.1092 22.1044 47.7521 22.2448 47.1624C23.4968 41.9099 26.2702 37.3527 30.4884 33.6173Z" fill="var(--fill-0, #F7F2EA)"/>
<path d="M51.2396 36.1751C51.8422 36.1751 52.3298 35.687 52.3298 35.0849C52.3298 34.4829 51.8422 33.9947 51.2396 33.9947H43.3833C45.2047 32.2811 46.7388 31.2581 47.3235 30.8934H51.2396C51.8422 30.8934 52.3298 30.4052 52.3298 29.8032C52.3298 29.2011 51.8422 28.713 51.2396 28.713H50.9347V16.2359C50.9347 15.7889 50.6839 15.3746 50.2696 15.1784L41.2428 10.7413V5.30115C41.2428 4.88687 41.0138 4.49441 40.654 4.27636L33.5023 0.155356C33.1426 -0.0517853 32.6955 -0.0517853 32.3249 0.155356L25.1732 4.27636C24.8025 4.49441 24.5735 4.88687 24.5735 5.30115V10.7413L15.5576 15.1784C15.1542 15.3746 14.8926 15.7889 14.8926 16.2359V28.713H7.13024V22.788C9.2998 22.0357 10.9133 19.0595 10.9133 15.5164C10.9133 11.3954 8.73288 2.68464 6.04004 2.68464C3.34727 2.68464 1.16686 11.3954 1.16686 15.5164C1.16686 19.0595 2.78034 22.0357 4.94983 22.788V28.713H1.0902C0.487611 28.713 0 29.2011 0 29.8032C0 30.4052 0.487611 30.8934 1.0902 30.8934H15.9136C15.1764 31.4881 14.3538 32.213 13.4911 33.0738H1.0902C0.487611 33.0738 0 33.562 0 34.164C0 34.7661 0.487611 35.2542 1.0902 35.2542H11.5122C10.6679 36.2747 9.83346 37.4106 9.0558 38.6856H1.0902C0.487611 38.6856 0 39.1737 0 39.7758C0 40.3778 0.487611 40.866 1.0902 40.866H7.85886C7.55105 41.4881 7.26219 42.1367 6.99177 42.8095H1.0902C0.487611 42.8095 0 43.2976 0 43.8997C0 44.5018 0.487611 44.9899 1.0902 44.9899H6.22609C6.0588 45.5353 5.89245 46.0821 5.75551 46.6566C5.59248 47.3411 6.11116 47.9997 6.81697 47.9997C7.3099 47.9997 7.75706 47.6627 7.8763 47.1623C10.2606 37.1602 18.146 31.8309 19.6489 30.8934H23.0574C19.8118 33.5117 14.8051 38.6622 12.8993 46.6566C12.7363 47.3411 13.255 47.9997 13.9608 47.9997C14.4537 47.9997 14.9009 47.6627 15.0201 47.1623C17.4044 37.1602 25.2898 31.8309 26.7927 30.8934H37.3027C34.0569 33.512 29.0501 38.6626 27.1444 46.6566C27.0049 47.2422 27.3658 47.8304 27.9524 47.9699C28.5309 48.109 29.1245 47.7525 29.2652 47.1623C31.6495 37.1602 39.5359 31.8309 41.0388 30.8934H43.5873C38.4008 35.0778 34.8316 40.7724 33.429 46.6566C33.266 47.3411 33.7847 47.9997 34.4905 47.9997C34.9834 47.9997 35.4306 47.6627 35.5498 47.1623C35.7291 46.41 35.945 45.6896 36.1817 44.9899H51.2396C51.8422 44.9899 52.3298 44.5018 52.3298 43.8997C52.3298 43.2976 51.8422 42.8095 51.2396 42.8095H37.0446C37.3479 42.1317 37.6734 41.4857 38.0167 40.866H50.9351C51.5377 40.866 52.0253 40.3778 52.0253 39.7758C52.0253 39.1737 51.5377 38.6856 50.9351 38.6856H39.3542C39.9845 37.7673 40.6391 36.9326 41.2955 36.1751H51.2396ZM38.7353 18.5144V28.713H34.0061V17.4271L34.0055 17.4242H37.6451C38.2472 17.4242 38.7353 17.9123 38.7353 18.5144ZM32.9136 5.92257C34.5271 5.92257 35.8244 7.21992 35.8244 8.8334C35.8244 10.436 34.5271 11.7442 32.9136 11.7442C31.311 11.7442 30.0028 10.436 30.0028 8.8334C30.0028 7.21992 31.311 5.92257 32.9136 5.92257ZM28.1821 17.4242H31.8263L31.8257 17.4271V28.713H27.0919V18.5144C27.0919 17.9123 27.58 17.4242 28.1821 17.4242Z" fill="var(--fill-0, #F7F2EA)"/>
</g>
</svg>
