<svg width="32" height="32" viewBox="0 0 32 32" fill="none" xmlns="http://www.w3.org/2000/svg">
<path d="M27.7989 5.31577L26.7869 4.29732C25.6255 3.12819 21.3519 5.50992 17.2041 9.63576L13.7768 13.044C13.911 12.5339 14.0196 12.0159 14.1275 11.501C14.2936 10.7081 14.4841 9.90618 14.4756 9.09613C14.4683 8.4064 14.1361 7.05487 14.1361 7.05487C14.1361 7.05487 13.7666 8.62223 13.4898 9.37732C13.1878 10.2011 12.8148 11.0016 12.3902 11.7694C11.9669 12.5349 11.4857 13.2708 10.954 13.9654C10.2503 14.8849 9.39623 15.6812 8.64279 16.5605C7.73532 17.6196 6.76399 18.6353 5.98066 19.7892C5.67772 20.2354 5.41808 20.7117 5.20078 21.2054C4.98313 21.6998 4.76464 22.2085 4.68221 22.7424C4.58323 23.3835 4.87209 24.8617 4.87638 24.8837C4.77657 24.9755 4.66321 25.0805 4.54022 25.1989C4.17674 25.5489 3.89595 25.8407 3.9094 25.8547L5.9747 27.9995C5.98816 28.0135 6.29033 27.7439 6.65382 27.3938C6.75736 27.2941 6.84628 27.2061 6.93126 27.121C7.02211 27.1339 8.23026 27.3023 8.85542 27.2298C9.39205 27.1676 9.90859 26.9685 10.4109 26.7696C10.9124 26.5711 11.3982 26.3297 11.8555 26.0438C13.0382 25.3046 14.0899 24.3723 15.1824 23.5055C16.0896 22.7858 16.916 21.9639 17.8615 21.2954C18.5757 20.7903 19.3293 20.3372 20.1102 19.9431C20.8935 19.5478 21.7075 19.2054 22.5421 18.9347C23.3071 18.6866 24.8888 18.3751 24.8888 18.3751C24.8888 18.3751 23.5508 17.9921 22.8618 17.9588C22.0526 17.9197 21.2441 18.0798 20.4455 18.2159C19.8674 18.3144 19.2847 18.4129 18.7129 18.5481L22.4074 14.874C26.5551 10.7482 28.9604 6.48489 27.7989 5.31577Z" fill="#6FA59B"/>
</svg>
