<svg width="26" height="24" viewBox="0 0 26 24" fill="none" xmlns="http://www.w3.org/2000/svg">
<path d="M14.4766 1.82795C7.39262 -0.627065 9.86857 -0.595807 2.78729 1.84097C2.27964 2.03883 1.94117 2.53086 1.94117 3.07757L1.93336 9.9349C1.93206 10.3879 2.17938 10.807 2.56991 11.0257C3.10492 10.8357 3.87553 10.5623 4.41444 10.3696L5.2189 10.0846C6.18869 9.7396 7.25738 9.74093 8.22843 10.0859C8.24145 10.0911 11.2041 11.1455 11.2145 11.1494C11.2119 11.1441 11.2197 8.50429 11.2171 8.4952C11.2171 7.71416 11.6988 7.00867 12.4199 6.71968C13.2608 6.41378 14.5417 5.9647 15.3748 5.66659L15.3592 3.06839C15.3566 2.51125 15.0012 2.0114 14.4766 1.82395L14.4766 1.82795ZM13.637 3.31971C13.2829 3.44989 9.84108 4.72294 9.60414 4.81018C9.26051 4.93774 9.03008 5.26838 9.03008 5.63547V9.19043C9.03008 9.40651 8.85565 9.58095 8.63956 9.58095C8.42347 9.58095 8.24904 9.40652 8.24904 9.19043V5.63547C8.24904 5.38034 8.30761 5.13561 8.41435 4.91561C8.08112 4.9039 7.75178 4.84011 7.43287 4.72166L3.80626 3.38092C3.60319 3.30672 3.50036 3.07632 3.57455 2.87977C3.64875 2.6767 3.87395 2.57386 4.07701 2.64806L4.32954 2.74179L7.70356 3.98882C8.14353 4.15153 8.61606 4.17887 9.07166 4.06953L9.8644 3.87948C10.0922 3.79617 13.2644 2.62335 13.3634 2.58559C13.8528 2.42288 14.1132 3.1219 13.6341 3.31714L13.637 3.31971Z" fill="#6FA59B"/>
<path d="M24.3396 7.24803L19.8292 5.64174C18.9858 5.33974 18.0563 5.33974 17.2128 5.63913C16.8119 5.78102 15.7653 6.15462 15.38 6.28998C14.983 6.43056 14.4167 6.63361 14.0158 6.7742L12.6867 7.24543C12.1622 7.43548 11.8016 7.93533 11.8042 8.49766C11.8042 8.8387 11.8016 11.0711 11.8016 11.3588C12.0086 11.4317 12.3171 11.5436 12.5254 11.6165C12.5605 11.6295 12.7024 11.679 12.7414 11.6933C13.0473 11.8014 13.322 11.9901 13.5342 12.2309C13.8336 12.5707 14.0106 13.0146 14.0132 13.4858C14.0158 13.9518 14.0288 15.8913 14.0314 16.3209C14.0314 16.5344 14.0353 16.9678 14.0366 17.1813L17.5876 18.8032C17.8792 18.936 18.1929 19.0037 18.5066 19.0037C18.8203 19.0037 19.1288 18.9386 19.4191 18.8058L24.5323 16.494C24.9801 16.2909 25.269 15.8406 25.2664 15.3472L25.2222 8.48987C25.2196 7.93274 24.8655 7.43288 24.3396 7.24544L24.3396 7.24803ZM18.1111 17.5004V11.0543C18.1111 10.8004 18.171 10.5544 18.2764 10.3344C17.9431 10.3227 17.6125 10.2589 17.2949 10.1417L15.9854 9.65752C15.246 9.38417 14.4077 9.07306 13.6684 8.80101C13.1893 8.60315 13.4497 7.90543 13.9391 8.06815C14.0966 8.12673 14.4468 8.2556 14.6108 8.31548C15.423 8.61617 16.743 9.10431 17.5657 9.40889C18.0056 9.5716 18.4782 9.59894 18.9338 9.4896L19.7278 9.29955C19.9413 9.21884 23.1368 8.03952 23.2268 8.00566C23.4299 7.93146 23.6537 8.0343 23.7292 8.23736C23.8034 8.43783 23.7006 8.66431 23.4975 8.73982L19.9672 10.0441L19.4648 10.229C19.1211 10.3565 18.8907 10.6872 18.8907 11.0543C18.8881 11.1011 18.8959 17.503 18.8881 17.5457C18.8204 18.0247 18.124 17.9909 18.1097 17.4988L18.1111 17.5004Z" fill="#6FA59B"/>
<path d="M13.4481 16.9145C13.4481 16.4772 13.4403 15.8472 13.439 15.4072L13.426 13.4885C13.4247 12.9457 13.0823 12.4523 12.5798 12.2597C11.916 12.0202 11.0959 11.7312 10.4281 11.493L8.03168 10.6391C7.10749 10.3032 6.08695 10.354 5.18095 10.7211L4.38691 11.0022C3.34814 11.3693 1.89937 11.8835 0.853936 12.2597C0.346283 12.4575 0.00781465 12.9496 0.00781465 13.495L4.41846e-06 20.3523C-0.0012972 20.8417 0.285078 21.2882 0.731559 21.4913L5.79009 23.8005C6.37065 24.0661 7.03973 24.0661 7.62159 23.8031L12.7348 21.4913C13.1839 21.2882 13.4715 20.8379 13.4689 20.3432C13.4676 19.8733 13.4494 17.3232 13.4468 16.9119L13.4481 16.9145ZM6.70537 22.8895C6.48799 22.8908 6.31485 22.7111 6.31485 22.4989V16.0528C6.31485 15.7977 6.37343 15.553 6.48017 15.333C6.14693 15.3226 5.81629 15.2575 5.49869 15.1403L1.87207 13.7996C1.6677 13.7254 1.56617 13.495 1.64037 13.2971C1.71457 13.0941 1.93976 12.9912 2.14282 13.0654L5.76934 14.4062C6.20932 14.5689 6.68185 14.5975 7.13745 14.4882L7.93148 14.2981C8.07597 14.2448 10.7848 13.2425 11.023 13.1552C11.1246 13.1175 11.3289 13.042 11.4305 13.0043C11.558 12.9574 11.6947 12.9808 11.7976 13.0563C12.0058 13.2008 12.0071 13.5405 11.7976 13.685C11.7533 13.7306 11.2782 13.8881 11.2118 13.918C10.8382 14.056 7.96014 15.1195 7.66983 15.2276C7.32619 15.3551 7.09576 15.6858 7.09576 16.0528V22.499C7.09836 22.7098 6.92146 22.8908 6.70537 22.8895Z" fill="#6FA59B"/>
</svg>
