<svg preserveAspectRatio="none" width="100%" height="100%" overflow="visible" style="display: block;" viewBox="0 0 32 32" fill="none" xmlns="http://www.w3.org/2000/svg">
<g id="Frame 13">
<g id="Vector">
<path d="M17.8433 5.82798C10.7594 3.37296 13.2353 3.40422 6.15407 5.84099C5.64642 6.03885 5.30795 6.53089 5.30795 7.0776L5.30014 13.9349C5.29884 14.3879 5.54616 14.8071 5.93669 15.0257C6.4717 14.8357 7.24231 14.5623 7.78122 14.3697L8.58569 14.0846C9.55547 13.7396 10.6242 13.741 11.5952 14.0859C11.6082 14.0911 14.5709 15.1455 14.5813 15.1494C14.5787 15.1442 14.5865 12.5043 14.5839 12.4952C14.5839 11.7142 15.0655 11.0087 15.7867 10.7197C16.6276 10.4138 17.9085 9.96473 18.7416 9.66662L18.726 7.06841C18.7234 6.51128 18.368 6.01142 17.8434 5.82398L17.8433 5.82798ZM17.0038 7.31974C16.6497 7.44991 13.2079 8.72296 12.9709 8.8102C12.6273 8.93777 12.3969 9.2684 12.3969 9.63549V13.1905C12.3969 13.4065 12.2224 13.581 12.0063 13.581C11.7902 13.581 11.6158 13.4065 11.6158 13.1905V9.63549C11.6158 9.38036 11.6744 9.13564 11.7811 8.91564C11.4479 8.90392 11.1186 8.84014 10.7997 8.72169L7.17304 7.38095C6.96997 7.30675 6.86714 7.07635 6.94134 6.87979C7.01553 6.67672 7.24073 6.57389 7.44379 6.64809L7.69632 6.74181L11.0703 7.98885C11.5103 8.15156 11.9828 8.17889 12.4384 8.06955L13.2312 7.87951C13.459 7.7962 16.6312 6.62337 16.7302 6.58562C17.2196 6.42291 17.4799 7.12193 17.0009 7.31717L17.0038 7.31974Z" fill="var(--fill-0, #6FA59B)"/>
<path d="M27.7064 11.2481L23.196 9.64176C22.3525 9.33977 21.4231 9.33977 20.5796 9.63916C20.1787 9.78105 19.1321 10.1546 18.7468 10.29C18.3498 10.4306 17.7835 10.6336 17.3826 10.7742L16.0535 11.2455C15.5289 11.4355 15.1684 11.9354 15.171 12.4977C15.171 12.8387 15.1684 15.0712 15.1684 15.3588C15.3754 15.4317 15.6839 15.5437 15.8921 15.6166C15.9273 15.6296 16.0692 15.679 16.1082 15.6934C16.4141 15.8014 16.6888 15.9901 16.901 16.231C17.2004 16.5707 17.3774 17.0146 17.38 17.4858C17.3826 17.9518 17.3956 19.8914 17.3982 20.3209C17.3982 20.5344 17.4021 20.9678 17.4034 21.1813L20.9544 22.8032C21.246 22.936 21.5597 23.0037 21.8734 23.0037C22.1871 23.0037 22.4956 22.9386 22.7859 22.8058L27.8991 20.494C28.3469 20.291 28.6358 19.8406 28.6332 19.3472L28.589 12.4899C28.5864 11.9328 28.2323 11.4329 27.7064 11.2455L27.7064 11.2481ZM21.4779 21.5004V15.0543C21.4779 14.8004 21.5377 14.5544 21.6432 14.3344C21.3099 14.3227 20.9793 14.2589 20.6617 14.1418L19.3522 13.6575C18.6128 13.3842 17.7745 13.0731 17.0351 12.801C16.5561 12.6032 16.8165 11.9055 17.3059 12.0682C17.4634 12.1268 17.8135 12.2556 17.9776 12.3155C18.7898 12.6162 20.1097 13.1043 20.9324 13.4089C21.3724 13.5716 21.8449 13.599 22.3005 13.4896L23.0946 13.2996C23.3081 13.2189 26.5036 12.0395 26.5936 12.0057C26.7966 11.9315 27.0205 12.0343 27.096 12.2374C27.1702 12.4379 27.0674 12.6643 26.8643 12.7398L23.334 14.0442L22.8316 14.229C22.4879 14.3566 22.2575 14.6872 22.2575 15.0543C22.2549 15.1012 22.2627 21.5031 22.2549 21.5457C22.1872 22.0248 21.4908 21.9909 21.4765 21.4989L21.4779 21.5004Z" fill="var(--fill-0, #6FA59B)"/>
<path d="M16.8149 20.9146C16.8149 20.4772 16.8071 19.8472 16.8058 19.4072L16.7927 17.4885C16.7914 16.9457 16.4491 16.4523 15.9466 16.2597C15.2827 16.0202 14.4627 15.7312 13.7949 15.493L11.3985 14.6391C10.4743 14.3032 9.45373 14.354 8.54773 14.7211L7.75369 15.0023C6.71493 15.3693 5.26615 15.8835 4.22072 16.2597C3.71307 16.4575 3.3746 16.9496 3.3746 17.495L3.36679 24.3523C3.36548 24.8418 3.65186 25.2882 4.09834 25.4913L9.15687 27.8005C9.73744 28.0661 10.4065 28.0661 10.9884 27.8031L16.1016 25.4913C16.5507 25.2883 16.8383 24.8379 16.8357 24.3432C16.8344 23.8733 16.8162 21.3233 16.8136 20.9119L16.8149 20.9146ZM10.0722 26.8895C9.85477 26.8908 9.68163 26.7112 9.68163 26.499V20.0529C9.68163 19.7977 9.74021 19.553 9.84695 19.333C9.51371 19.3226 9.18308 19.2575 8.86547 19.1404L5.23885 17.7996C5.03449 17.7254 4.93295 17.495 5.00715 17.2972C5.08135 17.0941 5.30654 16.9913 5.50961 17.0655L9.13613 18.4062C9.5761 18.5689 10.0486 18.5976 10.5042 18.4882L11.2983 18.2982C11.4428 18.2448 14.1516 17.2425 14.3898 17.1553C14.4913 17.1175 14.6957 17.042 14.7972 17.0043C14.9248 16.9574 15.0615 16.9808 15.1643 17.0563C15.3726 17.2008 15.3739 17.5406 15.1643 17.6851C15.1201 17.7306 14.645 17.8881 14.5786 17.9181C14.205 18.056 11.3269 19.1195 11.0366 19.2276C10.693 19.3551 10.4625 19.6858 10.4625 20.0529V26.499C10.4651 26.7099 10.2882 26.8908 10.0722 26.8895Z" fill="var(--fill-0, #6FA59B)"/>
</g>
</g>
</svg>
