<svg preserveAspectRatio="none" width="100%" height="100%" overflow="visible" style="display: block;" viewBox="0 0 32 32" fill="none" xmlns="http://www.w3.org/2000/svg">
<g id="Frame 13">
<g id="Vector">
<path d="M15.0714 13.801C15.2926 13.2036 15.5582 12.6592 15.8503 12.1636C15.067 10.234 13.7658 8.93301 12.8718 8.21161C12.354 7.79118 11.6946 7.60091 11.0396 7.65843C11.137 7.7912 11.2387 7.9505 11.3317 8.13197C11.8052 9.0569 12.6814 11.0396 13.1904 13.9337C13.8941 17.9831 14.1286 23.245 13.2258 25.4755C13.1904 25.5596 13.1594 25.6481 13.1284 25.7322C13.3674 25.4799 13.6507 25.2144 13.987 24.9223C14.279 24.6701 14.549 24.3736 14.7924 24.0505C13.6064 21.019 13.9207 16.9256 15.0714 13.801Z" fill="var(--fill-0, #6FA59B)"/>
<path d="M6.71595 14.841C6.42388 12.0795 6.65842 10.004 6.91067 8.75151C6.9505 8.54794 7.00361 8.3709 7.06557 8.21603C6.41501 8.33995 5.83084 8.70285 5.45025 9.24717C4.64479 10.3934 3.48532 12.5398 3.61807 15.3058C3.82164 19.5102 5.89723 24.2011 8.95958 25.6263C9.35345 25.8122 9.69865 25.9892 9.99514 26.1662C9.94203 26.0954 9.88893 26.0202 9.8314 25.9449C8.35326 24.0464 7.14522 18.9213 6.71595 14.841Z" fill="var(--fill-0, #6FA59B)"/>
<path d="M8.25166 7.14841L9.61251 6.95811H9.61362L9.90682 6.91717C9.97321 6.53991 10.0971 6.11837 10.3273 5.75767C10.5718 5.37375 10.5939 4.89027 10.3306 4.51852L10.2808 4.44882C9.82937 3.81375 8.87014 3.86134 8.48069 4.53622C7.98283 5.40031 7.91312 6.37172 7.98503 7.18381L8.25057 7.1473L8.25166 7.14841Z" fill="var(--fill-0, #6FA59B)"/>
<path d="M10.5439 8.53485C10.2916 8.04361 9.99952 7.8002 9.73399 7.8356L8.36651 8.0259C8.10098 8.0613 7.88855 8.37994 7.77792 8.92429C7.5655 9.98642 7.30438 12.0045 7.59648 14.7481C8.03461 18.9213 9.23391 23.7363 10.535 25.4048C10.8891 25.8651 11.1546 26.2811 11.3449 26.6263C11.4511 26.8254 11.5662 26.9228 11.668 26.9272H11.6768C11.6989 26.9272 11.7211 26.9228 11.7388 26.9139C11.8361 26.8785 11.9158 26.7546 11.9645 26.5422C12.053 26.1527 12.1902 25.6792 12.407 25.1437C13.1992 23.1832 13.0355 18.222 12.3185 14.0888C11.8406 11.3715 11.0395 9.49954 10.5439 8.53485Z" fill="var(--fill-0, #6FA59B)"/>
<path d="M27.1861 11.1822C26.8487 10.5516 26.2568 10.098 25.5664 9.91208L21.984 8.95285C21.2925 8.76808 20.5546 8.86545 19.9461 9.24271C18.7567 9.98178 16.856 11.5064 15.9001 14.1064C14.4463 18.0584 14.5304 23.1875 16.7929 25.6924C17.4125 26.3783 17.8218 26.9514 18.0918 27.4095C18.4259 27.9748 19.1406 28.1662 19.7126 27.8432C20.1751 27.5821 20.8168 27.29 21.6953 27.0056C24.9072 25.9678 27.5426 21.5667 28.2595 17.4168C28.7308 14.6873 27.8468 12.416 27.1863 11.1811L27.1861 11.1822ZM25.0375 11.8848C25.1924 11.9246 25.3208 12.022 25.3871 12.1459C25.6217 12.584 25.9226 13.2434 26.1218 14.0533L23.2053 13.27L23.6744 11.5175L25.0375 11.8848ZM21.0235 10.9775C21.143 10.9023 21.3023 10.8846 21.4572 10.9244L22.8203 11.2873V11.2917L22.3512 13.0443L19.4347 12.2609C20.0145 11.6591 20.5987 11.2386 21.0235 10.9775ZM18.8241 12.9735C18.8683 13.0133 18.9214 13.0399 18.9834 13.0576L22.121 13.8984L21.7537 15.2659L18.0408 14.2702C18.2665 13.7833 18.532 13.3541 18.8241 12.9735ZM17.7177 15.0933C17.7265 15.1022 17.7398 15.1022 17.7487 15.1066L21.5236 16.12L21.1563 17.492L17.3502 16.4741C17.3413 16.4696 17.3369 16.4696 17.3281 16.4696C17.4298 16.005 17.5628 15.5403 17.7177 15.0933ZM17.1601 17.3371L20.9305 18.3461L20.5631 19.718L17.0981 18.7887C17.0671 18.7798 17.0317 18.771 17.0007 18.771C17.0272 18.2974 17.0804 17.8194 17.1601 17.3371ZM16.9742 19.6693L20.3331 20.5721L19.9657 21.9396L17.2706 21.2182C17.2086 21.2005 17.1422 21.2005 17.0847 21.2094C17.0139 20.7181 16.9786 20.2048 16.9742 19.6693ZM18.3063 24.3251C17.8327 23.7985 17.4831 23.0373 17.2574 22.1345L19.7357 22.7983L19.0807 25.25C18.8506 24.9447 18.5895 24.6393 18.3063 24.3251ZM21.0678 25.0642C20.6651 25.1925 20.2889 25.3297 19.9349 25.4802L20.5898 23.0285L23.0725 23.6923C22.4264 24.365 21.7449 24.8473 21.0678 25.0642ZM23.6833 22.9798C23.639 22.9399 23.5815 22.9134 23.5195 22.8957L20.82 22.1699L21.1873 20.798L24.5462 21.7008C24.2762 22.161 23.9886 22.5903 23.6833 22.9798ZM24.9755 20.9086C24.949 20.8953 24.9136 20.8821 24.8826 20.8732L21.4175 19.9439L21.7848 18.5764L25.5553 19.5854C25.3827 20.0412 25.188 20.4882 24.9755 20.9086ZM25.8429 18.7489C25.8341 18.7445 25.8252 18.7445 25.8164 18.7401L22.0103 17.7222L22.382 16.3459L26.157 17.3593C26.1703 17.3637 26.1791 17.3682 26.1924 17.3682C26.1039 17.8328 25.9846 18.2931 25.8429 18.7489ZM26.3253 16.4875L22.6079 15.4918L22.9752 14.1243L26.1129 14.9651C26.1483 14.9784 26.1881 14.9828 26.2279 14.9828C26.2501 14.9828 26.2766 14.9828 26.2987 14.9784C26.3518 15.452 26.3696 15.9564 26.3253 16.4875Z" fill="var(--fill-0, #6FA59B)"/>
</g>
</g>
</svg>
