<svg xmlns="http://www.w3.org/2000/svg" version="1.1" viewBox="0 0 100 100">
 <path d="m86.363 68.426s0-0.003906-0.003906-0.003906l-5.8164-3.3555v-0.75391c0-0.054688-0.03125-0.10938-0.078125-0.13672l-6.1133-3.5352 0.023438-10.324c0-0.054687-0.03125-0.10938-0.078125-0.13672l-1.7969-1.0352c-0.050781-0.027343-0.10938-0.027343-0.15625 0l-0.96484 0.55859-4.6016-2.6602 0.011718-6.9141 1.3906-0.80859c0.046874-0.027343 0.078124-0.078124 0.078124-0.13672l0.003907-1.8594c0-0.003907 0.003906-0.003907 0.003906-0.003907 0-0.054687-0.03125-0.10937-0.078125-0.13672l-14.797-8.5273c-0.003906-0.12891 0.003906-6.9531 0.007813-7.1641-0.0625-2.3867-6.043-2.582-6.5-0.1875-0.089844 0.47266-0.011719-0.51563-0.042969 7.9219l-8.3438 4.8555c0.023437-2.0938-0.015625-4.0781-0.019531-3.9492 0.003906-1.3516-1.8984-1.957-3.2734-1.957-1.1953 0-2.9648 0.50781-3.2266 1.7031-0.10938-0.43359 0.027343 6.2656-0.035157 8l-13.785 8.0156c-0.046875 0.027344-0.078125 0.078125-0.078125 0.13672l-0.003906 1.8789c0 0.054688 0.03125 0.10938 0.078125 0.13672l1.3945 0.80469-0.039062 17.531-5.8867 3.4219c-0.046875 0.027343-0.078125 0.082031-0.078125 0.13672l0.003906 0.003906v2.6562c0 0.054688 0.03125 0.10938 0.078125 0.13672l34.473 19.902c0.046875 0.027344 0.10547 0.027344 0.15625 0l38.086-22.133c0.046875-0.027343 0.078125-0.078124 0.078125-0.13672l0.007812-1.8164c0-0.046876-0.027344-0.10156-0.078125-0.12891zm-12.305-17.836-0.03125 14.891-1.6953 0.98438-0.023437-6.9531c0-0.12109-0.12891-0.19531-0.23438-0.13672-0.14453 0.082031-5.0312 2.9102-5.3516 3.0938-0.074218-0.011719-0.14844 0.035156-0.17188 0.15625h-0.003906c0 0.085938 0.023437 6.375 0.023437 6.457l0.003907 0.73047-1.2188 0.71094-0.023438-6.9805c0-0.12109-0.12891-0.19531-0.23438-0.13672-0.14453 0.082031-5.0312 2.9102-5.3516 3.0938-0.074219-0.011719-0.14844 0.035156-0.17188 0.15625h-0.003907c0 0.19922 0.003907 1.0547 0.023438 7.2109l-1.2188 0.71094-0.023438-7.0039c0-0.12109-0.12891-0.19531-0.23437-0.13672-0.125 0.074219-5.707 3.2969-5.3516 3.0938-0.070313-0.019531-0.14844 0.035156-0.17188 0.15625h-0.003906c0 0.22656-0.003906-1.1445 0.023437 7.2383l-1.2188 0.71094-0.023437-7.0352c0-0.12109-0.12891-0.19531-0.23438-0.13672-0.14453 0.082031-5.0312 2.9102-5.3516 3.0938-0.066406-0.019532-0.14844 0.035156-0.17188 0.15625h-0.003906c0.019531 5.8203 0.023437 6.918 0.023437 7.2656l-1.75 1.0156 0.039063-14.895zm-2.8398 10.516 0.003906 1.1992-4.3516 2.5156c-0.003906-0.49609-0.003906-0.89062-0.007813-1.1953zm-4.3594 2.1367c-0.003906-0.21094-0.007813-0.375-0.015625-0.48047l4.3711-2.5273v0.48828zm4.3672-0.55469c0 0.125 0.003907 1.3281 0.003907 1.1992l-4.3516 2.5156c0-0.44141-0.003906-0.85156-0.003906-1.1992zm0.003907 1.582 0.003906 1.1992-4.3516 2.5156c0-0.43359-0.003906-0.83203-0.003906-1.1992zm0.003906 1.5781v0.43359c-0.125 0.074219-4.6367 2.6953-4.3516 2.5312v-0.44922zm-6.9922-0.72266 0.003906 1.1992-4.3516 2.5156c-0.003906-0.49609-0.003906-0.89453-0.007812-1.1953zm-4.3633 2.1406c-0.003906-0.20703-0.007812-0.36719-0.015625-0.47266l4.3711-2.5273v0.48047zm4.3672-0.55859c0 0.125 0.003906 1.3281 0.003906 1.1992l-4.3516 2.5156c0-0.44531-0.003907-0.85156-0.003907-1.1992zm0.007812 1.582 0.003906 1.1992-4.3516 2.5156c0-0.43359-0.003906-0.83203-0.003906-1.1992zm0.003906 1.582v0.39844c-0.125 0.074219-4.6367 2.7422-4.3516 2.5703v-0.45312zm-6.9961-0.72266 0.003906 1.1992-4.3516 2.5156c-0.003906-0.5-0.003906-0.89453-0.007812-1.1953zm-4.3594 2.1406c-0.003906-0.20703-0.007813-0.36328-0.015625-0.46875l4.3711-2.5273v0.47266zm4.3672-0.55859c0 0.125 0.003907 1.3281 0.003907 1.1992l-4.3516 2.5156c0-0.44531-0.003906-0.85156-0.003906-1.1992zm0.003907 1.582 0.003906 1.1992-4.3516 2.5156c0-0.43359-0.003906-0.83203-0.003906-1.1992zm0.003906 1.5781v0.44531l-4.3516 2.5312v-0.46094zm-6.9922-0.71875 0.003906 1.1992-4.3516 2.5156c-0.003906-0.5-0.003906-0.89453-0.007812-1.1953zm-4.3633 2.1367c-0.003906-0.19922-0.007813-0.35547-0.011719-0.46094l4.3711-2.5273v0.46484zm4.3672-0.55469c0 0.125 0.003907 1.3281 0.003907 1.1992l-4.3516 2.5156c0-0.44531-0.003906-0.85156-0.003906-1.1992zm0.003907 1.582 0.003906 1.1992-4.3516 2.5156c0-0.43359-0.003906-0.83203-0.003906-1.1992zm0.007812 1.5781v0.45313c-0.125 0.074218-4.6367 2.6953-4.3516 2.5312v-0.46875zm20.762-28.027c-1.7188 1-27.547 16.008-29.176 16.949-0.13672 0.082031-0.050781 0.19531-0.078125 1.0703l-5.3359-3.0781 30.141-17.516zm-31.117 25.523c0.19922-0.89062 0.82813-1.8594 1.5547-2.3008 0.23047 0.18359 0.39844 0.28125 0.67578 0.17969 0.027344 0 0.054688-0.007812 0.078125-0.019531l0.46094-0.26953c0.5625-0.32422 0.17188-1.4414-0.45703-1.8047-0.16406-0.09375-0.41016-0.26562-1.0781 0.22266 0 0 0 0.003906-0.003907 0.003906-0.16797 0.10156-0.26172 0.29297-0.26172 0.54688 0 0.078125 0.019532 0.16016 0.039063 0.24219-1.2031 0.73437-2.1367 2.3672-2.1367 3.75l0.042969 4.3164-2.5273-1.457c0.050781-3.8203-0.10547-4.8438 0.085938-5.582 0.26953-1.0195 0.94531-1.8398 1.5273-2.1953 0.046876 0.039062 0.089844 0.085937 0.14063 0.11328 0.19531 0.10938 0.42187 0.15625 0.61719 0.046875 0.29297-0.22656 0.72656-0.23828 0.73047-0.82031 0-0.75391-0.80078-1.6133-1.3398-1.2969l-0.45703 0.26562s-0.003907 0-0.003907 0.003907c-0.003906 0-0.003906 0.007812-0.007812 0.007812-0.26953 0.16406-0.28906 0.48438-0.22266 0.79297-1.25 0.75-2.1406 2.4609-2.1406 3.7383l0.042969 4.332-2.5273-1.457-0.011719-4.9414c0-0.96875 0.79688-2.3359 1.625-2.8477 0.23047 0.18359 0.40234 0.28516 0.67969 0.17969 0.027344 0 0.054688-0.007812 0.078126-0.019531 0.28125-0.21875 0.72656-0.23828 0.72656-0.82031 0-0.73828-0.78516-1.6133-1.3398-1.2969-0.32422 0.25-0.86328 0.25391-0.69141 1.0664-0.75 0.45312-1.3555 1.2305-1.7227 2.0234-0.67578 1.4688-0.30469 2.168-0.37109 6.0664l-2.5312-1.4609-0.011719-4.957c0-1 0.83594-2.3594 1.6328-2.8438 0.046875 0.035156 0.089844 0.082031 0.13672 0.10938 0.19141 0.11328 0.42188 0.16016 0.61719 0.046875 0.28516-0.21875 0.72656-0.23828 0.73047-0.82031 0-0.46875-0.31641-1.0195-0.72266-1.2539-0.51953-0.29688-0.73437 0.082031-1.082 0.22266-0.003906 0-0.003906 0.007813-0.007812 0.007813-0.16406 0.10156-0.25781 0.29297-0.26172 0.54297 0 0.078124 0.019531 0.16406 0.039062 0.24609-0.84375 0.50781-1.4922 1.4062-1.8477 2.3359-0.42578 1.1328-0.23828 1.3945-0.24609 5.7734l-1.8984-1.0977c0.003906-0.70703 0.023437-6.457 0.023437-7.2109v-0.003906-0.003906c0-0.10156-0.074218-0.21094-0.17187-0.1875-0.125-0.074219-5.707-3.2969-5.3516-3.0938-0.10547-0.058594-0.23438 0.015625-0.23438 0.13672l-0.023438 7.043-0.71484-0.41406 0.046875-20.262 15.777 9.0938c0.050781 0.027344 0.10937 0.027344 0.15625 0l0.20312-0.11719-0.007812 6.8164c0 0.054687 0.03125 0.10938 0.078125 0.13672l5.8047 3.3516c0.078126 0.042969 0.18359 0 0.21484-0.058594 0.011719-0.019531 0.019532-1.0312 0.019532-1.0078l1.4688 0.84766 0.011718 0.007813-0.03125 14.895-3.6914-2.1289c0.027344-5.1367-0.066406-4.8633 0.070312-5.4609zm-0.0625 6.5078c0.88281 0.4375-0.82031 1-1.2578 0.37891-0.10156-0.14453-0.007812-0.26953 0.14844-0.35938 0.03125-0.015625 0.070312-0.023438 0.10156-0.039062l0.003906 0.24609c0.003906 0.33203 1.0078 0.28906 1.0078-0.011719zm1.5156-9.9727-0.16016 0.09375c0-0.023437-0.011719-0.046874-0.011719-0.066406 0-0.13672 0.039063-0.23828 0.10938-0.27734 0.34766-0.19922 1.1055 0.8125 0.80469 1.2422-0.015625 0.023438-0.027344 0.050781-0.046875 0.0625-0.070312 0.042969-0.17969 0.027344-0.30078-0.046875-0.011719-0.007813-0.019531-0.019531-0.03125-0.027344 0.125-0.10547 0.23828-0.12109 0.23828-0.25 0-0.32812-0.37891-0.85547-0.60156-0.73047zm-5.0664 7.9062c0.89844 0.44531-0.89453 1.0156-1.2656 0.35547-0.015625-0.03125-0.035156-0.0625-0.035156-0.089843 0-0.082032 0.070312-0.17188 0.19141-0.24219 0.03125-0.015625 0.066406-0.023438 0.10156-0.039062l0.003906 0.24609c0.003906 0.32422 1.0078 0.29688 1.0078-0.011719zm1.5156-9.9609-0.15625 0.089844c-0.078125-0.85156 0.96875-0.10156 0.96484 0.67188 0 0.28125-0.15625 0.39844-0.44531 0.20703 0.125-0.10547 0.23828-0.125 0.23828-0.25 0-0.33203-0.39062-0.83984-0.60156-0.71875zm-5.0664 7.8984c0.33203 0.16016 0.3125 0.36328 0.058594 0.51172-0.53125 0.30859-1.3594 0.050781-1.3594-0.24609 0-0.085938 0.070312-0.17188 0.19141-0.24609 0.027344-0.015625 0.066406-0.023438 0.097656-0.039063l0.003907 0.25781c0.003906 0.33203 1.0078 0.25391 1.0078-0.027344zm1.5117-9.9648-0.15625 0.089843c-0.003907-0.023437-0.011719-0.050781-0.011719-0.074218 0-0.13672 0.039062-0.23828 0.10938-0.27734 0.34766-0.19531 1.1016 0.81641 0.80469 1.2422-0.015624 0.023437-0.027343 0.050781-0.046874 0.0625-0.070313 0.042968-0.17969 0.023437-0.30078-0.046876-0.011718-0.007812-0.019531-0.019531-0.03125-0.023437l0.16406-0.11328c0.25781-0.17578-0.25391-1.0156-0.53125-0.85938zm-5.0664 7.9023c0.015626 0.007813 0.039063 0.011719 0.054688 0.019532 0.125 0.070312 0.19531 0.16016 0.19531 0.24609 0 0.027343-0.019531 0.054687-0.03125 0.082031-0.34375 0.67188-2.25 0.070312-1.2266-0.36719l0.003906 0.25c0.003906 0.33984 1.0078 0.27734 1.0078-0.027343zm1.5156-9.9688-0.15625 0.089844c-0.074219-0.85156 0.96875-0.085937 0.96484 0.67578 0 0.27734-0.15625 0.38281-0.41016 0.23437-0.011719-0.007812-0.019531-0.015624-0.03125-0.023437 0.125-0.10547 0.23047-0.11719 0.23047-0.24609 0.003906-0.33594-0.37891-0.85156-0.59766-0.73047zm-9.0977 2.8438 0.003907-1.1992 4.3516 2.5156c0 0.36719-0.003906 0.76562-0.003906 1.1992zm4.3516 2.8984v0.46875c-0.125-0.074219-4.6367-2.6953-4.3516-2.5312v-0.45312zm-4.3438-4.4766 0.003906-1.1992 4.3516 2.5156c0 0.34766-0.003906 0.75391-0.003906 1.1992zm0.003906-1.582 0.003906-1.1992 4.3555 2.5195c-0.003906 0.30469-0.007813 0.69531-0.007813 1.1953zm0.003906-1.582v-0.46484l4.375 2.5273c-0.003906 0.10156-0.007812 0.25781-0.011718 0.46094zm14.66 0.69531 0.007813-6.7266 30.141-17.516-0.007812 6.7305zm13.965-44.656c1.4766 0.042968 3.2695 0.81641 2.6953 2.0273-0.39062 0.84375-1.7656 1.1992-2.6953 1.2305zm2.8047 2.457c0.003906 1.25 0.1875 1.8281-0.84766 2.4258-1.8516 1.0703-5.0664 0.32812-5.0703-1.1289 0-0.375-0.007813-1.418-0.003906-1.2852 1.1406 1.4805 4.7617 1.4883 5.9219-0.011719zm-5.9258 6.8789v-2.7812c1.168 1.5117 4.7266 1.4844 5.9023 0.015625-0.019531 2.4102 0.058594 4.5312 0.21484 4.8516 0.42188 2.4961 1.3633 2.9414 1.3008 6.7695-0.011719 0.60156 0.074219 0.99219-0.33984 1.5586-1.6055 2.1562-6.875 2.0117-8.2617-0.039063-0.53906-0.77344-0.20703-1.5977-0.3125-2.1875-0.003907-3.6211 1.4961-4.4883 1.4961-8.1875zm-8.6602 5.2227 8.3281-4.8477c-0.003906 0.16406-0.011719 0.32422-0.023437 0.47656l-8.3086 4.8281c-0.003906-0.14844 0-0.30469 0.003906-0.45703zm7.9219-2.1914c-0.43359 1.5117-0.98828 2.6172-1.0547 4.7891-2.8438 2.25-0.19531 5.5586 4.7344 5.5586 4.9531 0 7.6133-3.3125 4.7852-5.5586-0.097656-2.9141-0.82031-3.3594-1.2422-5.4727l11.332 6.543-29.246 17-14.375-8.293 10.156-5.9023c-0.36719 1.2578-0.94922 2.2188-1.0469 4.7305-0.80078 0.63672-1.2188 1.4258-1.1641 2.2266 0.20312 3.1016 6.4922 4.3867 10.043 2.3477 2.1602-1.2383 2.332-3.2031 0.625-4.5703-0.14453-4.0391-1.5039-3.4922-1.5-8.7695zm-11.051-3.7539c3.75 0.10547 3.7617 3.1406 0 3.2617zm2.8086 2.4492c0.007812 0.42578 0.011718 0.83594 0.011718 1.2266-0.0625 0.14453 0.042969 0.68359-0.86328 1.207-1.1758 0.67969-3.0781 0.67969-4.2461 0-0.51563-0.30078-0.80469-0.6875-0.82031-1.0977-0.003906-0.41016-0.003906-0.85547-0.003906-1.3125 1.1367 1.4531 4.7539 1.5039 5.9219-0.023437zm-5.8945 4.1367c1.2227 1.5 4.7617 1.418 5.8906-0.046875-0.039063 2.6523-0.13672 4.625 0.75781 6.9336 0.62891 1.7109 0.73438 3.0508 0.73438 4.5117-0.015625 0.87891 0.078125 1.0664-0.26172 1.6133-1.6797 2.7188-8.6953 1.9258-8.6445-0.81641 0-1.9453-0.007813-3.3008 0.73438-5.3086 0.89844-2.3438 0.80859-4.3008 0.78906-6.8867zm-13.723 10.941 13.371-7.7734c-0.007812 0.16406-0.015625 0.33203-0.027344 0.48438l-12.312 7.1523c-0.10156 0.058594-0.10547 0.21094 0 0.27344 2.8711 1.6602 16.191 9.3438 16.059 9.2695 0.050781 0.027344 0.10938 0.027344 0.15625 0 0 0 0.003906 0 0.003906-0.003906 82.18-48.078-58.332 33.922 30.934-17.984 0.10547-0.0625 0.10156-0.21094 0-0.27344l-13.336-7.7031c-0.007812-0.14844-0.015624-0.30078-0.019531-0.45703l14.398 8.2969c-19.652 11.422-32.039 18.621-32.055 18.629zm-4.5352 23.906 5.4922-3.1914-0.007813 2.6367c0 0.054687 0.03125 0.10938 0.078125 0.13672l8.6133 4.9688 0.007813 0.87891c-0.875 0.27344-0.51953 0.84766-0.60547 1.1602-0.003906 0.9375 2.1797 0.91797 2.1836 0.007813v-0.54688-0.003906c0-0.20313-0.125-0.38672-0.35547-0.51953-0.0625-0.035156-0.14062-0.058594-0.21094-0.082031v-0.30859l2.5352 1.4609c0 0.125 0.007812 1.0195 0.007812 0.89062-0.3125 0.097656-0.59375 0.28125-0.60156 0.60547 0 0.003907-0.003907 0.003907-0.003907 0.007813v0.54688c0 0.90625 2.1797 0.94141 2.1836 0.007812-0.054687-0.39453 0.22266-0.875-0.5625-1.1484v-0.32031l2.5312 1.4609c0 0.125 0.011719 1.0352 0.007813 0.90625-0.87891 0.27734-0.51562 0.83984-0.60547 1.1602-0.003906 0.9375 2.1797 0.91016 2.1797 0.007813 0-0.125 0.003906-0.67188 0-0.54688v-0.003906c0-0.20313-0.125-0.38672-0.35547-0.51953-0.0625-0.035156-0.13672-0.054687-0.21094-0.082031v-0.33594l2.5312 1.4609 0.007813 0.92188c-0.82812 0.25781-0.55078 0.76562-0.60938 1.1602-0.003907 0.9375 2.1797 0.91016 2.1797 0.007813 0-0.125 0.003906-0.67578 0-0.54688 0-0.20312-0.125-0.39062-0.35547-0.51953-0.0625-0.035156-0.13672-0.054687-0.20703-0.082031v-0.35156l3.7695 2.1758v0.003906c0.050781 0.027344 0.10937 0.027344 0.15625 0 0.125-0.074218 30.582-17.773 30.453-17.699 0.046876-0.027344 0.078126-0.078126 0.078126-0.13672l0.007812-4.5664 5.7188 3.3086-37.777 21.949zm28.586 17.34 37.77-21.945 4.707 2.7148-37.77 21.949c-0.55469-0.32031-4.9922-2.8828-4.707-2.7188zm5.5859 3.2227-0.55859-0.32031 37.77-21.949 0.55469 0.32031z"/>
 <path d="m65.746 41.543c-2.9766 1.7266-11.414 6.625-13.957 8.1016-0.046874 0.027344-0.078124 0.078125-0.078124 0.13672v4.6406c0 0.11719 0.125 0.19531 0.23828 0.13672l13.957-8.1016c0.046875-0.027343 0.078125-0.082031 0.078125-0.13672v-4.6406c0-0.12109-0.13281-0.19531-0.23828-0.13672zm-13.719 12.219v-3.8867l1-0.58203v3.8867c-0.125 0.074218-1.1289 0.65625-1 0.58203zm1.1523-0.67188v-3.8867l1.2188-0.70703v3.8906c-0.125 0.070312-1.3477 0.77734-1.2188 0.70312zm1.3711-0.79297v-3.8906l1.2188-0.70703v3.8906zm1.3711-0.79297v-3.8906l1.2188-0.70703v3.8906zm1.3711-0.79688v-3.8906l1.2188-0.70703v3.8906zm1.3711-0.79688v-3.8906l1.2188-0.70703v3.8906zm1.3711-0.79688v-3.8906l1.2188-0.70703v3.8906zm1.3711-0.79297v-3.8906l1.2188-0.70703v3.8906zm1.3711-0.79687v-3.8906l1.2188-0.70703v3.8906zm1.3711-0.79688v-3.8906l1.1875-0.69141v3.8906z"/>
 <path d="m20.633 50.699c-0.10547-0.058594-0.23437 0.015625-0.23437 0.13672l-0.011719 6.0898c0 0.054688 0.03125 0.10938 0.078125 0.13672l14.129 8.1602c0.10938 0.058594 0.23438-0.019531 0.23438-0.13672v-6.0977c0-0.054687-0.03125-0.10938-0.078125-0.13672-0.50781-0.29297-0.73438-0.42187-14.117-8.1523zm3.7539 7.3398-2.8867-1.668 0.011719-4.8008 2.8867 1.668c0 0.12891-0.011719 5.0742-0.011719 4.8008zm10.125 5.8477-9.8477-5.6875 0.011719-4.8008 9.8398 5.6797z"/>
 <path d="m66.633 60.629 6.043-3.4883c0.046875-0.027344 0.078125-0.078125 0.078125-0.13672l-0.007812-4.1055c0-0.12109-0.12891-0.19531-0.23438-0.13672-3.2148 1.8438-6.0586 3.4531-6.1094 3.6211v0.003907c-0.003906 0.011719-0.003906 0.019531 0 0.027343v4.0781c-0.003906 0.11719 0.12109 0.19922 0.23047 0.13672zm5.3086-7.1758c0 0.125 0.007813 3.3867 0.007813 3.1797l-1.9453 1.125c0-0.41406-0.007812-3.0078-0.007812-3.1797 0.55469-0.32422 1.4609-0.84375 1.9453-1.125zm-5.2266 3.0195c0.28125-0.16016 1.3164-0.76172 3.0938-1.7891l0.007812 3.1797c-3.2656 1.8867-2.8711 1.6562-3.1016 1.7891z"/>
 <path d="m41.836 13.242c0.03125 1.5586 1.5898 2.6602 3.0547 2.1523 0.27734 0.83594 1.1641 1.2539 1.9141 1.043 0.14062 0.20312 0.33594 0.35156 0.54687 0.46484 0.50391 0.33203 1.0547 0.33203 1.5 0.097656v1.1953c0 0.20703 0.31641 0.20703 0.31641 0-0.035157-1.6367 0.0625-1.4609-0.0625-1.5859 0.015625-0.14062-0.14062-0.22266-0.24609-0.14453-0.57812 0.42578-1.4102 0.24219-1.707-0.4375-0.050782-0.12109-0.10938-0.22656-0.23828-0.17188l-0.089843 0.03125c-0.61719 0.22266-1.3828-0.14062-1.4141-1.0195-0.027344-0.79688-0.58203 0.39453-1.8477-0.070313-0.46094-0.16797-0.82422-0.51172-1.0156-0.97266-0.32031-0.73828 0.078125-1.2109-0.12891-1.3633-0.125-0.09375-0.26172 0.054687-0.39062 0.10937-1.1211 0.58594-2.4531-0.26172-2.4531-1.3555 0-1.1172 1.0508-1.9336 2.0625-1.7305 0.30859 0.039063 0.035156-0.31641 0.59375-1.0469 0.007812-0.003906 0.015625 0 0.019531-0.007812 1.1562-0.94141 2.7383-0.53516 3.2617 0.92187 0.023437 0.0625 0.082031 0.10547 0.14844 0.10547h0.019532c0.007812 0.12109 0.007812 0.24219-0.003907 0.36719-0.015625 0.125 0.12109 0.21875 0.23047 0.15625 0.65234-0.33984 1.4844-0.03125 1.7578 0.66797 0.042969 0.10547 0.17578 0.12891 0.25391 0.054687 1.082-1.0312 2.6758 0.34766 1.9648 1.5352-0.066406 0.11328 0.023438 0.25781 0.16797 0.23438 0.89453-0.19531 1.6602 0.97266 1.0352 1.7578-0.050782 0.0625-0.042969 0.15625 0.011718 0.21094 0.44531 0.42969 0.58203 1.1367 0.19141 1.7656-0.015624 0.023438-0.023437 0.054688-0.023437 0.082031v1.8359c0 0.20703 0.31641 0.20703 0.31641 0v-1.7891c0.40234-0.66797 0.29688-1.4883-0.17188-2.0195 0.58594-0.91016-0.10938-2.1484-1.1328-2.1758 0.50391-1.4062-1.1445-2.7344-2.4102-1.8008-0.37109-0.66406-1.1719-0.96484-1.8633-0.74219 0.003906-0.56641-0.19141-1.0977-0.56641-1.5156-1.25-1.3945-3.5547-0.73828-3.9023 1.0664-1.0195-0.125-2.1133 0.62891-2.25 1.8359-0.039062 0.027344-0.070312 0.066406-0.074218 0.11719-0.070313 1.4453 1.293 2.457 2.625 2.1406z"/>
 <path d="m26.988 22.566c0.027344 1.5781 1.582 2.6562 3.0547 2.1523 0.27344 0.81641 1.1328 1.2461 1.9102 1.0391 0.44922 0.65234 1.3008 0.85156 1.9922 0.48438v1.1953c0 0.20703 0.31641 0.20703 0.31641 0 0-0.125-0.003907-1.625-0.003907-1.4961 0.027344-0.15234-0.13672-0.23047-0.24219-0.15234-0.57812 0.42578-1.4102 0.24219-1.707-0.4375-0.050782-0.11719-0.10938-0.22266-0.23828-0.17187l-0.089843 0.03125c-0.66797 0.23828-1.3828-0.21484-1.4141-0.93359l-0.011718-0.22266c-0.003907-0.054688-0.03125-0.10156-0.078126-0.12891-0.24219-0.12891-0.69922 0.57812-1.7578 0.19531-0.75391-0.27344-1.293-1.0469-1.0977-2.0547 0.023437-0.11719 0.046875-0.21875-0.050782-0.28516-0.21094-0.13672-0.42578 0.33984-1.3047 0.30078-0.97656-0.13281-1.5117-0.80469-1.5859-1.6602 0-0.003906-0.007813-0.007813-0.007813-0.015625 0.035156-1.1016 1.0625-1.875 2.0547-1.6797 0.30469 0.035157 0.035157-0.25391 0.53125-0.97266 0.046876 0.015625 0.10156 0.015625 0.14063-0.019531 1.1719-0.94922 2.7461-0.51172 3.2617 0.92188 0.015625 0.046875 0.0625 0.0625 0.10938 0.074219 0.015625 0.33984-0.035156 0.40625 0.0625 0.47656 0.046875 0.035157 0.10938 0.035157 0.16016 0.007813 0.64844-0.33984 1.4844-0.03125 1.7617 0.66797 0.042969 0.10547 0.17578 0.12891 0.25391 0.054688 1.0859-1.0391 2.6719 0.35938 1.9648 1.5352-0.066406 0.10938 0.015625 0.25 0.16406 0.23438 0.89844-0.19141 1.6602 0.97656 1.0352 1.7578-0.050781 0.0625-0.042969 0.15625 0.011719 0.21094 0.54297 0.52344 0.52344 1.2344 0.19531 1.7656-0.015625 0.023438-0.023437 0.054688-0.023437 0.082032v1.8359c0 0.20703 0.31641 0.20703 0.31641 0v-1.7891c0.39844-0.66406 0.30078-1.4844-0.17188-2.0195 0.58594-0.91016-0.10547-2.1484-1.1328-2.1758 0.50391-1.4062-1.1328-2.7266-2.4102-1.8008-0.35938-0.63672-1.1289-0.96875-1.8633-0.74219 0.003906-0.56641-0.19141-1.0977-0.56641-1.5156-1.2422-1.3867-3.5469-0.76562-3.9023 1.0664-0.52734-0.066406-1.0742 0.10547-1.5117 0.46094-1.6914 1.4023-0.35156 4.2539 1.875 3.7227z"/>
 <path d="m59.531 64.773 6.043-3.4883c0.046875-0.027344 0.078125-0.078125 0.078125-0.13672l-0.007813-4.1055c0-0.12109-0.12891-0.19531-0.23438-0.13672-4.3008 2.4805-5.6172 3.2344-5.9531 3.4688-0.078125 0.027344-0.21094 0.13672-0.16016 0.22656v4.0391c-0.003906 0.11328 0.12109 0.19141 0.23438 0.13281zm5.3086-7.1797c0 0.125 0.007812 3.3867 0.007812 3.1797-1.3633 0.77734-1.6172 0.92578-1.9453 1.1172 0-0.41016-0.007813-3.0039-0.007813-3.1719 0.82031-0.47656 1.5742-0.91016 1.9453-1.125zm-5.2305 3.0195c0.59766-0.34766 1.875-1.082 3.0938-1.7891l0.007813 3.1719c-0.75781 0.4375-1.7617 1.0195-3.1016 1.8008z"/>
 <path d="m52.426 68.914 6.043-3.4883c0.046875-0.027343 0.078125-0.078125 0.078125-0.13672l-0.007813-4.1055c0-0.12109-0.12891-0.19531-0.23437-0.13672-8.1953 4.7305-5.4219 3.1289-6.0312 3.4805-0.046876 0.027344-0.078126 0.078125-0.078126 0.13672v4.1133c-0.003906 0.12109 0.12109 0.19922 0.23047 0.13672zm5.3086-7.1758 0.007813 3.1797-1.9492 1.125c0-0.41406-0.007813-3.0078-0.007813-3.1797zm-5.2305 3.0078c0.19531-0.097656 0.46484-0.25781 3.0938-1.7773l0.007813 3.1797c-2.3281 1.3438-2.6016 1.5039-3.1016 1.793z"/>
 <path d="m45.086 72.922c0 0.11719 0.125 0.19531 0.23437 0.13672l6.043-3.4883c0.046875-0.027343 0.078125-0.078124 0.078125-0.13672l-0.007812-4.1055c0-0.12109-0.12891-0.19531-0.23438-0.13672-0.28906 0.16797-5.6875 3.2852-6.0273 3.4805 0 0-0.003906 0.003906-0.007813 0.003906-0.003906 0.003907-0.011718 0.007813-0.011718 0.007813-0.0625 0.042968-0.097656 0.13281-0.066406 0.20312v4.0352zm5.543-7.0391 0.007813 3.1797c-0.48828 0.28125-1.3516 0.77734-1.9492 1.125 0-0.41406-0.007812-3.0078-0.007812-3.1797zm-5.2266 2.9922c0.28516-0.13672 0.71094-0.38672 3.0938-1.7617l0.007812 3.1797c-1.2109 0.69922-2.5625 1.4805-3.1016 1.793z"/>
 <path d="m50.684 50.125c-3.0117 1.75-7.5977 4.4102-13.957 8.1016-0.046874 0.027344-0.078124 0.078126-0.078124 0.13672v4.6406c0 0.11719 0.125 0.19531 0.23828 0.13672l13.957-8.1016c0.046875-0.027343 0.078125-0.078124 0.078125-0.13672v-4.6406c0-0.125-0.12891-0.19531-0.23828-0.13672zm-13.719 12.219v-3.8906l1-0.58203v3.8867c-0.125 0.074219-1.125 0.65625-1 0.58594zm1.1523-0.67188v-3.8867l1.2188-0.70703v3.8906c-0.125 0.070312-1.3438 0.77344-1.2188 0.70312zm1.3711-0.79297v-3.8906l1.2188-0.70703v3.8906zm1.3711-0.79688v-3.8906l1.2188-0.70703v3.8906zm1.3711-0.79688v-3.8906l1.2188-0.70703v3.8906zm1.3711-0.79688v-3.8906l1.2188-0.70703v3.8906zm1.3711-0.79297v-3.8906l1.2188-0.70703v3.8906zm1.3711-0.79687v-3.8906l1.2188-0.70703v3.8906zm1.3711-0.79688v-3.8906l1.2188-0.70703v3.8906zm1.3711-0.79687v-3.8906l1.1875-0.69141v3.8906z"/>
</svg>