<svg xmlns="http://www.w3.org/2000/svg" xmlns:xlink="http://www.w3.org/1999/xlink" version="1.1" viewBox="0 0 110 110"><g><polygon points="35.8718262,37.4096756 33.7803955,36.2021561 33.7792969,36.5553055 35.8708496,37.762825  "/><polygon points="35.2502441,36.8350906 35.5426025,37.0039139 35.5458984,35.8151932 35.8532715,35.9926834 35.3979492,35.0308914    34.9387207,35.4646072 35.2536621,35.6463699  "/><polygon points="34.1108398,36.1772537 34.4031982,36.3459549 34.4064941,35.1572342 34.7214355,35.339119 34.2661133,34.377449    33.8068848,34.8110428 34.1142578,34.988533  "/><path d="M33.4154053,33.5305252c-0.0240479,0.0144043-0.0394287,0.0405273-0.0394287,0.0683594l-0.0087891,3.1571045   c0,0.0279541,0.0155029,0.053833,0.0395508,0.0683594l2.7497559,1.5876465   c0.0125732,0.0067139,0.026001,0.0106201,0.0395508,0.0106201c0.1513748,0,0.0452843-0.0844154,0.0876465-3.236084   c0-0.027832-0.0155029-0.053833-0.0395508-0.0683594C33.5600815,33.5854263,33.5154839,33.4768257,33.4154053,33.5305252z    M36.1170654,38.2069168l-2.5919189-1.4962158l0.008667-2.9750977l2.5919189,1.4962158L36.1170654,38.2069168z"/><path d="M29.4080811,31.0794754c-0.0548534-0.0297012-0.1184082,0.0086555-0.1184082,0.0683594l-0.0096436,3.1571045   c0,0.1002426,0.0217667,0.0405388,2.7893066,1.6560059c0.0571632,0.0308228,0.1184082-0.0108414,0.1184082-0.0683594   l0.0095215-3.1569824c0-0.0280762-0.0153809-0.0539551-0.0393066-0.0683594L29.4080811,31.0794754z M32.0307617,35.755867   l-2.5927734-1.4962158l0.0085449-2.9750977l2.5928955,1.4962158L32.0307617,35.755867z"/><path d="M30.619873,34.5095291l-0.1539307-0.0888672c-0.1394367-0.0805893-0.1423683,0.1616478-0.0006104,0.2434082   l0.536377,0.3095703c0.1395969,0.0809441,0.1405678-0.1626701,0.0007324-0.2431641l-0.1535645-0.0887451l0.001709-0.6104736   c0.3133106,0.1168289,0.5221348-0.0811806,0.5229492-0.4169922l0.0024414-0.8547363L30.1037598,32.02491l-0.0024414,0.8547363   c-0.0009766,0.3586426,0.2233887,0.786499,0.5202637,1.0195313L30.619873,34.5095291z"/><polygon points="76.7927246,88.4148026 76.7940674,88.8942947 79.6342773,87.2544022 79.6330566,86.77491  "/><polygon points="77.2397461,87.8636551 77.6368408,87.634407 77.6323242,86.0201492 78.0598145,85.773201 77.4361572,85.1843338    76.8178711,86.490242 77.2352295,86.2492752  "/><polygon points="78.7872314,86.9702225 79.1843262,86.7409744 79.1796875,85.1267166 79.5970459,84.8857498 78.9733887,84.2967606    78.3549805,85.6027908 78.7827148,85.3559647  "/><path d="M84.6193848,81.6462479c-0.1875-0.1071777-0.4553223-0.1339111-0.6962891,0.0268555v-0.1071777   c0-0.1071777-0.0803223-0.1337891-0.1606445-0.1071777c-0.0803223,0.0535889-0.1606445,0.1606445-0.1606445,0.2678223v0.1071777   c-0.5891113,0.4016113-1.0444336,1.2851563-1.0444336,1.9814453l1.1247559-0.6694336V84.43116   c0,0.381073-0.4553223,0.5577164-0.4553223,0.2678223c0-0.0537109-0.0267334-0.0804443-0.0803223-0.0537109   c-0.1943588,0.1961365-0.0233612,0.5472488,0.3215332,0.375c0.2141113-0.1337891,0.4014893-0.4552002,0.4014893-0.6962891   l-0.0267334-1.2584229l1.1247559-0.6427002C84.9675293,82.0211258,84.8334961,81.7534256,84.6193848,81.6462479z"/><path d="M80.0214844,83.1467361c-3.8929367,2.2723312-3.7879639,2.1315918-3.7879639,2.2490234   c0.033165,4.4202881-0.0368958,4.3188782,0.0653076,4.380127c0.0344315,0.0184479,0.0704346,0.0198898,0.1072998,0   c3.8929901-2.2722397,3.7879639-2.1314697,3.7879639-2.2489014l-0.0118408-4.2873535   C80.182251,83.1590958,80.0962753,83.1063843,80.0214844,83.1467361z M76.4597168,89.4974442l-0.0117188-4.0402832   l3.5197754-2.0318604l0.0118408,4.0402832L76.4597168,89.4974442z"/><path d="M85.5705566,79.943367l-3.7355957,2.1560059c-0.1032104,0.0623856-0.032486-0.1075897-0.0405273,4.3803711   c0,0.0378418,0.0209961,0.0731201,0.0535889,0.0927734c0.0346298,0.0184326,0.069664,0.0198898,0.1072998,0l3.7341309-2.1561279   c0.1031723-0.0619812,0.0324783,0.0899582,0.0419922-4.380249C85.7314453,79.955925,85.6456451,79.9028473,85.5705566,79.943367z    M82.0075684,86.2939529l-0.0117188-4.0402832l3.5211182-2.0317383l0.0117188,4.0401611L82.0075684,86.2939529z"/><path d="M92.3510742,59.3916092c-10.159523-5.8006859-9.6698074-5.7080994-9.9111328-5.5693359l-11.782959,6.8459473   l0.0384521-14.1013184l2.3636475-1.3735352c0.0761719-0.0439453,0.1240234-0.1259766,0.1240234-0.2148438l0.0068359-2.1191406   c0-0.0898438-0.0478516-0.1728516-0.125-0.2177734c-0.0021973-0.0012207-0.0048828-0.0007324-0.0072021-0.0019531   l-2.4052734-1.3876953l0.0526123-14.3276367l2.3569336-1.3696289c0.0761719-0.0439453,0.1240234-0.1269531,0.1240234-0.2158203   v-2.1201172c0-0.0898438-0.0478516-0.171875-0.125-0.2167969l-8.5112305-4.9064941l-0.0141602-4.4782715   c0-0.0321045-0.0126953-0.0610352-0.0241699-0.0898438c-0.0043945-0.0108643-0.003418-0.0236816-0.0091553-0.0336914   c-0.0216064-0.0375977-0.0528564-0.0697021-0.0916748-0.0922852c-0.0004883-0.0002441-0.0008545-0.0001221-0.0012207-0.0003662   L53.0424805,6.7832112c-0.0771484-0.0439453-0.171875-0.046875-0.2509766-0.0009766l-11.9902344,6.9199214   c-0.0385742,0.0224609-0.0698242,0.0543213-0.0915527,0.0917969c-0.0102539,0.0178223-0.010376,0.0397949-0.0159912,0.0598145   c-0.0062256,0.0217285-0.0174561,0.041748-0.0174561,0.0651855c0,0.0002441,0.0001221,0.0002441,0.0001221,0.0004883   s-0.0001221,0.0002441-0.0001221,0.0004883l0.0081787,2.2630615l-1.9124756-1.1107178   c-0.078125-0.0449219-0.1728516-0.0458984-0.2509766-0.0009766l-11.9794922,6.9208984   c-0.0385742,0.0224609-0.0698242,0.0543213-0.0915527,0.0917969c-0.0102539,0.0178223-0.010376,0.0397949-0.0159912,0.0598145   c-0.0062256,0.0217285-0.0174561,0.041748-0.0174561,0.0651855c0,0.0002441,0.0001221,0.0002441,0.0001221,0.0004883   s-0.0001221,0.0002441-0.0001221,0.0004883l0.0251465,8.177002l-8.7894287,5.1048584   c-0.0003662,0.0002441-0.0008545,0.0001221-0.0013428,0.0003662s-0.0004883,0.0007324-0.0009766,0.0009766l0,0   c-0.0771484,0.0449219-0.1240234,0.1269531-0.1240234,0.2158203v2.1191406c0,0.0888672,0.0478516,0.171875,0.125,0.2167969   l2.324707,1.3419189l-0.0488281,14.4273682l-2.270752,1.3146973c0,0-0.0001221,0-0.0002441,0   s-0.0001221,0.0002441-0.0002441,0.0002441l-0.0046387,0.0026855c-0.0771484,0.0449219-0.125,0.1279297-0.125,0.2167969   c0,1.1658783-0.0019283,2.2179184-0.0019531,2.1152344c0,0.0898438,0.0478516,0.1728516,0.125,0.2177734l2.3168945,1.3376465   L19.921875,73.4470291l-2.2709961,1.3146973c-0.0771484,0.0449219-0.125,0.1279297-0.125,0.2167969   c0,0.0064697,0.0043945,0.0115967,0.0048828,0.0180664l-0.0068359,2.1030273c0,0.0898438,0.0478516,0.1728516,0.125,0.2177734   l2.2866211,1.3201904l-0.019043,5.7208252c0,0.3027344,0.1923828,0.5820313,0.5234375,0.765625   c0.9873409,0.5772629,2.6757813,0.1645584,2.6757813-0.7548828l0.0097656-3.8898926l9.8601074,5.6928711l-0.0095215,5.7263184   c0,0.3027344,0.1933594,0.5830078,0.5224609,0.7646484c0.9544449,0.5701904,2.6777344,0.1871109,2.6777344-0.7646484   l0.0095215-5.6435547L65.8798828,69.000618l-0.0141602,4.8167725c0,0.0898438,0.0478516,0.1728516,0.125,0.2177734   l1.4645996,0.8459473L64.432373,76.641243c-0.0003662,0.0002441-0.0007324,0.0001221-0.0012207,0.0003662   c-0.0388184,0.022583-0.0700684,0.0546875-0.0915527,0.092041c-0.0100098,0.017334-0.0100098,0.0383301-0.015625,0.0576172   c-0.0063477,0.0220947-0.0178223,0.0424805-0.0178223,0.0661621l-0.0087891,3.8676758   c-8.798481-5.0590744-8.4270897-5.0304489-8.6660156-4.8930664c-12.8899422,7.5004196-12.3857422,7.0203323-12.3857422,7.296875   l0.0107422,5.6396484c0,0.2295761,0.2457504,0.2577896,0.5297852,0.4519043   c-0.1000481,0.0583878-0.5181389,0.3024063-0.4180908,0.2440186c-0.246933,0.3735199-0.0756111-0.5079803-0.1087646,5.8587646   c0,0.0888672,0.0478516,0.1708984,0.1240234,0.2148438l13.2138672,7.6787109   c0.0004883,0.0002441,0.0004883,0.0007324,0.0009766,0.0009766c0.0390625,0.0224609,0.0820313,0.0332031,0.125,0.0332031   s0.0859375-0.0107422,0.125-0.0332031c12.889801-7.5,12.3896484-7.0200272,12.3896484-7.2988281   c-0.0674515-5.9922104,0.0990601-5.666893-0.1499023-5.859375l-0.3996582-0.2305908l0.0325928-0.0187988   c0.1013794,0.0585556,5.4442749,3.1446152,5.3428955,3.0860596c0.0001221,0,0.0001221,0.0002441,0.0002441,0.0002441   c0.2792664,0.1605835-0.4115219,0.2816162,16.671875-9.5439453c0.0761719-0.0439453,0.1240234-0.1259766,0.1240234-0.2148438   c0.0013885-0.3929901,0.0361328-10.8864288,0.0361328-10.2392578c0-0.0888672-0.0478516-0.171875-0.125-0.2167969   l-1.4782715-0.8554688c3.0664749-1.8358459,3.1530762-1.7145004,3.1530762-1.9765625l0.0302734-10.2402344   c0-0.0002441-0.0001221-0.0002441-0.0001221-0.0004883s0.0001221-0.0002441,0.0001221-0.0004883   C92.4760742,59.5185623,92.4282227,59.4365311,92.3510742,59.3916092z M75.8061523,68.8691483l-3.2373047-1.8701172   l15.9243164-9.2542725l3.2338867,1.864624C87.6644592,61.972229,79.8455811,66.5197754,75.8061523,68.8691483z    M75.5556641,69.3024979l-0.0285645,9.6629639c-0.118576-0.0685196-3.407608-1.9691315-3.2060547-1.8526611v-9.6787109   L75.5556641,69.3024979z M82.565918,54.3271561l3.2021484,1.8464355l-15.921875,9.2526855l-3.2011719-1.8491211   c0.1012955-0.0587044,3.9870377-2.3106575,3.8857422-2.2519531C87.4834366,51.4677849,81.0596008,55.2030296,82.565918,54.3271561z    M67.9858398,48.1435623l2.2089844-1.2802734l-0.0390625,14.0961914l-2.2089844,1.2834473L67.9858398,48.1435623z    M67.4556885,59.0439529l-2.8995361-1.6795654c-0.0622253-5.1227493,0.0962372-5.1327095-0.140625-5.2706299   c-0.1001053-0.0582886-1.716301-0.9963112-1.6162109-0.9379883l4.6853027-2.7229004L67.4556885,59.0439529z M49.8149414,73.1543045   l-4.0698242,2.3480225V63.3603592l4.0317383-2.3288574C49.7772636,61.1609077,49.8108521,71.852684,49.8149414,73.1543045z    M38.3354492,79.7773514l-0.0178223-5.524292l-0.020752-6.59021l4.0716553-2.3519287v12.1395264L38.3354492,79.7773514z    M26.9272461,63.0385818c0.1001682,0.0578804,6.5062256,3.7594833,6.0981445,3.5236816l-0.0316162,10.4005127l-6.038208-3.508667   L26.9272461,63.0385818z M45.4980469,62.9249344l-1.4731445-0.852417l4.0214844-2.3352051l1.4798584,0.8607178   L45.4980469,62.9249344z M36.5942383,66.3877029l4.0661621-2.3613281l1.4604492,0.8493652l-4.0743408,2.3537598   C37.9462852,67.1714096,36.4940147,66.3296127,36.5942383,66.3877029z M54.9251709,55.7341385l1.4561768,0.8513184   l-4.0750732,2.3540039l-1.4517822-0.8410645L54.9251709,55.7341385z M59.7579346,54.6347733l-1.4727783-0.8520508   l4.0209961-2.3354492l1.4804688,0.8603516L59.7579346,54.6347733z M33.4956055,77.3984451   c0.0002441-0.0877151-0.0031013,1.1159821,0.0292969-10.5478516l1.0166016,0.5849609   c0.078125,0.0449219,0.1738281,0.0439453,0.25-0.0009766l0.9326172-0.5410156   c-0.0050697,1.606369-0.0389442,12.7829132-0.036377,12.0717773l-0.0114746,3.8129883   c0,0.1494141-0.1660156,0.2666016-0.2675781,0.3242188c-0.7807007,0.4609375-1.9326172,0.0707703-1.9326172-0.3330078   C33.4778709,82.2762527,33.4968185,77.0656662,33.4956055,77.3984451z M36.2250977,66.7526932   c0.100235,0.058075,1.671524,0.9684753,1.5712891,0.9104004l0.020752,6.4256592l0.0178223,5.6844482l-1.6466064-0.9564209   L36.2250977,66.7526932z M50.3068848,70.455574c-0.0549889-9.636425,0.0096474-9.8534241-0.064209-9.9814453   c-0.0002441-0.0002441-0.0002441-0.0006104-0.0003662-0.0008545c-0.0214844-0.0369873-0.0523682-0.0684814-0.0904541-0.0904541   c-0.0004883-0.0002441-0.0004883-0.0007324-0.0009766-0.0009766s-0.0008545-0.0001221-0.0012207-0.0003662l-1.6071777-0.9342041   l1.8138428-1.0592041c0.1003113,0.0581284,1.8087807,1.0481186,1.6998291,0.9849854l0.0390625,12.1201172L50.3068848,70.455574z    M52.559082,59.3730545l4.0717773-2.3510742V69.162117l-4.0336914,2.3291016L52.559082,59.3730545z M60.0075684,55.0722733   l4.0339355-2.3291016l0.0380859,12.1181641L60.0075684,67.21241V55.0722733z M72.6831055,44.8330154l-37.7670898,21.947998   c0.000351-0.1006927,0.005722-1.6365814,0.0053711-1.5358887c3.3110809-1.9244576-13.0015202,7.5567093,37.7675781-21.9511719   L72.6831055,44.8330154z M70.652832,41.8300858l1.7841797,1.0292969   C21.6635189,72.3686447,37.9855843,62.8823547,34.6729736,64.8076248   c-22.1115074-12.7636566-14.9122715-8.6079674-16.3918457-9.4620361l1.6422119-0.9510498l-0.0068359,0.984375   c0,0.3007813,0.1923828,0.5810547,0.5234375,0.765625c0.9838295,0.5752106,2.6757813,0.1739273,2.6757813-0.7646484   l0.0098877-2.8466797l3.3172607-1.9284668c0.0592289,3.7331352-0.0898209,3.7294121,0.1367188,3.8601074l6.4111328,3.7252197   l-0.0146484,4.7181396c0,0.3125,0.1875,0.5898438,0.5253906,0.7773438c0.9554062,0.5508347,2.6748047,0.1955566,2.6748047-0.765625   l0.0090332-2.8679199l1.7751465,1.0319824c0.0004883,0.0002441,0.0004883,0.0007324,0.0009766,0.0009766   c0.0390625,0.0224609,0.0820313,0.0332031,0.125,0.0332031c0,0,0,0,0.0001221,0   c0.0435791,0.0002441,0.086792-0.0107422,0.1248779-0.0332031c11.8427315-6.8409233,10.2468376-5.9190598,11.9794922-6.9199219   c0.078125-0.0449219,0.125-0.1279297,0.125-0.2177734l-0.0070801-2.2623291   c2.0167542,1.1560097,1.9149208,1.1431885,2.0373535,1.1431885c0,0,0,0,0.0001221,0   c0.0435791,0.0002441,0.086792-0.0107422,0.1248779-0.0332031c16.4221039-9.4830933,10.7580986-6.2123604,11.9833984-6.9199219   c0.0771484-0.0449219,0.125-0.1279297,0.125-0.2177734c-0.0003052-0.1006622-0.0239563-7.8447762-0.0224609-7.3544922   l2.8984375,1.6796875l-0.0097656,3.0263672c0,0.2998047,0.1855469,0.5751953,0.5273438,0.7773438   c0.1514893,0.0855713,0.3244629,0.1491699,0.5076904,0.1916504c0.0484619,0.0112305,0.1009521,0.0087891,0.1507568,0.0169678   c0.135498,0.0223389,0.2714844,0.0462646,0.4108887,0.0462646c0.0025635,0,0.005127-0.0008545,0.0075684-0.0008545   c0.1210938-0.0003662,0.237793-0.0238037,0.3560791-0.0410156c0.0721436-0.010498,0.1473389-0.0090332,0.217041-0.0257568   c0.4997635-0.1202202,1.0228271-0.4423828,1.0228271-0.9528809L70.652832,41.8300858z M26.4169922,43.1051102l0.0239258,6.9229736   l-3.3132324,1.9255371l0.0373535-10.725708L26.4169922,43.1051102z M33.0253906,46.9226151l-0.032959,10.6898193   l-6.0368652-3.5079346c-0.0461674-13.3241615-0.0273323-7.8881912-0.0371094-10.7099609   C27.0186291,43.4524117,33.4334908,47.1583824,33.0253906,46.9226151z M67.4580078,39.4071121l-2.902832-1.6828613   l-0.0146484-4.7623291c0-0.2656097-0.288887-0.2653847-1.9849854-1.3017578l4.9385986-2.869873L67.4580078,39.4071121z    M33.7475586,63.2500076c-0.1240234-0.0683594-0.2714844-0.1835938-0.2714844-0.3408203   c0.0156097-2.0670395,0.0426865-13.4264908,0.0488281-15.6992188c0.9983902,0.5617638,1.0163574,0.6181641,1.1416016,0.6181641   c0.0002441,0,0.0004883-0.0002441,0.0006104-0.0002441c0.0181885,0,0.0350342-0.0100098,0.0528564-0.0140381   c0.0239258-0.0053711,0.0488281-0.0062256,0.0705566-0.0189209c0.0002441-0.0001221,0.0003662-0.0004883,0.0006104-0.0006104   c0.1001778-0.0581741,1.0341377-0.6005325,0.93396-0.5423584c-0.0101128,3.2015038-0.0296822,9.3955765-0.0390625,12.3652344l0,0   l-0.0097656,3.3017578C35.6762695,63.3401871,34.4871521,63.6760788,33.7475586,63.2500076z M64.0756836,45.5136795   l-4.0681152,2.3452148V35.7243729c0.395134-0.2281189,4.2113724-2.4312973,4.0339355-2.3288574   C64.0449982,34.634594,64.0288467,28.9068928,64.0756836,45.5136795z M38.3354492,60.4354324   c-0.000412-0.1299515-0.038147-11.9880867-0.0385742-12.1221924l4.0716553-2.3519287v12.1446533   C42.2653656,58.1655502,38.0757942,60.5854073,38.3354492,60.4354324z M49.526123,41.2485428l-4.0272217,2.3262939   l-1.7232666-1.0012207l4.0151367-2.333374C47.9154892,40.3127098,49.6328888,41.3105774,49.526123,41.2485428z    M36.1870117,59.4751053l0.0377197-12.0733643l1.5716553,0.9117432c0.0039597,1.2440147-0.0142899-4.4888954,0.0385742,12.1188965   C37.7337227,60.3735733,36.0827637,59.4145508,36.1870117,59.4751053z M45.7451172,44.0107498l4.0317383-2.3288574   c0.0039139,1.2455788-0.0141068-4.4899788,0.0380859,12.1218262L45.7451172,56.14991V44.0107498z M50.3068848,51.1057205   c-0.0516434-9.4942856,0.005455-9.8618431-0.0644531-9.9816895c0-0.0001221,0-0.0002441-0.0001221-0.0003662   c-0.0214844-0.0369873-0.0523682-0.0684814-0.0904541-0.0904541c-0.0004883-0.0002441-0.0004883-0.0007324-0.0009766-0.0009766   c-0.1002121-0.050106-1.9626694-1.1289978-1.8625488-1.0810547l1.8237305-1.0598145l1.9440918,1.1312256l0.0390625,12.1208496   L50.3068848,51.1057205z M56.6308594,37.6738358v12.1401367l-4.0336914,2.3286133L52.559082,40.0244217L56.6308594,37.6738358z    M59.7481689,35.2932205l-1.7156982-1.0045166l4.0263672-2.3398438l1.7297363,1.0091553   C63.6872063,33.0165977,59.6466789,35.351593,59.7481689,35.2932205z M56.3730469,37.2408524l-4.065918,2.348999   l-1.6972656-0.987793l4.0566406-2.3574219L56.3730469,37.2408524z M40.4047852,44.5324783l1.7158203,0.9938965   l-4.0742188,2.3535156l-1.6982422-0.9882813C36.4511337,46.8317184,40.6734428,44.3762398,40.4047852,44.5324783z    M70.1557617,41.396492l-0.0097656,1.6220703c0,0.1484375-0.1660156,0.2666016-0.265625,0.3242188   c-0.7827911,0.4546356-1.9345703,0.0717735-1.9345703-0.3330078l0.0488281-14.5102539l2.2089844-1.2836914L70.1557617,41.396492z    M72.6860352,25.1953201c-0.1554489,0.0903301-37.8726196,22.0069427-37.7666016,21.9453125l0.0068359-1.5378418   c8.5468674-4.9682274,31.2159958-18.1456165,37.7597656-21.9494629V25.1953201z M64.074707,26.1650467l-4.0671387,2.3491211   V16.3747635l0.5053711-0.2915039l3.5236816-2.0324707l0.0131836,4.1757813   c-0.0002441,0.0045166-0.003418,0.0080566-0.003418,0.0126953L64.074707,26.1650467z M26.918457,22.6445389l10.8779297,6.3183594   c0.0039597,1.2441158-0.0142899-4.4892559,0.0385742,12.119873l-10.8793945-6.3278809   C26.9484921,32.4463577,26.925396,24.9087048,26.918457,22.6445389z M38.296875,28.9626541l4.0716553-2.3519287v12.1453857   l-4.0330811,2.3295898C38.3314934,39.8419571,38.3497391,45.5761337,38.296875,28.9626541z M38.0466309,28.5290604   l-10.8814697-6.319458l4.0734863-2.3531494l10.8780518,6.3216553   C42.0135345,26.2376976,37.7775154,28.6845074,38.0466309,28.5290604z M45.7451172,36.8057938V24.6601639l4.0317383-2.3288574   c0.0039139,1.2457809-0.0141068-4.4907036,0.0380859,12.1237793L45.7451172,36.8057938z M52.5566406,20.6727371   l4.0742188-2.3502197v12.1420898l-4.0356445,2.3310547C52.591259,31.5519314,52.6095047,37.2860489,52.5566406,20.6727371z    M52.3061523,20.2392654c-2.695549-1.5655251-8.1840477-4.7531471-10.8807373-6.3193359l4.0751953-2.3521729l10.8786621,6.3221436   L52.3061523,20.2392654z M52.9155273,7.288094l10.8710938,6.3291011l-3.5236816,2.0324707l-0.5053711,0.2915039   L48.8778076,9.6185379L52.9155273,7.288094z M41.1850586,16.4736404l-0.0068359-2.1191406l10.8779297,6.3183594   c0.0039597,1.2441158-0.0142899-4.4892559,0.0385742,12.119873l-1.7878418-1.0383301   c-0.0448647-10.4567623,0.0312691-9.9638042-0.1560059-10.0727539c-0.9328232-0.5432339-4.4638023-2.599514-4.2392578-2.46875   C45.8540001,19.1774406,41.3018494,16.5413151,41.1850586,16.4736404z M38.6459961,15.5771561l2.1638184,1.2565918   c0.0001221,0,0.0001221,0.0002441,0.0002441,0.0002441c0.1270905,0.0738182-0.2481499-0.1441345,8.7174072,5.0633545   l-4.0349121,2.3306885l-10.8782959-6.3217773L38.6459961,15.5771561z M26.5795898,35.1142654   c13.1806564,7.6675606,5.5547638,3.2558517,11.5065918,6.6542969h0.0002441c0.0429688,0,0.0859375-0.0107422,0.125-0.0332031   c12.5840302-7.3270645,12.1044922-6.859211,12.1044922-7.1376953l-0.0070801-2.2633057   c0.1001663,0.0581932,2.0125198,1.1691551,1.9123535,1.1109619c0.032959,0.0189209,0.0692139,0.0251465,0.1052246,0.0279541   c0.0067139,0.0006104,0.0129395,0.005249,0.0195313,0.005249h0.0002441c0.0429688,0,0.0859375-0.0107422,0.125-0.0332031   c12.5840302-7.3270626,12.1044922-6.859211,12.1044922-7.1376953l-0.0241699-7.6337891l7.885498,4.5458984L34.6762695,45.1699295   c-3.0580597-1.7641869-11.6072636-6.6962051-16.4013672-9.4619141l8.1685791-4.7441406   C26.5026608,35.0184631,26.352951,34.9835129,26.5795898,35.1142654z M18.0258789,36.1420975l16.3996582,9.4611816   l-0.0070801,1.5437012c-1.6016121-0.9246063-14.476305-8.357132-16.3925781-9.4633789V36.1420975z M22.6655273,40.9423904   l-0.0498047,14.4365234c0,0.1142578-0.0966797,0.2363281-0.2675781,0.3349609   c-0.7542572,0.451889-1.9316406,0.061821-1.9316406-0.3330078c0.0004044-0.1006927,0.0057793-1.5374603,0.0053711-1.4367676   l0.0532227-14.2689209C20.5752354,39.7331123,22.8077106,41.0246468,22.6655273,40.9423904z M18.0297852,55.7839432   c1.6774578,0.967926-6.0719156-3.5036201,16.3911133,9.4580078c-0.000351,0.1006927-0.005722,1.6429291-0.0053711,1.5422363   c-0.1000061-0.0578232-8.120266-4.6949005-7.6142578-4.4023438c-0.0061035-0.0036621-0.0136719-0.0024414-0.0200195-0.0053711   l-8.7573242-5.0561523L18.0297852,55.7839432z M26.4267578,62.7495193l0.0183105,6.9060059l-3.319458,1.9291992   l0.0289307-10.7243652L26.4267578,62.7495193z M20.465332,59.3105545l2.1904297,1.2626953l-0.0400391,14.6650391   c0,0.1152344-0.0966797,0.2363281-0.2646484,0.3330078c-0.4462891,0.2587891-1.2060547,0.2568359-1.6640625-0.0019531   c-0.1689453-0.09375-0.2705078-0.2216797-0.2705078-0.3398438L20.465332,59.3105545z M19.920166,74.0262527l-0.0036621,1.2022705   c0,0.3085938,0.1923828,0.5917969,0.5263672,0.7773438c0.605217,0.3433456,1.5524044,0.3471603,2.1582031-0.0009766   c0.3271484-0.1884766,0.5146484-0.4677734,0.5146484-0.765625l0.0083008-3.0755615l3.3225098-1.9310303l0.0090332,3.3669434   c0,0.0888672,0.0478516,0.1708984,0.1240234,0.2148438l6.4123535,3.7255859l-0.0158691,5.2285156   c0,0.3007813,0.1855469,0.5761719,0.5253906,0.7763672c0.949543,0.5492477,2.6748047,0.173172,2.6748047-0.765625   l0.0102539-3.3856201c0.2018204,0.117363,1.8816452,1.0941772,1.7749023,1.0321045   c0.2397232,0.1378403-0.4052277,0.320343,12.2294922-6.9101563c0.0771484-0.0449219,0.125-0.1279297,0.125-0.2177734   l-0.0070801-2.2634277c2.0190773,1.1584549,1.9816971,1.2149658,2.1623535,1.111084   c0.0036621-0.0021973,0.005127-0.0064697,0.0087891-0.0087891c12.5105972-7.281189,12.0996094-6.8533478,12.0996094-7.1318359   l-0.0217285-7.0610352l2.8962402,1.6777344L67.446167,62.533699c-0.100174,0.0581779-1.5253448,0.8858147-1.4251709,0.8276367   c-0.1960297,0.1140404-0.1138763,0.2220116-0.1330566,2.9421387L34.677124,84.4487381   c-0.8659096-0.4999542,2.3425179,1.3525085-16.4022217-9.4702148L19.920166,74.0262527z M18.0297852,75.4150467   c22.4704781,12.9752502,14.7112122,8.4947739,16.3916016,9.4650879l-0.0058594,1.5361328   c-6.982729-4.0265198,10.6419182,6.14785-16.3916016-9.4602051L18.0297852,75.4150467z M22.6264648,80.1923904   l-0.0107422,4.1757813c0,0.1074219-0.0986328,0.2285156-0.2675781,0.3251953   c-0.7561893,0.4510574-1.9316406,0.0639648-1.9316406-0.3339844l0.0185547-5.4333496   C20.5352249,78.9839172,22.7686863,80.2745743,22.6264648,80.1923904z M35.6762695,91.8984451   c0,0.1152344-0.0966797,0.2363281-0.2675781,0.3339844c-0.7652473,0.4512177-1.9326172,0.0653534-1.9326172-0.3339844   l0.0087891-5.4379883c1.0102234,0.5706406,1.1147118,0.7181244,1.3046875,0.6088867   c0.1000175-0.0575104,0.995575-0.580864,0.8955078-0.5234375L35.6762695,91.8984451z M34.918457,86.412117l0.0068359-1.5292969   l30.9589844-17.9990234l-0.0068359,1.5400391C64.4657364,69.2440872,73.5519562,63.9646683,34.918457,86.412117z    M66.3950195,64.010994l3.2026367,1.8499756v9.6778564l-1.5170898-0.876709   c-0.0021973-0.0012207-0.0048828-0.0006104-0.0070801-0.0018311l-1.7077637-0.9864502L66.3950195,64.010994z    M71.1661377,77.0241776l-2.8995361,1.6884766l-3.2121582-1.8554688l2.8994141-1.6882324L71.1661377,77.0241776z    M64.0883789,91.9062576l-0.0162354-5.0625l4.6461182-2.6831055c0.001152,0.350975,0.0169449,5.1603851,0.0166016,5.0561523   C66.1143494,90.7333679,63.9597855,91.9804993,64.0883789,91.9062576z M56.9744873,96.0153885l-0.0184326-5.0625   l4.6486816-2.6843262l0.0161133,5.0629883C61.5194702,93.3901138,56.6849098,96.1826553,56.9744873,96.0153885z    M56.7055664,90.5195389l-0.1274414-0.0740967l-12.5839844-7.3157959l4.6461182-2.6828613l12.7137451,7.3884277   L56.7055664,90.5195389z M68.0161133,82.8768387l-3.2197266-1.8719482l0.0087891-3.713623l3.2109375,1.8547363V82.8768387z    M55.7563477,76.3378983l12.7109375,7.3896484l-4.6461182,2.6829834l-12.713623-7.3883057L55.7563477,76.3378983z    M43.746582,83.5644608l12.7094727,7.3884277c0.0003624,0.1011887,0.0192604,5.3942261,0.0180664,5.0598145   c-1.3003883-0.7554855,4.7107201,2.7368011-12.7177734-7.3886719L43.746582,83.5644608z M56.7258301,96.6982498h0.0002441   c0.1286926,0-0.0979462,0.0809174,4.3520508-2.4743652l0.277832,0.1601563l-4.6503906,2.6853027l-12.7128906-7.390625   l0.2905273-0.1694336C44.383625,89.5676193,57.5721664,97.2404404,56.7258301,96.6982498z M56.9550781,97.5046463   l4.6496582-2.6846924l0.0161133,5.0644531l-4.6486816,2.68396C56.9718246,102.4671783,56.9540634,97.20401,56.9550781,97.5046463z    M43.7426758,90.1171951l12.7119141,7.3876953c0.0003433,0.1011887,0.018219,5.3947144,0.0170898,5.0603027L43.7592773,95.177742   L43.7426758,90.1171951z M64.0883789,98.4597244l-0.0162354-5.0644531l4.6490479-2.6843262l0.0166016,5.0644531   L64.0883789,98.4597244z M68.4663086,90.2783279l-4.645874,2.6826172l-0.2779541-0.1601563l4.6451416-2.6826172   L68.4663086,90.2783279z M70.736084,90.3977127v-9.680542l3.2302246,1.8658447l-0.0292969,9.6640625L70.736084,90.3977127z    M74.4399414,92.2441483l0.0302734-9.6591797c1.6281357-0.9458923-5.897171,3.4260635,15.9208984-9.2495117l-0.03125,9.6567383   L74.4399414,92.2441483z M88.7963867,72.1171951l1.3491211,0.7797852   c-21.8387299,12.6849823-14.2949677,8.3031998-15.9291992,9.2524414c-0.3039169-0.1755524-3.426796-1.9794769-3.2307129-1.8662109   l2.8994141-1.6884766c1.850296,1.0550766,1.7659302,1.0537109,1.8908691,1.0537109   c0.0036392-0.0012512-0.0015869,0.0028152,0.0285645-0.0075684c0.032959-0.0039063,0.0661621-0.0083008,0.095459-0.0256348   c0.0002441-0.0001221,0.0003662-0.0004883,0.0006104-0.0006104c0.0003662-0.0002441,0.0008545-0.0001221,0.0013428-0.0003662   L88.7963867,72.1171951z M91.9458008,69.7050858l-15.9187012,9.2575684   c0.0003052-0.1003265,0.0309982-10.30793,0.0290527-9.6607666c18.9655991-11.0297661,14.9015121-8.6662292,15.9189453-9.2579346   L91.9458008,69.7050858z"/><path d="M86.8547363,69.752449l0.0021973,0.7537842l-0.1896973,0.1094971   c-0.1733398,0.1002274-0.1711807,0.3995514,0.0008545,0.3005371l0.6624756-0.3825684   c0.1750107-0.1008835,0.1714706-0.3995895-0.0008545-0.3005371l-0.1900635,0.1098633l-0.0020752-0.7539063   c0.3665771-0.2877197,0.6436768-0.8161621,0.6424561-1.2589111l-0.0029297-1.055542l-1.5712891,0.9071045l0.0029297,1.055542   C86.2099609,69.652771,86.4682388,69.8962097,86.8547363,69.752449z"/><path d="M46.9492188,82.1909256c-0.0898438-0.0517578-0.2314453-0.0501709-0.3206787,0.001709l-1.3907471,0.8081055   c-0.0891113,0.052002-0.0915527,0.1339111-0.001709,0.185791l2.5617676,1.4790039   c0.0898438,0.052002,0.234375,0.052002,0.3234863,0l1.390625-0.8081055   c0.0893555-0.0518799,0.0888672-0.135498-0.0009766-0.1873779L46.9492188,82.1909256z"/><polygon points="53.1889648,99.198494 53.5340576,99.3940506 53.5340576,98.0256424 53.9020996,98.2324295 53.3731689,97.116951    52.8441162,97.6230545 53.2004395,97.8300858  "/><polygon points="54.5117188,99.9690018 54.8566895,100.1644363 54.8566895,98.7844315 55.2130127,98.9914627 54.684082,97.8759842    54.1551514,98.3820877 54.5231934,98.589119  "/><path d="M52.1311035,97.8186111c0-0.5866699-0.3911133-1.3110352-0.885498-1.6446533v-0.0919189   c0-0.0804443-0.0461426-0.1611328-0.1264648-0.2186279c-0.0574951-0.0230713-0.1380615,0-0.1380615,0.0806885v0.0917969   c-0.3733444-0.207489-0.8740234-0.0386581-0.8740234,0.6325684l0.9315186,0.5290527l-0.0114746,1.0581055   c0,0.1953125,0.1494141,0.4713135,0.3334961,0.5634766c0.2660561,0.149437,0.4068832-0.1316986,0.2646484-0.3220215   c-0.034668-0.0115967-0.0690918,0-0.0690918,0.0574951c0,0.2642288-0.3796387,0.0702667-0.3796387-0.2186279v-1.0695801   L52.1311035,97.8186111z"/><polygon points="52.8095703,99.6355057 55.236084,101.0384598 55.236084,100.635994 52.8095703,99.2330399  "/><polygon points="79.8054199,74.385994 79.8068848,74.8656082 82.6470947,73.2258377 82.645752,72.7461014  "/><polygon points="80.2525635,73.8349686 80.6496582,73.6057205 80.6450195,71.9914627 81.0725098,71.7446365 80.4489746,71.1555252    79.8305664,72.4616776 80.2480469,72.2207108  "/><polygon points="81.7999268,72.9415359 82.1970215,72.71241 82.1923828,71.0980301 82.6098633,70.8570633 81.986084,70.268074    81.3677979,71.5741043 81.7954102,71.3272781  "/><path d="M79.2463379,71.366951l0.0117188,4.2873535c0,0.0773773,0.0813828,0.1354904,0.1608887,0.0928955   c3.8740311-2.2613678,3.7878418-2.1308823,3.7878418-2.2489014c-0.033165-4.4202881,0.0367126-4.3188858-0.0654297-4.380249   c-0.0339355-0.0183105-0.0732422-0.0183105-0.1071777,0C79.1412735,71.3904419,79.2463379,71.2495193,79.2463379,71.366951z    M79.4724121,75.4687576l-0.0117188-4.0402832l3.5197754-2.0319824l0.0118408,4.0402832L79.4724121,75.4687576z"/><path d="M84.9143066,72.5581131c0.1000061,0,0.313324-0.1698532,3.7879639-2.1704102   c0.1031723-0.0619812,0.032486,0.0899582,0.0418701-4.380249c0-0.0379639-0.0209961-0.0731201-0.0537109-0.0928955   c-0.1018219-0.0549393,0.1364517-0.1155853-3.8427734,2.15625c-0.103096,0.0615463-0.0325089-0.0972977-0.0405273,4.380127   C84.8071289,72.4887772,84.8536987,72.5581131,84.9143066,72.5581131z M88.5296631,66.1931229l0.0118408,4.0402832   l-3.5212402,2.0318604l-0.0117188-4.0401611L88.5296631,66.1931229z"/><path d="M31.3017578,55.3950272c0.0124512,0.0068359,0.0258789,0.0106201,0.0394287,0.0106201   c0.1513767,0,0.0456924-0.084301,0.088501-3.2359619c0-0.1002426-0.0216217-0.0405731-2.7891846-1.6560059   c-0.0549297-0.0297432-0.1184082,0.0089302-0.1184082,0.0683594l-0.0096436,3.1569824   c0,0.027832,0.0153809,0.0539551,0.0395508,0.0683594L31.3017578,55.3950272z M28.6789551,50.7187576l2.5928955,1.4960938   l-0.008667,2.9750977l-2.5927734-1.4962158L28.6789551,50.7187576z"/><path d="M29.3337402,52.3137283c-0.0009766,0.3586426,0.2233887,0.786499,0.5202637,1.0195313l-0.001709,0.6103516   l-0.1539307-0.0888672c-0.1392193-0.0804634-0.1427422,0.1614342-0.0006104,0.2434082l0.536377,0.3096924   c0.1398239,0.08078,0.1403027-0.1629448,0.0007324-0.2432861l-0.1535645-0.0887451l0.001709-0.6103516   c0.1296387,0.0482178,0.2458496,0.043457,0.3347168-0.0083008c0.1158447-0.06604,0.1877441-0.2076416,0.1882324-0.4088135   l0.0024414-0.8547363l-1.2722168-0.7346191L29.3337402,52.3137283z"/><path d="M31.3017578,74.6900711c0.0124512,0.0067139,0.0258789,0.0106201,0.0394287,0.0106201   c0.1517773,0,0.0452633-0.0844269,0.088501-3.236084c0-0.027832-0.0153809-0.053833-0.0394287-0.0683594   c-2.6840572-1.5327454-2.7286568-1.6413498-2.8287354-1.5876465c-0.0240479,0.0144043-0.0395508,0.0405273-0.0395508,0.0683594   l-0.0095215,3.1571045c0,0.0279541,0.0153809,0.053833,0.0394287,0.0683594L31.3017578,74.6900711z M28.6789551,70.0136795   l2.5928955,1.4962158l-0.008667,2.9750977l-2.5927734-1.4962158L28.6789551,70.0136795z"/><path d="M29.3337402,71.6088943c-0.0009766,0.3585205,0.2233887,0.786377,0.5202637,1.0194092l-0.001709,0.6103516   L29.6983643,73.14991c-0.138937-0.0802994-0.1430779,0.1608963-0.0007324,0.2431641l0.536499,0.3098145   c0.1397324,0.0807266,0.1403141-0.1624756,0.0007324-0.2434082l-0.1536865-0.088623l0.0018311-0.6103516   c0.3106403,0.1158295,0.5221272-0.0780029,0.5229492-0.4171143l0.0024414-0.8547363l-1.2722168-0.7344971L29.3337402,71.6088943z"/><polygon points="53.1889648,92.6982498 53.5340576,92.8938065 53.5340576,91.5253983 53.9020996,91.7321854 53.3731689,90.6167068    52.8441162,91.1226883 53.2004395,91.3298416  "/><polygon points="54.5117188,93.4687576 54.8566895,93.6641922 54.8566895,92.2841873 55.2130127,92.4912186 54.684082,91.3757401    54.1551514,91.8817215 54.5231934,92.0888748  "/><path d="M51.0270996,91.7552567c0,0.1954346,0.1494141,0.4713135,0.3334961,0.5634766   c0.2661629,0.149498,0.4067383-0.1313858,0.2646484-0.3220215c-0.034668-0.0115967-0.0690918,0-0.0690918,0.0574951   c0,0.2643738-0.3796387,0.0703354-0.3796387-0.2185059v-1.0695801l0.9545898,0.552124   c0-0.5865479-0.3911133-1.3110352-0.885498-1.6446533v-0.0917969c0-0.0805664-0.0461426-0.1611328-0.1264648-0.2186279   c-0.0574951-0.0230713-0.1380615,0-0.1380615,0.0805664v0.0919189c-0.3727722-0.2071686-0.8740234-0.0402145-0.8740234,0.6325684   l0.9315186,0.5290527L51.0270996,91.7552567z"/><polygon points="55.236084,94.1357498 52.8095703,92.7326736 52.8095703,93.1352615 55.236084,94.5380936  "/></g></svg>