<svg xmlns="http://www.w3.org/2000/svg" xmlns:xlink="http://www.w3.org/1999/xlink" version="1.1" viewBox="0 0 110 110"><g><path d="M61.7902832,98.1423035c0.0004883,0.0883789,0.0473633,0.1704102,0.1245117,0.215332l7.9301758,4.6098633   c0.0001831,0.0001221,0.0004883,0.000061,0.0006714,0.0001831c0.0001221,0.000061,0.0001831,0.0002441,0.0003052,0.0003052   c0.0385742,0.0219727,0.081543,0.0332031,0.1245117,0.0332031s0.0864258-0.0112305,0.125-0.0336914l9.0800781-5.2397461   c0.0776367-0.0444336,0.1254883-0.1279297,0.125-0.2177734l-0.0043945-1.3919678l1.1966553,0.6921387   c0.0036621,0.0023193,0.005127,0.0067749,0.0089111,0.0089111c0.0385742,0.0219727,0.081543,0.0332031,0.1245117,0.0332031   c0.0014038,0,0.0026245-0.0010986,0.0040283-0.0010986c0.0001221,0,0.0002441,0.0001221,0.0003662,0.0001221   c0.043457,0,0.0864258-0.0112305,0.1254883-0.0336914c0.0018311-0.0010376,0.0025635-0.0032349,0.0043335-0.0043335   l9.0664673-5.234436c0.0776367-0.0444336,0.1254883-0.1274414,0.125-0.2172852l-0.0297852-9.6162109   c-0.0001831-0.0280762-0.0123901-0.0527954-0.0213623-0.0786133c-0.005188-0.0148926-0.0044556-0.0316772-0.0122681-0.0452881   c-0.0107422-0.0186768-0.0302734-0.0304565-0.0455933-0.0458984c-0.0151978-0.0153198-0.026123-0.0343628-0.0452881-0.0455322   l-7.9350586-4.6113281c-0.0761719-0.0439453-0.1723633-0.0449219-0.2504883,0l-9.0633545,5.232666   c-0.0043945,0.0021973-0.0095215,0.0012207-0.0137939,0.0036621c-0.0776367,0.0449219-0.125,0.1279297-0.1245117,0.2177734   l0.0078125,1.3980713l-1.2128906-0.7056885c-0.0761719-0.0439453-0.171875-0.0449219-0.25,0l-9.0682983,5.2388306   c-0.0004883,0.0002441-0.0010376,0.0001831-0.0015259,0.0004272c-0.0550537,0.0318604-0.0872803,0.0856323-0.1057129,0.1446533   c-0.0075073,0.0237427-0.0192871,0.0460815-0.0192871,0.0716553c0,0.0002441,0.0001831,0.0004883,0.0001831,0.0007324   s-0.0001831,0.0004883-0.0001831,0.0007324L61.7902832,98.1423035z M69.9406738,92.8522644l-6.630188-3.862854   l-0.8019409-0.4672241l3.0184326-1.7438354l7.4431763,4.3255615L69.9406738,92.8522644z M62.2897949,97.9972839   l-0.027832-9.0403442l3.5743408,2.0825195l3.8543091,2.2459106l0.0083008,2.6351318l0.0200806,6.3956299L62.2897949,97.9972839z    M70.2191162,102.3190002l-0.0219727-6.9765625l-0.0064697-2.0570679l1.9603882-1.1314087l1.0650635-0.614624v2.899292   l1.2788086-2.0263062l1.2788696,0.5297852V90.063446l2.9974365-1.7297363l0.0013428,0.4299927l0.0177002,6.9181519   c0,0.0053711,0.0036621,0.0097046,0.0040283,0.0150146l0.005249,1.6705322L70.2191162,102.3190002z M79.2702637,87.9006042   c0-0.0435791-0.0119629-0.0853271-0.0326538-0.1220093c-0.0003052-0.0005493-0.0001221-0.0011597-0.0004272-0.0016479   c-0.0001221-0.0003052-0.0002441-0.0006104-0.0004272-0.0009155c-0.0213013-0.0368042-0.0523071-0.0679321-0.09021-0.0904541   c-0.0001221-0.000061-0.0001831-0.0002441-0.0003052-0.0003052l0,0c-0.0004272-0.0002441-0.0005493-0.0007324-0.0009766-0.0009766   s-0.0008545-0.000061-0.0012817-0.0003052l-6.2243042-3.6266479l-0.0068359-1.2472534l7.4345093,4.3201904l0.0275269,9.0344849   l-1.0805664-0.6253052L79.2702637,87.9006042z M80.6032104,86.693634l-7.4404297-4.3198242l3.0219727-1.7446289   l7.4368896,4.3218994L80.6032104,86.693634z M80.8792725,96.167511l-0.0284424-9.0393677l3.0195313-1.7434082v2.9026489   l1.2788086-2.0263062l1.2788696,0.5297852v-2.8828735l2.9955444-1.7295532l0.027832,9.0400391L80.8792725,96.167511z    M81.7365723,77.4240417l7.4368896,4.3217163l-2.8829956,1.6645508l-0.111084,0.0640869l-7.4368286-4.3218384   L81.7365723,77.4240417z M71.0803223,83.5700378l7.4412231,4.3299561l-2.9931641,1.7275391l-7.444519-4.326355   L71.0803223,83.5700378z"/><polygon points="70.9599609,98.2732239 70.9662476,101.0496521 75.2984009,98.5486755 75.2890625,95.7721863  "/><polygon points="81.7011108,91.9666443 81.7073975,94.7431335 86.0395508,92.2420959 86.0301514,89.4656067  "/><path d="M35.9016113,65.2790222c-1.9714508-0.8814468,7.1416817,3.1931152-19.2807617-8.6206017   c-0.1629829-0.0710449-0.3515625,0.0450249-0.3515625,0.2280273l-0.0395508,19.2158165l0,0v0.000061v0.0038452   c0,0.0440063,0.0115356,0.0864258,0.0324707,0.1234131c0.0007935,0.0013428,0.0024414,0.0019531,0.0032959,0.0033569   c0.020752,0.0351563,0.0491943,0.065979,0.0853271,0.0875854c0.0006104,0.0003662,0.0014648,0.0001831,0.0020752,0.0005493   c0.0007935,0.0004883,0.0010376,0.0014648,0.0018311,0.0018921L35.614502,87.4430847   c0.1653709,0.0962982,0.375-0.0240784,0.375-0.2163086c0.0823059-29.7634697,0.0539169-19.4980087,0.0600586-21.71875   C36.0500488,65.408905,35.9919434,65.3190613,35.9016113,65.2790222z M35.4909668,84.9548035l-17.1010742-9.8720703   c0.0098343-4.3386765-0.0064716,2.8549271,0.0386963-17.0707359l17.1204834,7.6566734L35.4909668,84.9548035z"/><polygon points="48.4207764,73.9996033 48.4267578,76.0985413 56.0594482,71.691803 56.0534668,69.592865  "/><path d="M6.8981934,46.2731667l3.4048462,1.5244141l-0.0869751,31.7636681c0,0.0893555,0.0473633,0.1723633,0.125,0.2167969   c0.6147184,0.3549271,30.6487007,17.6949158,31.2490234,18.0415039c0.0746536,0.0434723,0.1693459,0.0461578,0.2495117,0.0004883   c0.5523033-0.3145981,20.8517838-12.1225433,22.7108765-13.2029419c0.0114746-0.0045166,0.0244141-0.0031738,0.0352173-0.0094604   c0.1198425-0.0696793-1.2117233,0.7045593,35.9101563-20.879879c0.0771484-0.0449219,0.1245117-0.1269531,0.1245117-0.2158203   l0.0894775-33.2264404l2.4066162-1.3985596c0.0771484-0.0449219,0.1245117-0.1269531,0.1245117-0.2158203   c0.0009079-0.4827404-0.0035858,1.7487507,0.0087891-4.7211914c-0.0076218-0.1442547-0.0729675-0.1294155-0.1474609-0.2148438   L65.770752,7.0207253c-0.0732422-0.0327148-0.1582031-0.0288086-0.2275391,0.0117188l-14.489624,8.4205322   c-0.0032959,0.0011597-0.005249,0.003479-0.0084229,0.0048218L6.8845215,41.1213112   c-0.00177,0.0010376-0.0023804,0.0031738-0.0041504,0.0042725c-0.0018921,0.0011597-0.0042114,0.0008545-0.0061035,0.0020752   c-0.0712891,0.0458984-0.1142578,0.125-0.1142578,0.2094727L6.7502441,46.044651   C6.7502441,46.1432838,6.8078613,46.2331276,6.8981934,46.2731667z M19.442749,34.4017677L56.22052,50.8593483l-7.413269,4.3081665   L12.0292969,38.7099953L19.442749,34.4017677z M27.3598022,29.8008156L64.1380005,46.258213l-7.3853149,4.2919312   l-36.777771-16.4576416L27.3598022,29.8008156z M35.3054199,25.1833229l36.7590332,16.4685059l-7.3942871,4.2971191   L27.8919678,29.4916115L35.3054199,25.1833229z M43.2142944,20.5871925l36.7863159,16.4526367l-7.4036865,4.3025513   L35.8374023,24.8741798L43.2142944,20.5871925z M51.1599121,15.9696388l36.767395,16.4636841l-7.394165,4.2969971   L43.746582,20.2778053L51.1599121,15.9696388z M59.0774536,11.3685036l36.767334,16.463623l-7.385437,4.2919922   l-36.767395-16.4636841L59.0774536,11.3685036z M10.8024902,48.0212135l30.7573853,13.7709351l-0.0984497,35.3762779   l-30.744873-17.7507324L10.8024902,48.0212135z M46.588623,94.4743347   c-0.0002861-0.1131516-0.0332375-12.8948135-0.0385742-15.3618164l12.800293-7.3725586l0.0385742,15.2983398   C58.0799065,87.7987442,64.1302032,84.2839584,46.588623,94.4743347z M64.6706543,64.8127136   c19.5544815-11.2820168,12.8104477-7.3902588,14.269104-8.2326622c0.3602295,0.2069702,0.7018433,0.4060669,1.0402832,0.6040039   l-9.9749146,5.7966309c-0.0799103,0.0465736-0.1241913,0.1657486-0.1245117,0.215332l-0.0234375,7.6738243   c-0.0004883,0.0898438,0.0473633,0.1728516,0.125,0.2172852l7.2421875,4.1811523   c0.0746536,0.0434723,0.169342,0.0461578,0.2495117,0.0004959c0.0001221-0.0000687,0.0001831-0.0002518,0.0003052-0.0003128   c0.0001831-0.0001221,0.0004883-0.000061,0.0006714-0.0001831l11.890625-6.9101563   c0.0766602-0.0449219,0.1240234-0.1269531,0.1245117-0.215332l0.0166016-5.4332848   c3.8733902,2.2519722,1.0838013,0.6318283,5.868042,3.4160728L64.7092285,83.9465027L64.6706543,64.8127136z    M88.7572632,60.4728737c-3.8820419,2.2559967-8.9504547,5.2014427-11.3849487,6.6162071l-2.3627319-1.3640137   l11.3894653-6.6188316C86.8737259,59.3813667,88.8640213,60.5349274,88.7572632,60.4728737z M82.0308228,56.5809059   c0.135582,0.078373,2.4769592,1.4318199,2.3286133,1.3460693l-11.3909302,6.6197472l-2.3388672-1.3502159   C74.8702621,60.7357178,78.0780716,58.8599014,82.0308228,56.5809059z M70.3791504,63.6291237l2.340271,1.3511314v2.2424316   l1.0205688-0.4227905l1.0205078,1.6170044v-2.2583008l2.3618164,1.3635864   c-0.0005875,0.1939163-0.0228348,7.5023193-0.0216064,7.0975952l-6.743042-3.8930054L70.3791504,63.6291237z    M77.6223755,67.5223694l11.3778687-6.6121788c-0.0005875,0.4239426-0.0103912,7.5423164-0.0097656,7.0875816   l-11.3896484,6.6191406C77.6016159,74.3570328,77.6237717,67.0616531,77.6223755,67.5223694z M100.1208496,63.3674049   l-3.9910889,2.3193932l-0.0391846-19.1362877c0-0.190155-0.205925-0.3114204-0.3730469-0.2172852   c-1.547821,0.8761597-31.2958679,18.0447426-31.4057617,18.1120567c-0.1077805,0.0607224-0.1459427,0.1571198-0.1415405,0.265564   l0.0396729,19.5258179l-4.3215332,2.5114136l-0.0390015-15.4402466c0-0.1894302-0.2047005-0.3120956-0.375-0.2163086   c-10.1700439,5.8518066,3.8078079-2.1816635-13.175293,7.5776367c0,0,0,0-0.0004883,0   c-0.2271347,0-0.2704544,0.2865982-0.2329102,0.3867188c-0.0269699,0.4550171-0.0092201,2.6191406,0.0235596,15.7113647   l-4.1229248,2.3959961l0.0968628-35.1457481l2.1665649,0.9700317c0.0327148,0.0146484,0.0673828,0.0219727,0.1020508,0.0219727   c0.043457,0,0.0869141-0.0112305,0.1254883-0.0336914l55.75177-32.399292L100.1208496,63.3674049z M65.6833496,7.5295143   l36.7695313,16.4624023l-6.0759888,3.5310059l-36.767395-16.463623L65.6833496,7.5295143z M11.4970703,39.0193214   l36.777771,16.4575806l-3.947937,2.2943115L7.557373,41.3088112L11.4970703,39.0193214z"/><polygon points="46.9395142,93.2268372 59.0395508,86.2068176 59.0395508,85.6268616 46.9395142,92.6668396  "/><polygon points="59.0394897,83.2071228 59.0194702,82.6471863 46.9194946,89.6672058 46.9395142,90.2271423  "/><polygon points="46.9194946,87.2374573 59.0194702,80.2174377 59.0194702,79.6575012 46.9194946,86.6775208  "/><polygon points="59.0194702,77.2278137 58.9995728,76.6678772 46.8994751,83.6878967 46.9194946,84.2478333  "/><polygon points="58.9995728,73.6681824 46.8994751,80.6882019 46.8994751,81.268158 58.9995728,74.2281189  "/><polygon points="73.3392334,69.6543884 73.3327026,71.5986023 76.366272,73.349884 76.3706055,71.4057312  "/><path d="M45.4094238,70.3468933c0,0.1923981,0.2098122,0.3125,0.375,0.2163086l50.8999023-29.3998985   c0.0813522-0.0465431,0.1241531-0.1370697,0.125-0.2138672c0-0.0006104-0.0004272-0.0011597-0.0004272-0.00177   s0.0004272-0.0010376,0.0004272-0.0016479l-0.0200195-5.4599609c-0.0010452-0.1896973-0.2057571-0.3110275-0.3730469-0.2167969   c-63.3324814,36.5564995-48.6434746,28.077774-50.9018555,29.3813438c-0.0776367,0.0449219-0.1254883,0.1279297-0.125,0.2172852   C45.3897781,64.9705811,45.4107628,70.7134628,45.4094238,70.3468933z M95.2316895,36.5182838   c0.0008087,0.1692924,0.0180054,3.7730637,0.017395,3.6446533L45.9074707,68.67453l-0.0175781-3.6635742L95.2316895,36.5182838z"/></g></svg>