<svg xmlns="http://www.w3.org/2000/svg" xmlns:xlink="http://www.w3.org/1999/xlink" version="1.1" viewBox="0 0 110 110"><g><path d="M10.3498554,59.1860352c0.0004883,0.0888672,0.0473633,0.1708984,0.1245117,0.2158203   c17.7116909,10.2985764,60.8143463,35.4802094,61.112793,35.3041992c0.5476074-0.3229446,1.8078156-1.0556793,1.7070313-0.9960938   c0.2380371-0.1386032,0.0766907,0.5406036,0.0883789-14.3035889l13.5181274-7.8031616l12.2460327,7.0725708   c0.0390625,0.0224609,0.0820313,0.0336914,0.125,0.0336914s0.0869141-0.0112305,0.125-0.0336914   c0.0025024-0.0014038,0.003418-0.0043335,0.0058594-0.0058594l1.7011719-0.9882813   c0.0771484-0.0449219,0.1240234-0.1274414,0.1240234-0.2167969c-0.1050034-36.677063-0.0571136-35.1426926-0.1224365-35.2554321   c-0.0515976-0.0893707-18.9064102-11.0086212-60.9859619-35.4252319c-0.078125-0.0449219-0.1728516-0.0449219-0.2509766,0   C10.4081726,23.8315411,10.2497578,23.7769566,10.2497578,24.027832c0,0.0001831,0.0001221,0.0003052,0.0001221,0.0004883   C10.2498798,24.1938629,10.3493156,59.0503349,10.3498554,59.1860352z M59.2583618,52.6691895   c0.1280289,0.0737686,10.4660568,6.0306778,10.0787964,5.807373c0.2767792,0.1497536,1.2916946,0.7432365,1.7851563,1.0273438   c0.0391693,21.4080048,0.0218811,20.722702,0.0498047,20.8227539c0.0038834,1.4047318-0.014061-5.0854187,0.0379639,13.7293701   l-11.8537598-6.8186035L59.2583618,52.6691895z M73.3394165,62.3518677l3.2330933,1.8627319l-0.0292969,8.6525879   l-3.1818237-1.8422852L73.3394165,62.3518677z M77.0734863,64.2172852c0.1008759-0.0585709,7.5879135-4.4057083,7.1132813-4.130127   l-0.0273438,8.6437988l-7.1132813,4.1342773L77.0734863,64.2172852z M76.8226929,63.7811279l-2.8918457-1.6661377   l7.1177368-4.1364746l2.8908691,1.6694946C83.8385849,59.7065926,76.3480911,64.0567551,76.8226929,63.7811279z    M73.3325195,59.6195068l-0.0031738-1.2572021c0-0.2108192-0.1455307-0.2143898-1.5828247-1.0574951   c0.3229065-0.2031898,0.4418564-0.1763802,0.4910278-0.364624l3.4951172-2.0314941l2.8619385,1.652771L73.3325195,59.6195068z    M71.1797485,56.9776001l-3.854187-2.2251587l4.4373779-2.5913696l-0.008606,4.4824219L71.1797485,56.9776001z    M66.8110962,54.4553833l-2.8903198-1.6687012c1.7807617-1.0303955,3.9616699-2.2960815,4.7020264-2.7283325l2.8933105,1.6662598   L66.8110962,54.4553833z M10.7512226,24.4636841l48.0014038,27.895752l0.0979004,34.5775146L10.8493671,59.0415039   L10.7512226,24.4636841z M73.362854,71.6035156c2.6230392,1.5075531,3.5188217,2.065773,3.432312,1.9467773   c0.0429688,0,0.0869141-0.0112305,0.1259766-0.0336914c7.8833771-4.6376038,7.7382813-4.3670349,7.7382813-4.640625   l0.0282593-9.2077026c0.0004883-0.0064697,0.0049438-0.0118408,0.0049438-0.0183716   c0-0.0893555-0.0478516-0.171875-0.125-0.2163086c-9.0920105-5.1947212-8.71978-5.1689377-8.9609375-5.0302734   l-3.3515625,1.9489136c0.0039139-2.060276,0.0090256-4.7506142,0.0087891-4.6271362   c0-0.0893555-0.0478516-0.1713867-0.1240234-0.2163086l-3.1318359-1.8208008l-2.5767822-1.4658813l20.1314697-11.6102905   c0.008049,3.5341721-0.0291595-12.8027172,0.0787354,34.5641479L73.3811646,78.847229L73.362854,71.6035156z    M87.0637207,36.6183472c1.2140045,0.7012825-4.3968506-2.5398903,11.8681641,6.8557739   c0.0076294,3.0030937,0.0859756,33.8458939,0.0877686,34.5511475l-11.8778152-6.8602295   C87.1073456,55.0403862,87.129631,64.9475555,87.0637207,36.6183472z M39.9934082,7.2895508l48.0078125,27.8999023   c-2.7962875,1.6142273,10.1296997-5.8476181-27.3476563,15.7871094c-0.1017303,0.0253296-0.4712563,0.265461-1.6571655,0.9454956   c-11.2068062-6.5127029-40.6179314-23.6046314-47.9976196-27.8932495L39.9934082,7.2895508z"/><polygon points="13.895937,55.1314087 15.819521,56.2420044 15.8846455,33.2782593 13.9610004,32.1676636  "/><polygon points="19.5813618,58.4138794 21.5120869,59.5286255 21.5772114,36.5648804 19.6464252,35.4501343  "/><polygon points="25.2739277,61.7005005 27.1975117,62.8110962 27.2626362,39.8473511 25.3389912,38.7367554  "/><polygon points="30.9593525,64.9829712 32.8900757,66.0977173 32.9552002,43.1339722 31.024416,42.0192261  "/><polygon points="36.6518555,68.2695313 38.5826416,69.3842773 38.6477661,46.4205322 36.71698,45.3058472  "/><polygon points="42.3444214,71.5561523 44.2680664,72.666748 44.3331909,49.703064 42.4095459,48.5924072  "/><polygon points="48.0298462,74.838623 49.9606323,75.9533691 50.0257568,52.989624 48.0949707,51.8748779  "/><polygon points="53.7875366,55.161499 53.7224121,78.1252441 55.6460571,79.2358398 55.7111816,56.2720947  "/><polygon points="96.8650513,74.3024292 96.7902222,44.7114258 89.2138062,40.3372803 89.2886963,69.9282837  "/><path d="M59.1369629,49.4980469c25.8504028-14.9833183,24.5439453-14.0394478,24.5439453-14.3149414   c0-0.2788277,1.6696777,0.8830643-43.5664063-25.4624023c-0.078125-0.0449219-0.1728516-0.0449219-0.2509766,0   C14.0131254,24.7040215,15.319582,23.7601509,15.319582,24.0356445c0,0.0893555,0.0473633,0.171875,0.1245117,0.2167969   C60.7593689,50.5715866,58.9268532,49.6188622,59.1369629,49.4980469z M39.9885254,10.2260742l42.9433594,24.9560547   L59.0119629,48.9926758L16.0681171,24.0366211L39.9885254,10.2260742z"/><polygon points="61.4042358,56.3652344 61.4987793,85.9898071 69.055481,90.3303833 68.9805908,60.7393799  "/><path d="M8.8914814,72.8565674c-0.0153198,0.0154419-0.0348511,0.0272217-0.0455933,0.0458984   c-0.0078125,0.0136108-0.0070801,0.0303955-0.0122681,0.0452881c-0.0089722,0.0258179-0.0211792,0.0505371-0.0213623,0.0786133   L8.7722187,86.0795898c-0.0004883,0.0898438,0.0473633,0.1728516,0.125,0.2172852l12.3188477,7.1123047   c0.0385742,0.0224609,0.0820313,0.0336914,0.125,0.0336914s0.0859375-0.0112305,0.1245117-0.0332031   c0.0028076-0.0016479,0.0039673-0.0049438,0.0067139-0.0066528l4.1953735-2.4360352   c0.0310421,4.9733582-0.1272335,5.004097,0.1099243,5.1389771l12.3095684,7.1098633   c0.0390625,0.0224609,0.0820313,0.0336914,0.125,0.0336914s0.0859375-0.0112305,0.125-0.0332031   c0.0001221-0.000061,0.0001831-0.0002441,0.0003052-0.0003052c0.0001831-0.0001221,0.0004883-0.000061,0.0006714-0.0001831   l10.7802734-6.2597656c0.0761719-0.0449219,0.1240234-0.1269531,0.1240234-0.215332   c0.0199661-6.5370178,0.0400391-13.3075027,0.0400391-13.0517578c0-0.2746658,0.5004272,0.2025146-12.4453125-7.3354492   c-0.2361794-0.1358032-0.1674652,0.0058746-4.4534302,2.442627l0.0188599-4.9152832   c0-0.0001831-0.0001221-0.0003052-0.0001221-0.0004883s0.0001221-0.0003052,0.0001221-0.0004883   c0-0.0188599-0.0101318-0.0349121-0.0142822-0.0529175c-0.0152588-0.0670166-0.0493774-0.1281128-0.1107178-0.1633911   c-0.0004883-0.0003052-0.0010986-0.0001221-0.0015869-0.0004272c-12.9913864-7.4429398-12.3296738-7.2509003-12.5677471-7.1113892   L8.9367695,72.8110352C8.9176044,72.8222046,8.9066792,72.8412476,8.8914814,72.8565674z M21.3811054,79.8505859   l-4.194397-2.4214478l10.272522-5.9698486l4.1939087,2.4213257C30.5985909,74.4935074,35.4579468,71.6693115,21.3811054,79.8505859   z M9.3107929,73.4594727l4.1552124,2.3989258v4.0165405l1.7359009-0.7191162l1.7359009,2.7504883V77.862793l4.1932983,2.4208984   l-0.0385742,12.4770508L9.272707,85.9365234L9.3107929,73.4594727z M38.2518311,89.6604614l-4.190918-2.4239502   l10.2757568-5.9717407l4.1966553,2.4251099L38.2518311,89.6604614z M26.1918354,83.2623291l4.149292,2.4000854v4.0192871   l1.735899-0.7191162l1.7359619,2.7504883v-4.0424805l4.1887817,2.4229126   c-0.0041656,1.3452835,0.0113907-3.6774139-0.0386353,12.473877l-11.8095684-6.8217773   C26.1586571,94.0847931,26.151432,96.4415207,26.1918354,83.2623291z M38.463501,102.56427   c0.0039711-1.2793198-0.0143318,4.6190491,0.0386963-12.4702759l10.2792969-5.9693604l-0.0390625,12.4710693L38.463501,102.56427z    M36.7121582,76.8588867l4.1542358,2.4005737l-10.274229,5.9707642c-0.1507893-0.0872116-4.4077053-2.5493317-4.1512451-2.401001   C42.0955963,73.7296677,34.5883751,78.0933762,36.7121582,76.8588867z M25.6694355,90.3872681l-4.0759277,2.3671265   l0.0380859-12.4707031c11.5167446-6.6924515,9.8655586-5.7329407,10.269043-5.9674072l-0.0175781,4.769165l-6.0664063,3.527832   C25.6363068,82.718483,25.7033443,82.9002838,25.6694355,90.3872681z M19.8342304,67.0571289l4.1530762,2.3977051   l-10.272522,5.9699097l-4.1535034-2.3978882L19.8342304,67.0571289z"/></g></svg>