<svg xmlns="http://www.w3.org/2000/svg" xmlns:xlink="http://www.w3.org/1999/xlink" version="1.1" viewBox="0 0 110 110"><g><path d="M9.5789824,98.617218c2.1433516,1.2425766,5.744607,3.3300476,5.5195313,3.2001953   c0.6945591,0.4007111,1.5229425,0.2035675,2.2172842-0.1977539L45.177372,85.5353699l0.0256348,8.3025513   c0.0004883,0.0883789,0.0478516,0.1704102,0.1245117,0.215332c4.6206627,2.6852036,10.5901031,6.1543045,15.7910156,9.1767578   c0.2384758,0.1358414-0.8783722,0.596344,18.3090782-10.4267578c0.0776367-0.0444336,0.1254883-0.1274414,0.125-0.2172852   l-0.0126343-4.0985107l3.5394897,2.05896c0.0012207,0.0007324,0.001709,0.0021973,0.0029297,0.0029297   c0.0385742,0.0219727,0.081543,0.0332031,0.1245117,0.0332031c0.000061,0,0.000061-0.000061,0.0001221-0.000061   c0.0012817,0,0.0025024,0.0010376,0.0037842,0.0010376c0.0429688,0,0.0864258-0.0112305,0.125-0.0336914   c0.0032349-0.0018311,0.0045166-0.0056763,0.0076904-0.0076904l18.0474854-10.4195557   c0.0776367-0.0444336,0.1254883-0.1274414,0.125-0.2172852l-0.059021-19.1170616   c0.0003052-0.0050659,0.0038452-0.0091553,0.0038452-0.0142822c0-0.0893555-0.0473633-0.171875-0.1245117-0.2167969   l-0.003479-0.0020142c-0.0006104-0.0003662-0.0007935-0.0010376-0.0014038-0.0014038   c-0.0005493-0.0003052-0.0012817-0.0001831-0.0018311-0.0004883l-11.3709106-6.6148071l-0.0276489-8.8158569   c-0.0001831-0.0280762-0.0123901-0.0527954-0.0213623-0.0786133c-0.005188-0.0148926-0.0044556-0.0316772-0.0122681-0.0452881   c-0.0107422-0.0186768-0.0302734-0.0304565-0.0455933-0.0458984c-0.0151978-0.0153198-0.026123-0.0343628-0.0452881-0.0455322   l-15.7900391-9.1704102c-0.0761719-0.0444336-0.1723633-0.0439453-0.2504883-0.0004883l-12.456295,7.1871338l-0.0891113-30.7706299   c0-0.0004883,0-0.0004883,0-0.0009766c-0.005249-0.9163208-0.3291626-1.6078491-0.9055176-1.9642944   c-0.0108643-0.0090942-0.0120239-0.0249634-0.0246582-0.0322876l-5.5126953-3.2114263   c-0.6137695-0.3491211-1.4267578-0.2753906-2.2285156,0.2006836l-12.5437012,7.23877l-0.3425293-0.1987305   c-0.8974609-0.5424805-2.0830078-0.440918-3.3354492,0.2851563c-1.4376831,0.8172607-2.7056885,2.355835-3.5354004,4.0762329   L11.3582792,30.9150734c-1.605957,0.9389648-2.8950195,3.1855469-2.8740234,5.0063477l0.1499023,60.6855431   C8.6561308,97.5718079,8.9823027,98.2666321,9.5789824,98.617218z M62.5950356,42.7596169l15.2914391,8.8865967   l-6.2650146,3.617981c-2.4780579-1.4406319-11.0698471-6.4355049-15.291378-8.8897095   C56.5861931,46.2267075,62.7002983,42.6988754,62.5950356,42.7596169z M89.1494141,67.4436951l-5.9981689,3.4606323   l-2.1970215-1.2778931l6.260498-3.6154785l2.2002563,1.2794189L89.1494141,67.4436951z M51.6595497,24.0473976   c0.0776367-0.0444336,0.125-0.1274414,0.125-0.2167969l-0.0150757-5.8133545l4.0863647-2.3575439   c0.7321014-0.4249935,1.6650391,0.1059914,1.6650391,0.9648438l0.0893555,28.4334717l-1.9042969,1.0987549   c-0.0386963,0.022522-0.0698853,0.0543823-0.0914917,0.0917969c-0.0073853,0.0128174-0.0064697,0.0289307-0.0115356,0.0429077   c-0.0095825,0.0266113-0.0219727,0.0523682-0.0219727,0.081604c0,0.0002441,0.0001831,0.0004883,0.0001831,0.0007324   s-0.0001831,0.0004883-0.0001831,0.0007324l0.0600586,19.1396446c0.0004883,0.0883789,0.0473557,0.1704102,0.1245117,0.215332   l2.3272095,1.3530273c-13.5000534,7.8500977-12.9517212,7.3451538-12.9517212,7.6201172   c0,0.0039673,0.0028076,0.0071411,0.0029907,0.0111084l0.0007324,0.2541504l-13.840395,7.9931641l0.0100098,1.9000244   l13.8363056-7.9907837l0.0142822,4.6289063L19.5247822,96.3076477c-0.7401428,0.4326248-1.6738281-0.1049347-1.6738281-0.9648438   l-0.1601563-56.8232384c0.0078125-0.3144531,0.4501953-1.0737305,0.715332-1.2299805l5.2078247-3.0109253l0.0084839,2.744812   c0.0004883,0.0888672,0.0478516,0.1708984,0.1245117,0.215332l2.4106445,1.3989258   c0.0766926,0.0446548,0.1728783,0.0451927,0.2504883,0c0.0153198-0.0088501,0.0233765-0.0246582,0.0362549-0.0362549   L51.6595497,24.0473976z M71.3713989,55.697422c0.0142365,4.5431099,0.053688,17.1306725,0.0581665,18.560421   l-15.2890587-8.8886719l-0.0581055-18.5600548C61.3256721,49.8573074,66.035675,52.5954819,71.3713989,55.697422z    M45.8925209,74.702179l6.2660522-3.6170044l15.287899,8.8844604l-6.2649498,3.6148682   C59.6176414,82.6759491,66.8457031,86.8751831,45.8925209,74.702179z M72.5376587,77.032074L57.248661,68.1470032   l1.3415527-0.7744141c13.7739143,8.0069275,13.0263557,7.6497726,13.2158165,7.5371094l4.7370605-2.7357178l2.1989746,1.2781982   L72.5376587,77.032074z M71.9296875,74.2607117C71.924469,72.5969467,71.8790436,58.1145821,71.87146,55.6973l6.2670898-3.6192627   v6.06604l2.5447998-4.0321655l2.5447998,1.0542603v-6.0274048l6.2043457-3.5830688l0.0581055,18.5634727   C86.7485962,65.7027283,71.806778,74.3317795,71.9296875,74.2607117z M42.460331,16.6255226   c0.3691406,0.5209961,0.5639648,1.2524414,0.5639648,2.1157227c0.0165596,0.1002827-0.053093,0.2419853,0.1115112,0.3601074   c0.0371704,0.026123,0.078064,0.0430298,0.1227417,0.0493774c0.0096436,0.0010986,0.0161133,0.010437,0.026001,0.010437   c0.1278419,0-0.2593842,0.1741104,6.6391602-3.7856445c0.003418-0.0014648,0.1367188-0.0732422,0.1401367-0.0751953   c0.6251335-0.3383398,1.1870117-0.0700998,1.1870117,0.8129883c0.0334435,5.2364407,0.032074,7.2647419,0.0332031,7.5737305   L26.5316792,37.9742165L26.5086689,30.6973c0-1.0281334,0.7108517-2.2203407,1.5732422-2.7255859   c0.1011963-0.0583057,6.9293232-3.9924202,6.4975605-3.7436523c0.0763206-0.0445023,0.1323242-0.1411304,0.1323242-0.2270508   v-0.1694336c-0.0200806-2.4015503,1.4674683-5.3408813,3.3973389-6.9334717   C39.5057716,15.75144,41.4576607,15.1287193,42.460331,16.6255226z M45.7025185,93.6929016l-0.0571289-18.5527954   c1.5686073,0.911232-5.6722069-3.2950668,15.2894897,8.881897c0.0123138,4.0307159,0.0437393,14.3141556,0.0567017,18.5561523   L45.7025185,93.6929016z M61.491703,102.5810242c-0.0211563-6.9171753-0.0354347-11.5856247-0.0567627-18.559021   l6.2636681-3.6164551v6.0620117l2.5447998-4.0321655l2.5447998,1.0542603v-6.0227051   c0.1017685-0.0587463,6.6197357-3.8217773,6.2067871-3.583374l0.0571289,18.5593262L61.491703,102.5810242z M79.368042,73.2344055   c-0.0032349-0.0018311-0.0071411-0.0010376-0.010437-0.0027466l-2.3152466-1.3460083l3.4127197-1.9709473l2.4431763,1.4211426   l0.057312,18.5599365l-3.4174194-1.9879761C79.4418945,72.6800156,79.6071548,73.3712616,79.368042,73.2344055z    M83.4594727,89.8981018l-0.0582275-18.5584106l5.7096558-3.2966309l0.5511475-0.3179932v6.0618896l2.5447998-4.0321655   l2.5447998,1.0541992v-6.0203857l6.2067261-3.5810509l0.0571289,18.5546837L83.4594727,89.8981018z M100.7080688,60.7700539   l-6.2024536,3.5811119l-4.5224609-2.6216393l-0.022644-7.2114258L100.7080688,60.7700539z M73.8905029,36.2422218   l15.2915039,8.8808594l-6.206604,3.5842896l-15.2892456-8.8853149L73.8905029,36.2422218z M52.8016396,7.5762057   c0.6469727-0.3828125,1.2768555-0.4541016,1.7265625-0.1992188l4.46875,2.6035161   c-0.1693573,0.0352755-0.7051277,0.2313519-0.940918,0.3662109l-7.3317871,4.2319336l-1.9694824-1.1611328   c-0.4003906-0.2456055-0.9248047-0.2036133-1.4755859,0.1166992l-4.5580444,2.6253052   c-0.4718361-0.5883064-0.7894478-0.6146002-2.2168579-1.4868164L52.8016396,7.5762057z M11.6092558,31.3472023   L32.453434,19.3186378c-0.4047241,1.0372925-0.6522846,2.1098633-0.6522846,3.1164551v0.0233154l-6.3798828,3.682251   c-0.0009766,0.0004883-0.0024414,0.0009766-0.003418,0.0019531c-1.0371094,0.6220703-1.8193359,1.9785156-1.8193359,3.1567383   l0.0029297,0.9434204c-0.2188969,0.1264172-7.1546555,4.131958-6.7231445,3.8827515   c-0.0001831,0.0001221-0.0003052,0.0001831-0.0004883,0.0003052l-0.0019531,0.0011597   c-1.6548014,0.9561424-2.8950186,3.2326279-2.8950186,5.0073242l0.1201782,40.4636803L14.1541777,99.8013   c0,0.3813324,0.0983391,0.8416519,0.140625,0.9716797l-4.4638672-2.5874023   c-0.4379883-0.2578125-0.6791992-0.8076172-0.6967773-1.5849609L8.9842558,35.9180031   C8.9652128,34.2554054,10.1434355,32.2046242,11.6092558,31.3472023z"/><path d="M20.4837666,44.6216164c0.0695591,7.8226662-0.0919399,7.65065,0.1464844,7.7871094   c0.2376518,0.1353722-0.0024967,0.0927544,6.828125-3.7983398c0.0776367-0.0444336,0.1254883-0.1274414,0.125-0.2167969   c-0.0700512-7.8226624,0.0914536-7.6506538-0.1469727-7.7871094c-0.2392597-0.1362877,0.0015526-0.0887413-6.8276367,3.7983398   C20.5311298,44.4492531,20.4832783,44.5322609,20.4837666,44.6216164z M27.0633507,41.2554054l0.019537,6.9946289   L21.0037861,51.7598l-0.0195313-6.9946289L27.0633507,41.2554054z"/><path d="M27.4735126,53.7695656c-0.2392597-0.1362877,0.0015526-0.0887413-6.8276367,3.7983398   c-0.2380276,0.1362305-0.0773563-0.0391006-0.1035156,7.7875938c0.0010643,0.1946716,0.211338,0.3111191,0.375,0.2158203   l6.578125-3.7978477c0.0776367-0.0444336,0.1254883-0.1274414,0.125-0.2167969   C27.5504341,53.7340126,27.7119389,53.9060211,27.4735126,53.7695656z M21.0408955,64.9228821l-0.0195313-6.9946251   l6.0791016-3.5097656l0.0195313,6.9946289L21.0408955,64.9228821z"/><path d="M27.2615986,66.9448547c-6.7717571,3.9649124-6.7051144,3.7397308-6.7036133,4.0146484   c0.0700455,7.8100586-0.0914516,7.6389389,0.1469727,7.7753906c0.2376518,0.135376-0.0024967,0.0927582,6.828125-3.7983398   c0.0776367-0.0444336,0.1254883-0.1274414,0.125-0.2167969l-0.0214844-7.559082   C27.6355324,66.9655991,27.4249897,66.8497162,27.2615986,66.9448547z M21.0780048,78.085968l-0.0195313-6.9829102   l6.0795898-3.5097656l0.0195313,6.9829102L21.0780048,78.085968z"/><path d="M27.298708,80.1079407c-6.7716312,3.965126-6.7046261,3.7397308-6.703125,4.0146484   c0.0700531,7.82267-0.0914516,7.6506577,0.1469727,7.7871094c0.2376518,0.135376-0.0028629,0.0929718,6.8276367-3.7983398   c0.0776367-0.0444336,0.1254883-0.1274414,0.125-0.2167969L27.673708,80.323761   C27.6726418,80.128685,27.4620991,80.0128021,27.298708,80.1079407z M21.1156025,91.2607727l-0.0195313-6.9946289   l6.0791016-3.5097656l0.0195313,6.9946289L21.1156025,91.2607727z"/><polygon points="47.5040932,34.0545387 31.1922626,43.4721413 31.1976337,45.3678322 47.5094643,35.9502296  "/><polygon points="31.2607441,67.6183167 54.5678139,54.1619606 54.5624428,52.2663307 31.255373,65.7226257  "/><polygon points="47.5413857,47.2176247 31.2296162,56.6352272 31.2349873,58.5309181 47.5467567,49.1133156  "/><polygon points="31.2233906,54.4551735 54.5305214,40.9988747 54.5251503,39.1031837 31.2180195,52.5595436  "/><polygon points="54.4931679,27.8357887 54.4877968,25.9400978 31.180727,39.3964577 31.1860981,41.2920876  "/><polygon points="47.5786781,60.3807106 31.2669086,69.7983093 31.2722797,71.6940002 47.5841103,62.2764015  "/><polygon points="31.2980366,80.7814026 54.6051064,67.3250427 54.5997353,65.4294128 31.2926655,78.8857117  "/><path d="M41.0267372,18.5713234c-1.5523338-1.866497-4.6625977,1.4079914-4.6625977,4.0795898   c0,0.7164192,0.2442551,1.5037994,0.8984375,1.8027344c0.1147461,0.0712891,0.230957,0.112793,0.3359375,0.1230469   C39.8943481,25.0107803,42.5180283,20.5470505,41.0267372,18.5713234z M40.9642372,20.0010109   c0,1.9483662-1.665493,3.9475956-2.8393555,4.0927734c-0.8482399,0.1423416-1.2607422-0.5761623-1.2607422-1.4428711   c0-2.738018,3.2220726-5.4366875,4-3.3696289c0,0.0292969,0.0048828,0.0581055,0.0151367,0.0854492   C40.9502945,19.5632267,40.9579926,19.9002895,40.9642372,20.0010109z"/><path d="M22.8532124,49.2736549c0.1053009,0.1053009,0.4213448,0.0079002,0.6199951-0.3399658l2.9400635-5.0999146   c0.1290894-0.2324829,0.1799927-0.6332397-0.0200195-0.7000732c-0.25-0.124939-0.5198975,0.1398315-0.6199951,0.3400879   l-2.6400146,4.5598755l-0.8399658-0.4799194c-0.3454361-0.259079-1.0690975,0.7480736-0.5999756,1.0598755L22.8532124,49.2736549z"/><path d="M26.4305439,56.247715c-0.2550049-0.1275635-0.5197754,0.1395874-0.6199951,0.3400269l-2.6399536,4.5599365   l-0.8399658-0.4799805c-0.345129-0.2588463-1.0692158,0.7480164-0.5999756,1.0599365l1.1599121,0.6600342   c0.104187,0.104187,0.4194336,0.0111694,0.6199951-0.3399658l2.9400024-5.0999756   C26.5796528,56.7152443,26.6305561,56.3144875,26.4305439,56.247715z"/><path d="M26.4678974,69.4872742c-0.25-0.125-0.5198364,0.1398315-0.6199951,0.3400879l-2.6400146,4.5598755l-0.8399658-0.4799805   c-0.3451023-0.2587967-1.0691547,0.7481384-0.5999146,1.0599365l1.1598511,0.6600342   c0.088562,0.088501,0.3991089,0.046875,0.6199951-0.3399658l2.9400635-5.0999146   C26.6170063,69.9548645,26.6679096,69.5541077,26.4678974,69.4872742z"/><path d="M26.5051899,82.6375427c-0.249939-0.124939-0.5198364,0.1398315-0.6199341,0.3400879l-2.6400146,4.5599365   l-0.8399658-0.4799805c-0.3454762-0.2591019-1.0690975,0.748024-0.5999756,1.0599365l1.1599121,0.6599731   c0.104187,0.104187,0.4194336,0.0112305,0.6199951-0.3399658l2.9400024-5.0999146   C26.6543598,83.1051331,26.7052631,82.7043762,26.5051899,82.6375427z"/><polygon points="64.3486328,96.6860046 64.8586426,96.3860168 64.8586426,94.2759705 65.4186401,93.9560242 64.5986328,93.1759949    63.7986488,94.8860168 64.3286133,94.5760193  "/><polygon points="63.7586098,98.04599 67.4786377,95.8860168 67.4786377,95.2660217 63.7586098,97.4159851  "/><path d="M71.1786499,90.3160095c-0.2400513-0.1199951-0.5700073-0.1500244-0.8900146,0.0299683v-0.1300049   c0-0.1300049-0.1099854-0.1799927-0.2200317-0.1300049c-0.0899658,0.0800171-0.1799927,0.2000122-0.1799927,0.3300171v0.1400146   c-0.7600098,0.5299683-1.3599854,1.6300049-1.3599854,2.5299683l1.4699707-0.8399658v1.6300049   c0,0.1799927-0.1300049,0.4099731-0.289978,0.4899902c-0.1699829,0.0999756-0.289978,0.0300293-0.289978-0.1500244   c0-0.0699463-0.0599976-0.1099854-0.1100464-0.0699463c-0.2658768,0.2126389-0.0275574,0.7232971,0.4000244,0.4699707   c0.289978-0.1500244,0.5200195-0.5599976,0.5200195-0.8699951l-0.0300293-1.6099854l1.4400024-0.8200073   C71.6386108,90.8059998,71.4586182,90.4659729,71.1786499,90.3160095z"/><polygon points="66.3685913,95.5160217 66.8886108,95.2159729 66.8886108,93.1059875 67.4385986,92.7859802 66.6086426,92.006012    65.798645,93.7259827 66.3586426,93.4059753  "/><polygon points="85.3261108,85.5539246 85.8361206,85.2539368 85.8361206,83.1438904 86.3961182,82.8239441 85.5761108,82.0439148    84.776123,83.7539368 85.3060913,83.4439392  "/><polygon points="84.736084,86.9139099 88.4561157,84.7539368 88.4561157,84.1339417 84.736084,86.283905  "/><path d="M92.1561279,79.1839294c-0.2400513-0.1199951-0.5700073-0.1500244-0.8900146,0.0299683v-0.1300049   c0-0.1300049-0.1099854-0.1799927-0.2200317-0.1300049c-0.0899658,0.0800171-0.1799927,0.2000122-0.1799927,0.3300171v0.1400146   c-0.7600098,0.5299683-1.3599854,1.6300049-1.3599854,2.5299683l1.4699707-0.8399658v1.6300049   c0,0.4338455-0.5799561,0.7608871-0.5799561,0.3399658c0-0.0699463-0.0599976-0.1099854-0.1100464-0.0699463   c-0.2658768,0.2126389-0.0275574,0.7232971,0.4000244,0.4699707c0.289978-0.1500244,0.5200195-0.5599976,0.5200195-0.8699951   l-0.0300293-1.6099854l1.4400024-0.8200073C92.6160889,79.6739197,92.4360962,79.3338928,92.1561279,79.1839294z"/><polygon points="87.3460693,84.3839417 87.8660889,84.0838928 87.8660889,81.9739075 88.4160767,81.6539001 87.5861206,80.8739319    86.776123,82.5939026 87.3361206,82.2738953  "/><polygon points="74.7885742,68.9520569 75.298584,68.6520691 75.298584,66.5420227 75.8585815,66.2220764 75.0385742,65.4420471    74.2385864,67.1520691 74.7685547,66.8420715  "/><polygon points="74.1985474,70.3120422 77.9185791,68.1520691 77.9185791,67.532074 74.1985474,69.6820374  "/><path d="M81.6185913,62.5820656c-0.2400513-0.1199951-0.5700073-0.1500244-0.8900146,0.0299683V62.482029   c0-0.1300049-0.1099854-0.1799927-0.2200317-0.1300049c-0.0899658,0.0800171-0.1799927,0.2000122-0.1799927,0.3300171v0.1400146   c-0.7600098,0.5299683-1.3599854,1.6300011-1.3599854,2.5299644l1.4699707-0.8399658v1.6300049   c0,0.1799927-0.1300049,0.4099731-0.289978,0.4899902c-0.1699829,0.0999756-0.289978,0.0300293-0.289978-0.1500244   c0-0.0699463-0.0599976-0.1099854-0.1100464-0.0699463c-0.2658768,0.2126389-0.0275574,0.7232971,0.4000244,0.4699707   c0.289978-0.1500244,0.5200195-0.5599976,0.5200195-0.8699951l-0.0300293-1.6099854l1.4400024-0.8200035   C82.0785522,63.0720558,81.8985596,62.732029,81.6185913,62.5820656z"/><polygon points="76.8085327,67.782074 77.3285522,67.4820251 77.3285522,65.3720398 77.87854,65.0520325 77.048584,64.2720642    76.2385864,65.9920349 76.798584,65.6720276  "/></g></svg>